<svg xmlns="http://www.w3.org/2000/svg" xmlns:xlink="http://www.w3.org/1999/xlink" viewBox="0 0 248.1 46.06"><defs><style>.cls-1,.cls-2{fill:none;}.cls-2{clip-rule:evenodd;}.cls-3{fill:#1d5888;}.cls-4{fill:#0b66a0;}.cls-5{clip-path:url(#clip-path);}.cls-6{clip-path:url(#clip-path-2);}.cls-7{fill:#ff993b;opacity:0.75;}.cls-8{clip-path:url(#clip-path-3);}.cls-9{clip-path:url(#clip-path-4);}</style><clipPath id="clip-path" transform="translate(0 -0.18)"><polyline class="cls-1" points="172.31 0 209.27 0 209.27 36.96 172.31 36.96 172.31 0"/></clipPath><clipPath id="clip-path-2" transform="translate(0 -0.18)"><polyline class="cls-2" points="172.43 0.18 209.18 0.18 209.18 36.93 172.43 36.93 172.43 0.18"/></clipPath><clipPath id="clip-path-3" transform="translate(0 -0.18)"><polyline class="cls-1" points="211.19 0 248.15 0 248.15 36.96 211.19 36.96 211.19 0"/></clipPath><clipPath id="clip-path-4" transform="translate(0 -0.18)"><polyline class="cls-2" points="211.35 0.18 248.1 0.18 248.1 36.93 211.35 36.93 211.35 0.18"/></clipPath></defs><g id="Layer_2" data-name="Layer 2"><g id="Layer_1-2" data-name="Layer 1"><path class="cls-3" d="M19.35,5.87V20.49a27.09,27.09,0,0,1-.16,3.24,10.25,10.25,0,0,1-.73,2.7A7.23,7.23,0,0,1,15.32,30,10.34,10.34,0,0,1,10,31.31a11,11,0,0,1-4.74-.9,6.89,6.89,0,0,1-3-2.89,10.19,10.19,0,0,1-1-2.46,9.8,9.8,0,0,1-.38-2.65,2.65,2.65,0,0,1,.74-2,2.65,2.65,0,0,1,1.9-.71,2.16,2.16,0,0,1,1.7.65,4.48,4.48,0,0,1,.87,2,19.91,19.91,0,0,0,.65,2.34,3.49,3.49,0,0,0,1.09,1.5,3.3,3.3,0,0,0,2.17.63q3.75,0,3.75-5.5V5.87a3.84,3.84,0,0,1,.75-2.58,2.59,2.59,0,0,1,2.05-.85,2.66,2.66,0,0,1,2.08.85A3.74,3.74,0,0,1,19.35,5.87Z" transform="translate(0 -0.18)"/><path class="cls-3" d="M46.69,22.45A8.18,8.18,0,0,1,45.39,27a8.66,8.66,0,0,1-3.82,3.16,14.18,14.18,0,0,1-6,1.15,13.42,13.42,0,0,1-6.82-1.56,9.05,9.05,0,0,1-3.09-3,6.76,6.76,0,0,1-1.19-3.65,2.41,2.41,0,0,1,.71-1.76A2.43,2.43,0,0,1,27,20.6a2.14,2.14,0,0,1,1.51.58,4.47,4.47,0,0,1,1.06,1.69,11.25,11.25,0,0,0,1.15,2.23,4.64,4.64,0,0,0,1.74,1.48,6.57,6.57,0,0,0,3,.58A6.61,6.61,0,0,0,39.54,26a3.51,3.51,0,0,0,1.57-2.92,3.08,3.08,0,0,0-.85-2.26,5.54,5.54,0,0,0-2.19-1.32c-.89-.3-2.09-.63-3.59-1a26.24,26.24,0,0,1-5-1.65,8.11,8.11,0,0,1-3.22-2.57,6.67,6.67,0,0,1-1.19-4,6.94,6.94,0,0,1,1.26-4.1A7.91,7.91,0,0,1,29.93,3.4a15,15,0,0,1,5.6-1A13.71,13.71,0,0,1,40,3.08a9.31,9.31,0,0,1,3.11,1.69A7,7,0,0,1,44.9,7a5.11,5.11,0,0,1,.57,2.27,2.69,2.69,0,0,1-.71,1.81,2.28,2.28,0,0,1-1.78.81,2.08,2.08,0,0,1-1.48-.48,6.6,6.6,0,0,1-1.09-1.59,7.21,7.21,0,0,0-1.83-2.47,5.36,5.36,0,0,0-3.43-.88,5.92,5.92,0,0,0-3.53,1,2.78,2.78,0,0,0-1.34,2.31,2.38,2.38,0,0,0,.45,1.45A4.15,4.15,0,0,0,32,12.23a8.09,8.09,0,0,0,1.62.68c.54.17,1.45.41,2.7.73a41.52,41.52,0,0,1,4.28,1.21,13.32,13.32,0,0,1,3.25,1.62,6.67,6.67,0,0,1,2.1,2.41A7.73,7.73,0,0,1,46.69,22.45Z" transform="translate(0 -0.18)"/><path class="cls-3" d="M85.83,22a7.45,7.45,0,0,1-.66,2.89,10.55,10.55,0,0,1-5.67,5.47,12.79,12.79,0,0,1-5.1.94,17.85,17.85,0,0,1-4-.42,11.32,11.32,0,0,1-3.28-1.31,11,11,0,0,1-2.72-2.33,14,14,0,0,1-1.88-2.94,15.49,15.49,0,0,1-1.17-3.48,19,19,0,0,1-.39-3.92,17.28,17.28,0,0,1,1-6,12.93,12.93,0,0,1,2.81-4.56A12.16,12.16,0,0,1,69,3.43a13.88,13.88,0,0,1,5.24-1,13.06,13.06,0,0,1,6,1.35,11,11,0,0,1,4.06,3.34,6.6,6.6,0,0,1,1.41,3.76,2.46,2.46,0,0,1-.69,1.72,2.18,2.18,0,0,1-1.65.74,2.29,2.29,0,0,1-1.63-.51,7.24,7.24,0,0,1-1.21-1.78A8.57,8.57,0,0,0,78,8a6.33,6.33,0,0,0-3.68-1,6.68,6.68,0,0,0-5.56,2.65q-2.06,2.64-2.06,7.52a14,14,0,0,0,.91,5.42,6.83,6.83,0,0,0,2.59,3.23,7.17,7.17,0,0,0,3.92,1.06,6.89,6.89,0,0,0,4.13-1.21,7.29,7.29,0,0,0,2.54-3.55,6.3,6.3,0,0,1,.89-1.8,2,2,0,0,1,1.72-.69A2.44,2.44,0,0,1,85.83,22Z" transform="translate(0 -0.18)"/><path class="cls-3" d="M110,20.74a12.28,12.28,0,0,1-.72,4.28,9.48,9.48,0,0,1-2.1,3.37,9.16,9.16,0,0,1-3.27,2.16,12.35,12.35,0,0,1-8.53,0A9.37,9.37,0,0,1,90,25a12.34,12.34,0,0,1-.71-4.27A12.39,12.39,0,0,1,90,16.42a9.59,9.59,0,0,1,2.08-3.36,9.15,9.15,0,0,1,3.28-2.14,12.42,12.42,0,0,1,8.53,0,9.31,9.31,0,0,1,3.29,2.17,9.41,9.41,0,0,1,2.09,3.35A12.54,12.54,0,0,1,110,20.74Zm-5.22,0a7.76,7.76,0,0,0-1.4-4.95A4.53,4.53,0,0,0,99.62,14a4.62,4.62,0,0,0-2.68.79,4.93,4.93,0,0,0-1.79,2.33,9.49,9.49,0,0,0-.63,3.6,9.28,9.28,0,0,0,.62,3.56,5.1,5.1,0,0,0,1.77,2.33,4.59,4.59,0,0,0,2.71.81,4.51,4.51,0,0,0,3.76-1.78A7.74,7.74,0,0,0,104.78,20.74Z" transform="translate(0 -0.18)"/><path class="cls-3" d="M127.6,28.37v-.66a11.54,11.54,0,0,1-2,2,7.22,7.22,0,0,1-2.24,1.19,9.11,9.11,0,0,1-2.78.39,7.17,7.17,0,0,1-3.38-.78,5.74,5.74,0,0,1-2.32-2.15,9.61,9.61,0,0,1-1-4.76V13.27a3.36,3.36,0,0,1,.71-2.33,2.41,2.41,0,0,1,1.86-.77,2.49,2.49,0,0,1,1.91.78,3.32,3.32,0,0,1,.72,2.32V21.6a12.44,12.44,0,0,0,.31,3,3.64,3.64,0,0,0,1.09,1.93,3.15,3.15,0,0,0,2.14.69,4.38,4.38,0,0,0,2.48-.78,4.53,4.53,0,0,0,1.69-2,16,16,0,0,0,.44-4.83V13.27A3.32,3.32,0,0,1,128,11a2.48,2.48,0,0,1,1.89-.78,2.43,2.43,0,0,1,1.87.77,3.36,3.36,0,0,1,.7,2.33V28.34a3.19,3.19,0,0,1-.67,2.22,2.41,2.41,0,0,1-3.51,0A3.16,3.16,0,0,1,127.6,28.37Z" transform="translate(0 -0.18)"/><path class="cls-3" d="M142.37,13v.63a9.2,9.2,0,0,1,3-2.65,8,8,0,0,1,3.74-.85,7.53,7.53,0,0,1,3.68.89,5.71,5.71,0,0,1,2.42,2.54,6,6,0,0,1,.66,2.05,19.88,19.88,0,0,1,.16,2.82v9.68a3.43,3.43,0,0,1-.72,2.36,2.36,2.36,0,0,1-1.85.8,2.42,2.42,0,0,1-1.89-.82,3.45,3.45,0,0,1-.72-2.34V19.48a8.6,8.6,0,0,0-.72-3.93,2.89,2.89,0,0,0-2.84-1.36,4.2,4.2,0,0,0-2.54.83,4.72,4.72,0,0,0-1.67,2.27,16.05,16.05,0,0,0-.38,4.34v6.52a3.38,3.38,0,0,1-.74,2.37,2.49,2.49,0,0,1-1.89.79,2.38,2.38,0,0,1-1.85-.82,3.45,3.45,0,0,1-.72-2.34v-15a3.24,3.24,0,0,1,.65-2.22,2.23,2.23,0,0,1,1.77-.73,2.42,2.42,0,0,1,1.23.32,2.33,2.33,0,0,1,.89,1A3.48,3.48,0,0,1,142.37,13Z" transform="translate(0 -0.18)"/><path class="cls-3" d="M161.49,10.63h.57V7.5c0-.83,0-1.49.07-2a3.11,3.11,0,0,1,.37-1.23,2.35,2.35,0,0,1,.88-.86,2.49,2.49,0,0,1,1.27-.34,2.55,2.55,0,0,1,1.79.75,2.2,2.2,0,0,1,.68,1.21,10.52,10.52,0,0,1,.14,2v3.55h1.91a2.42,2.42,0,0,1,1.68.52,1.72,1.72,0,0,1,.58,1.34A1.5,1.5,0,0,1,170.6,14a5.35,5.35,0,0,1-2.37.42h-1v9.56a14.62,14.62,0,0,0,.09,1.87,1.91,1.91,0,0,0,.46,1.07,1.55,1.55,0,0,0,1.2.41,6.24,6.24,0,0,0,1.24-.16,6.25,6.25,0,0,1,1.22-.16,1.53,1.53,0,0,1,1.13.5,1.69,1.69,0,0,1,.51,1.25,2.08,2.08,0,0,1-1.37,1.92,9.35,9.35,0,0,1-3.94.67,6.88,6.88,0,0,1-3.7-.82,3.8,3.8,0,0,1-1.65-2.27,15.32,15.32,0,0,1-.39-3.86v-10h-.68a2.48,2.48,0,0,1-1.72-.54,1.74,1.74,0,0,1-.59-1.35,1.69,1.69,0,0,1,.62-1.34A2.74,2.74,0,0,1,161.49,10.63Z" transform="translate(0 -0.18)"/><path class="cls-3" d="M19.35,5.87H18.8V20.49a27.89,27.89,0,0,1-.16,3.17A9.77,9.77,0,0,1,18,26.22h0A6.77,6.77,0,0,1,15,29.54h0a9.78,9.78,0,0,1-5,1.21,10.56,10.56,0,0,1-4.5-.84,6.43,6.43,0,0,1-2.81-2.67h0a10.2,10.2,0,0,1-.94-2.33,9.49,9.49,0,0,1-.36-2.5A2.15,2.15,0,0,1,2,20.78a2.1,2.1,0,0,1,1.52-.55,1.57,1.57,0,0,1,1.28.46,4,4,0,0,1,.75,1.77h0a19,19,0,0,0,.67,2.41,4.07,4.07,0,0,0,1.25,1.74,3.89,3.89,0,0,0,2.53.76,3.76,3.76,0,0,0,3.27-1.62,8,8,0,0,0,1-4.44V5.87a3.28,3.28,0,0,1,.61-2.21h0A2,2,0,0,1,16.5,3a2.1,2.1,0,0,1,1.67.68h0a3.17,3.17,0,0,1,.63,2.2h1.11A4.31,4.31,0,0,0,19,2.92h0a3.25,3.25,0,0,0-2.5-1A3.16,3.16,0,0,0,14,2.93h0a4.36,4.36,0,0,0-.89,2.94V21.31a6.88,6.88,0,0,1-.84,3.81A2.63,2.63,0,0,1,10,26.26a2.78,2.78,0,0,1-1.82-.51,3,3,0,0,1-.92-1.26,18.48,18.48,0,0,1-.62-2.27h0a5.19,5.19,0,0,0-1-2.27,2.73,2.73,0,0,0-2.12-.84A3.25,3.25,0,0,0,1.19,20a3.19,3.19,0,0,0-.92,2.44,10.4,10.4,0,0,0,.4,2.8,11,11,0,0,0,1,2.58h0A7.56,7.56,0,0,0,5,30.92a11.63,11.63,0,0,0,5,.94A10.9,10.9,0,0,0,15.6,30.5h0A7.78,7.78,0,0,0,19,26.64h0a11,11,0,0,0,.78-2.85,28.49,28.49,0,0,0,.16-3.31V5.87Z" transform="translate(0 -0.18)"/><path class="cls-3" d="M46.69,22.45h-.56a7.62,7.62,0,0,1-1.21,4.25,8.17,8.17,0,0,1-3.58,3,13.81,13.81,0,0,1-5.73,1.09,12.84,12.84,0,0,1-6.54-1.49h0a8.5,8.5,0,0,1-2.9-2.82,6.22,6.22,0,0,1-1.11-3.35,1.93,1.93,0,0,1,2-1.94,1.57,1.57,0,0,1,1.13.43,3.93,3.93,0,0,1,.92,1.48h0a12.42,12.42,0,0,0,1.21,2.34,5.2,5.2,0,0,0,1.95,1.65,7,7,0,0,0,3.21.64,7.2,7.2,0,0,0,4.41-1.28,4.09,4.09,0,0,0,1.8-3.37,3.63,3.63,0,0,0-1-2.64h0A6.07,6.07,0,0,0,38.25,19a37.59,37.59,0,0,0-3.64-1h0a26.9,26.9,0,0,1-4.93-1.61,7.53,7.53,0,0,1-3-2.4,6.09,6.09,0,0,1-1.08-3.71,6.38,6.38,0,0,1,1.15-3.78,7.38,7.38,0,0,1,3.39-2.55h0A14.33,14.33,0,0,1,35.53,3a13.34,13.34,0,0,1,4.27.61,8.85,8.85,0,0,1,2.93,1.59h0A6.51,6.51,0,0,1,44.4,7.24a4.7,4.7,0,0,1,.52,2,2.16,2.16,0,0,1-.58,1.45h0a1.72,1.72,0,0,1-1.36.62A1.56,1.56,0,0,1,41.89,11h0a6,6,0,0,1-1-1.45l-.49.26.5-.24a7.88,7.88,0,0,0-2-2.66h0a5.81,5.81,0,0,0-3.78-1A6.49,6.49,0,0,0,31.29,7,4,4,0,0,0,30.13,8.2a3,3,0,0,0-.41,1.53,2.91,2.91,0,0,0,.57,1.78,4.34,4.34,0,0,0,1.43,1.2,8.62,8.62,0,0,0,1.73.73c.56.17,1.46.42,2.73.74h0a40.08,40.08,0,0,1,4.21,1.2,12.27,12.27,0,0,1,3.12,1.55,5.93,5.93,0,0,1,1.92,2.21,7.16,7.16,0,0,1,.69,3.31h1.12a8.15,8.15,0,0,0-.82-3.82A7.2,7.2,0,0,0,44.17,16a13.66,13.66,0,0,0-3.4-1.69,43.09,43.09,0,0,0-4.33-1.24l-.13.55.14-.54c-1.25-.32-2.15-.56-2.68-.72a7.86,7.86,0,0,1-1.51-.64,3.18,3.18,0,0,1-1.08-.9,1.79,1.79,0,0,1-.35-1.11,1.9,1.9,0,0,1,.26-1,2.93,2.93,0,0,1,.85-.89A5.44,5.44,0,0,1,35.15,7a4.85,4.85,0,0,1,3.07.76h0a6.6,6.6,0,0,1,1.68,2.28h0a7.16,7.16,0,0,0,1.2,1.73h0a2.65,2.65,0,0,0,1.87.64,2.85,2.85,0,0,0,2.2-1h0A3.27,3.27,0,0,0,46,9.26a5.72,5.72,0,0,0-.63-2.52,7.64,7.64,0,0,0-1.95-2.39h0a9.89,9.89,0,0,0-3.29-1.8,14.44,14.44,0,0,0-4.63-.67,15.54,15.54,0,0,0-5.81,1h0a8.59,8.59,0,0,0-3.88,3,7.58,7.58,0,0,0-1.36,4.42,7.25,7.25,0,0,0,1.3,4.37,8.68,8.68,0,0,0,3.43,2.75,26.38,26.38,0,0,0,5.15,1.68h0a34.66,34.66,0,0,1,3.53,1,5,5,0,0,1,2,1.18h0a2.56,2.56,0,0,1,.68,1.87,3,3,0,0,1-1.34,2.48,6.12,6.12,0,0,1-3.75,1.06,5.93,5.93,0,0,1-2.7-.52,4.09,4.09,0,0,1-1.54-1.3,10.65,10.65,0,0,1-1.09-2.12h0a5,5,0,0,0-1.2-1.9A2.68,2.68,0,0,0,27,20.05,3,3,0,0,0,24,23.1,7.3,7.3,0,0,0,25.23,27a9.54,9.54,0,0,0,3.28,3.19h0a14,14,0,0,0,7.1,1.63,14.9,14.9,0,0,0,6.19-1.19,9.2,9.2,0,0,0,4.05-3.36,8.79,8.79,0,0,0,1.4-4.86Z" transform="translate(0 -0.18)"/><path class="cls-3" d="M85.83,22h-.56a7,7,0,0,1-.61,2.67,10,10,0,0,1-5.38,5.18,12.29,12.29,0,0,1-4.88.89,17.69,17.69,0,0,1-3.89-.4,11,11,0,0,1-3.13-1.24,10.62,10.62,0,0,1-2.57-2.22h0A13.2,13.2,0,0,1,63,24.07a14.84,14.84,0,0,1-1.13-3.35,18.5,18.5,0,0,1-.38-3.81,16.75,16.75,0,0,1,.95-5.84A12.2,12.2,0,0,1,65.13,6.7a11.69,11.69,0,0,1,4.09-2.76,13.56,13.56,0,0,1,5-.95A12.62,12.62,0,0,1,80,4.29a10.41,10.41,0,0,1,3.86,3.16,6.1,6.1,0,0,1,1.3,3.44,1.84,1.84,0,0,1-.54,1.34,1.58,1.58,0,0,1-1.24.56,1.75,1.75,0,0,1-1.25-.36h0a6.77,6.77,0,0,1-1.1-1.63,9.18,9.18,0,0,0-2.77-3.3,6.86,6.86,0,0,0-4-1.12,7.24,7.24,0,0,0-6,2.86c-1.48,1.9-2.18,4.54-2.18,7.86a14.52,14.52,0,0,0,1,5.64,7.42,7.42,0,0,0,2.8,3.48,7.77,7.77,0,0,0,4.22,1.15,7.48,7.48,0,0,0,4.45-1.31h0a7.84,7.84,0,0,0,2.74-3.82h0a5.44,5.44,0,0,1,.81-1.64,1,1,0,0,1,.46-.34,2.19,2.19,0,0,1,.81-.14,1.87,1.87,0,0,1,1.34.55A1.79,1.79,0,0,1,85.27,22h1.11a2.9,2.9,0,0,0-.89-2.15A3,3,0,0,0,83.37,19a3.24,3.24,0,0,0-1.23.22,2.13,2.13,0,0,0-.93.69,6.84,6.84,0,0,0-1,2l.53.17-.52-.19a6.79,6.79,0,0,1-2.35,3.29h0a6.38,6.38,0,0,1-3.8,1.11,6.64,6.64,0,0,1-3.62-1,6.35,6.35,0,0,1-2.38-3,13.45,13.45,0,0,1-.87-5.2c0-3.17.68-5.55,2-7.18a6.11,6.11,0,0,1,5.12-2.43,5.77,5.77,0,0,1,3.36.93,7.93,7.93,0,0,1,2.43,2.91,7.62,7.62,0,0,0,1.32,1.91h0a2.8,2.8,0,0,0,2,.67A2.74,2.74,0,0,0,85.47,13a3,3,0,0,0,.84-2.09,7.11,7.11,0,0,0-1.52-4.08,11.61,11.61,0,0,0-4.25-3.52,13.73,13.73,0,0,0-6.29-1.41,14.43,14.43,0,0,0-5.45,1,12.9,12.9,0,0,0-4.48,3,13.54,13.54,0,0,0-2.93,4.75,18,18,0,0,0-1,6.23,19.42,19.42,0,0,0,.4,4A15.59,15.59,0,0,0,62,24.55a13.78,13.78,0,0,0,2,3.06h0a11.47,11.47,0,0,0,2.85,2.45,11.91,11.91,0,0,0,3.45,1.37,18.34,18.34,0,0,0,4.14.43,13.61,13.61,0,0,0,5.32-1,11.12,11.12,0,0,0,6-5.77,8,8,0,0,0,.7-3.11Z" transform="translate(0 -0.18)"/><path class="cls-3" d="M110,20.74h-.56a11.66,11.66,0,0,1-.69,4.09,8.64,8.64,0,0,1-5,5.21,11,11,0,0,1-4.08.71,10.7,10.7,0,0,1-4-.72,8.8,8.8,0,0,1-5-5.21,11.72,11.72,0,0,1-.68-4.08,11.77,11.77,0,0,1,.69-4.13,9,9,0,0,1,2-3.16,8.54,8.54,0,0,1,3.08-2,11.88,11.88,0,0,1,8.12,0,8.63,8.63,0,0,1,5.06,5.2,11.73,11.73,0,0,1,.68,4.09h1.12a12.92,12.92,0,0,0-.75-4.48,9.77,9.77,0,0,0-5.7-5.85,13,13,0,0,0-8.94,0,9.71,9.71,0,0,0-3.47,2.28,10,10,0,0,0-2.2,3.54,13,13,0,0,0-.76,4.52,12.86,12.86,0,0,0,.75,4.47,9.93,9.93,0,0,0,2.22,3.54,9.74,9.74,0,0,0,3.46,2.31,11.75,11.75,0,0,0,4.45.8,12.13,12.13,0,0,0,4.49-.79,9.65,9.65,0,0,0,3.47-2.29,10,10,0,0,0,2.22-3.56,12.85,12.85,0,0,0,.76-4.48Zm-5.22,0h.56a8.33,8.33,0,0,0-1.52-5.3,5.11,5.11,0,0,0-4.2-2,5.19,5.19,0,0,0-3,.89,5.56,5.56,0,0,0-2,2.58A10.08,10.08,0,0,0,94,20.74a10.1,10.1,0,0,0,.66,3.77,5.66,5.66,0,0,0,2,2.58,5.16,5.16,0,0,0,3,.91,5.1,5.1,0,0,0,4.2-2,8.31,8.31,0,0,0,1.52-5.27h-1.11a7.2,7.2,0,0,1-1.29,4.58,4,4,0,0,1-3.32,1.56,4,4,0,0,1-2.39-.7,4.65,4.65,0,0,1-1.58-2.09,8.89,8.89,0,0,1-.57-3.35,9.07,9.07,0,0,1,.58-3.39,4.47,4.47,0,0,1,1.59-2.08,4.09,4.09,0,0,1,2.37-.7A4,4,0,0,1,103,16.13a7.28,7.28,0,0,1,1.28,4.61Z" transform="translate(0 -0.18)"/><path class="cls-3" d="M127.6,28.37h.55V26.1l-1,1.26a10.81,10.81,0,0,1-1.87,1.89,6.66,6.66,0,0,1-2.07,1.1,8.57,8.57,0,0,1-2.61.36,6.63,6.63,0,0,1-3.13-.72,5.09,5.09,0,0,1-2.09-1.94h0a9,9,0,0,1-.89-4.47V13.27a2.8,2.8,0,0,1,.56-1.95,1.8,1.8,0,0,1,1.45-.59,1.9,1.9,0,0,1,1.5.6,2.78,2.78,0,0,1,.57,1.94V21.6a13.25,13.25,0,0,0,.33,3.17,4.17,4.17,0,0,0,1.26,2.2,3.67,3.67,0,0,0,2.51.84,4.9,4.9,0,0,0,2.79-.88,5.14,5.14,0,0,0,1.9-2.28h0a7.48,7.48,0,0,0,.37-1.92c.07-.83.11-1.87.11-3.12V13.27a2.78,2.78,0,0,1,.57-1.94,1.87,1.87,0,0,1,1.48-.6,1.82,1.82,0,0,1,1.46.59,2.85,2.85,0,0,1,.55,1.95V28.34a2.68,2.68,0,0,1-.53,1.85,1.84,1.84,0,0,1-2.67,0,2.58,2.58,0,0,1-.56-1.79H127a3.68,3.68,0,0,0,.84,2.54,3,3,0,0,0,4.33,0,3.76,3.76,0,0,0,.82-2.6V13.27a3.94,3.94,0,0,0-.85-2.71,3,3,0,0,0-2.28-1,3,3,0,0,0-2.29,1,3.81,3.81,0,0,0-.88,2.7V19.6c0,1.23,0,2.24-.1,3a6.55,6.55,0,0,1-.29,1.61l.51.2-.51-.21A4,4,0,0,1,124.85,26a3.83,3.83,0,0,1-2.17.68,2.57,2.57,0,0,1-1.77-.55A3.09,3.09,0,0,1,120,24.5a12.24,12.24,0,0,1-.29-2.9V13.27a3.85,3.85,0,0,0-.87-2.7,3.08,3.08,0,0,0-2.32-1,3,3,0,0,0-2.27,1,3.94,3.94,0,0,0-.85,2.71V23.58a10.06,10.06,0,0,0,1,5h0A6.14,6.14,0,0,0,117,31a7.69,7.69,0,0,0,3.64.85,9.73,9.73,0,0,0,3-.42A7.94,7.94,0,0,0,126,30.13a12.26,12.26,0,0,0,2-2.08l-.43-.34H127v.66Z" transform="translate(0 -0.18)"/><path class="cls-3" d="M142.37,13h-.55v2.29l1-1.32a8.42,8.42,0,0,1,2.81-2.5,7.41,7.41,0,0,1,3.48-.78,6.86,6.86,0,0,1,3.41.82,5.15,5.15,0,0,1,2.19,2.29h0a5.47,5.47,0,0,1,.6,1.87,20.2,20.2,0,0,1,.15,2.74v9.68a2.93,2.93,0,0,1-.57,2,2,2,0,0,1-2.91,0,2.89,2.89,0,0,1-.59-2V19.48a9.17,9.17,0,0,0-.77-4.19A2.81,2.81,0,0,0,149.3,14a4.51,4.51,0,0,0-2-.4,4.82,4.82,0,0,0-2.86.93,5.29,5.29,0,0,0-1.87,2.54h0a16.4,16.4,0,0,0-.41,4.51v6.52a2.89,2.89,0,0,1-.58,2,1.94,1.94,0,0,1-1.49.61,1.81,1.81,0,0,1-1.43-.63,2.84,2.84,0,0,1-.58-2v-15a2.73,2.73,0,0,1,.5-1.85,1.68,1.68,0,0,1,1.36-.54,1.84,1.84,0,0,1,1,.24,1.71,1.71,0,0,1,.67.75,2.75,2.75,0,0,1,.28,1.32h1.11a4,4,0,0,0-.39-1.83,3,3,0,0,0-1.1-1.2,3,3,0,0,0-1.52-.4,2.85,2.85,0,0,0-2.19.92,3.82,3.82,0,0,0-.79,2.59v15a4,4,0,0,0,.86,2.71,2.93,2.93,0,0,0,2.27,1,3,3,0,0,0,2.3-1,3.93,3.93,0,0,0,.88-2.75V21.63a15.85,15.85,0,0,1,.36-4.16l-.53-.18.52.19a4.2,4.2,0,0,1,1.48-2,3.71,3.71,0,0,1,2.21-.73,3.53,3.53,0,0,1,1.53.29,1.73,1.73,0,0,1,.82.78,8.21,8.21,0,0,1,.65,3.67v8.67a4,4,0,0,0,.86,2.71,3,3,0,0,0,2.31,1,2.92,2.92,0,0,0,2.27-1,4,4,0,0,0,.85-2.73V18.47a23,23,0,0,0-.15-2.89,6.76,6.76,0,0,0-.73-2.25l-.49.27.5-.25a6.22,6.22,0,0,0-2.65-2.77,8,8,0,0,0-3.95-1,8.53,8.53,0,0,0-4,.91,9.55,9.55,0,0,0-3.19,2.82l.44.33h.56V13Z" transform="translate(0 -0.18)"/><path class="cls-3" d="M161.49,10.63v.55h1.13V7.5c0-.82,0-1.47.06-1.92h0a2.41,2.41,0,0,1,.3-1h0a1.7,1.7,0,0,1,.67-.66h0a1.9,1.9,0,0,1,1-.26,2,2,0,0,1,1.41.6,1.55,1.55,0,0,1,.51.91h0a9.76,9.76,0,0,1,.14,1.91v4.1h2.46a1.93,1.93,0,0,1,1.31.38,1.2,1.2,0,0,1,.4.93,1.26,1.26,0,0,1-.14.62.85.85,0,0,1-.39.35,4.86,4.86,0,0,1-2.12.36h-1.52V23.94a14.35,14.35,0,0,0,.09,1.94h0a2.41,2.41,0,0,0,.59,1.36,2.1,2.1,0,0,0,1.62.6,7.28,7.28,0,0,0,1.36-.18h0a6.54,6.54,0,0,1,1.11-.15,1,1,0,0,1,.74.34,1.12,1.12,0,0,1,.34.86,1.25,1.25,0,0,1-.24.78,2,2,0,0,1-.82.64,8.73,8.73,0,0,1-3.69.61,6.27,6.27,0,0,1-3.39-.73A3.2,3.2,0,0,1,163,28.08a15,15,0,0,1-.37-3.72V13.82h-1.24a1.92,1.92,0,0,1-1.34-.39,1.18,1.18,0,0,1-.41-.94,1.13,1.13,0,0,1,.42-.91,2.15,2.15,0,0,1,1.44-.4V10.07a3.31,3.31,0,0,0-2.16.65,2.28,2.28,0,0,0-.81,1.77,2.32,2.32,0,0,0,.77,1.77,3,3,0,0,0,2.09.67h.13v9.43a15.84,15.84,0,0,0,.41,4A4.3,4.3,0,0,0,163.8,31a7.25,7.25,0,0,0,4,.91,9.75,9.75,0,0,0,4.18-.72,3.15,3.15,0,0,0,1.24-1,2.41,2.41,0,0,0,.45-1.43,2.27,2.27,0,0,0-.67-1.64,2.12,2.12,0,0,0-1.53-.67,6.88,6.88,0,0,0-1.33.17h0a5.62,5.62,0,0,1-1.13.15c-.47,0-.7-.11-.79-.22a1.41,1.41,0,0,1-.32-.77h0a15.56,15.56,0,0,1-.08-1.8v-9h.41a5.9,5.9,0,0,0,2.63-.47,2,2,0,0,0,.85-.8,2.33,2.33,0,0,0,.28-1.17,2.25,2.25,0,0,0-.77-1.75,3,3,0,0,0-2.05-.67h-1.35v-3A12.07,12.07,0,0,0,167.67,5h0a2.76,2.76,0,0,0-.85-1.51,3.07,3.07,0,0,0-2.17-.89A3,3,0,0,0,163.1,3h0A2.78,2.78,0,0,0,162,4l.48.27L162,4a3.51,3.51,0,0,0-.44,1.46h0c-.05.51-.07,1.18-.07,2v2.57h0Z" transform="translate(0 -0.18)"/><path class="cls-4" d="M8.26,43a2.43,2.43,0,0,1-.21.94,3.15,3.15,0,0,1-.67,1,3.35,3.35,0,0,1-1.17.79,4.24,4.24,0,0,1-1.66.3,5.84,5.84,0,0,1-1.3-.13,3.75,3.75,0,0,1-1.07-.43,3.62,3.62,0,0,1-.88-.75,4.74,4.74,0,0,1-.61-1,4.7,4.7,0,0,1-.38-1.13,5.76,5.76,0,0,1-.13-1.27,5.67,5.67,0,0,1,.32-2,4.33,4.33,0,0,1,.91-1.49A4,4,0,0,1,2.8,37a4.43,4.43,0,0,1,1.7-.32,4.2,4.2,0,0,1,2,.44,3.48,3.48,0,0,1,1.31,1.08,2.12,2.12,0,0,1,.46,1.22A.79.79,0,0,1,8,40a.71.71,0,0,1-.54.24A.75.75,0,0,1,7,40.06a2.12,2.12,0,0,1-.39-.57,2.71,2.71,0,0,0-.85-1,2.06,2.06,0,0,0-1.19-.33A2.16,2.16,0,0,0,2.71,39,3.92,3.92,0,0,0,2,41.45a4.52,4.52,0,0,0,.3,1.76,2.24,2.24,0,0,0,.84,1,2.32,2.32,0,0,0,1.27.34,2.24,2.24,0,0,0,1.34-.39,2.39,2.39,0,0,0,.83-1.15,1.91,1.91,0,0,1,.29-.59.66.66,0,0,1,.56-.22.75.75,0,0,1,.56.23A.73.73,0,0,1,8.26,43Z" transform="translate(0 -0.18)"/><path class="cls-4" d="M8.26,43H8.08a2.17,2.17,0,0,1-.2.87,3.23,3.23,0,0,1-.63.94h0a3.22,3.22,0,0,1-1.11.74,4,4,0,0,1-1.59.29,5.48,5.48,0,0,1-1.26-.13,3.5,3.5,0,0,1-1-.4,3.32,3.32,0,0,1-.84-.72h0a4.13,4.13,0,0,1-.59-.92,4.81,4.81,0,0,1-.36-1.09,5.4,5.4,0,0,1-.13-1.23,5.52,5.52,0,0,1,.31-1.9,3.86,3.86,0,0,1,.87-1.42,3.75,3.75,0,0,1,1.33-.89,4.22,4.22,0,0,1,1.63-.31,4,4,0,0,1,1.88.42,3.18,3.18,0,0,1,1.25,1,1.91,1.91,0,0,1,.43,1.11.6.6,0,0,1-.18.44h0a.53.53,0,0,1-.4.18.59.59,0,0,1-.41-.12,2,2,0,0,1-.35-.53h0a2.93,2.93,0,0,0-.9-1.07A2.23,2.23,0,0,0,4.52,38a2.39,2.39,0,0,0-1.95.93,4.1,4.1,0,0,0-.71,2.56,4.73,4.73,0,0,0,.31,1.83,2.46,2.46,0,0,0,.91,1.13,2.54,2.54,0,0,0,1.37.37,2.41,2.41,0,0,0,1.45-.42h0a2.62,2.62,0,0,0,.89-1.24h0a2,2,0,0,1,.26-.53h0a.5.5,0,0,1,.42-.15.55.55,0,0,1,.43.18.53.53,0,0,1,.18.43h.37a.94.94,0,0,0-.29-.69.91.91,0,0,0-.69-.28.82.82,0,0,0-.7.29h0a2.13,2.13,0,0,0-.32.64l.17.06L6.45,43a2.15,2.15,0,0,1-.76,1.07h0a2,2,0,0,1-1.24.36,2.14,2.14,0,0,1-1.17-.32,1.93,1.93,0,0,1-.77-1,4.28,4.28,0,0,1-.29-1.69,3.68,3.68,0,0,1,.64-2.33,2,2,0,0,1,1.66-.79,1.87,1.87,0,0,1,1.09.3,2.61,2.61,0,0,1,.79.94h0a2.2,2.2,0,0,0,.43.62.89.89,0,0,0,.65.22.87.87,0,0,0,.67-.3h0a1,1,0,0,0,.27-.68,2.3,2.3,0,0,0-.49-1.32A3.78,3.78,0,0,0,6.55,37a4.54,4.54,0,0,0-2-.45,4.71,4.71,0,0,0-1.76.33,4,4,0,0,0-1.46,1,4.49,4.49,0,0,0-.95,1.54,5.88,5.88,0,0,0-.33,2A6.19,6.19,0,0,0,.13,42.7a5.21,5.21,0,0,0,.4,1.17,4.39,4.39,0,0,0,.63,1h0a3.67,3.67,0,0,0,.93.8,3.79,3.79,0,0,0,1.12.44,5.63,5.63,0,0,0,1.34.14,4.45,4.45,0,0,0,1.73-.31,3.44,3.44,0,0,0,1.23-.84h0a3.38,3.38,0,0,0,.71-1,2.58,2.58,0,0,0,.23-1Z" transform="translate(0 -0.18)"/><path class="cls-4" d="M15.29,36.69a4.84,4.84,0,0,1,2.42.57,3.71,3.71,0,0,1,1.53,1.63,5.45,5.45,0,0,1,.52,2.47,6,6,0,0,1-.28,1.91,4.08,4.08,0,0,1-.86,1.49,3.67,3.67,0,0,1-1.4,1,5.06,5.06,0,0,1-1.89.33,5,5,0,0,1-1.91-.34,3.71,3.71,0,0,1-1.4-1,4.1,4.1,0,0,1-.85-1.5,6.33,6.33,0,0,1,0-3.82A4.11,4.11,0,0,1,12.05,38,3.81,3.81,0,0,1,13.43,37,5,5,0,0,1,15.29,36.69Zm2.61,4.66a4.38,4.38,0,0,0-.32-1.73,2.45,2.45,0,0,0-.92-1.1,2.54,2.54,0,0,0-1.37-.37,2.44,2.44,0,0,0-1,.2,2.17,2.17,0,0,0-.8.61,2.76,2.76,0,0,0-.53,1,4.55,4.55,0,0,0-.2,1.38,4.69,4.69,0,0,0,.2,1.4,2.81,2.81,0,0,0,.55,1,2.2,2.2,0,0,0,.81.62,2.44,2.44,0,0,0,3.25-1.24A4.23,4.23,0,0,0,17.9,41.35Z" transform="translate(0 -0.18)"/><path class="cls-4" d="M15.29,36.69v.18a4.59,4.59,0,0,1,2.33.55A3.43,3.43,0,0,1,19.08,39a5.37,5.37,0,0,1,.5,2.39,5.72,5.72,0,0,1-.28,1.86,3.9,3.9,0,0,1-.81,1.42,3.49,3.49,0,0,1-1.33.92,4.94,4.94,0,0,1-1.83.32,4.83,4.83,0,0,1-1.84-.33h0a3.56,3.56,0,0,1-1.34-.92,3.83,3.83,0,0,1-.81-1.44,6.15,6.15,0,0,1,0-3.7,3.92,3.92,0,0,1,.83-1.42,3.58,3.58,0,0,1,1.32-.89,4.73,4.73,0,0,1,1.79-.31v-.36a5.3,5.3,0,0,0-1.92.33,3.9,3.9,0,0,0-1.45,1A4.09,4.09,0,0,0,11,39.37a6,6,0,0,0-.31,2,6.54,6.54,0,0,0,.29,2,4.36,4.36,0,0,0,.89,1.56,4,4,0,0,0,1.47,1h0a5.21,5.21,0,0,0,2,.35,5.27,5.27,0,0,0,2-.34,3.93,3.93,0,0,0,1.47-1,4.31,4.31,0,0,0,.89-1.55,6.42,6.42,0,0,0,.29-2,5.7,5.7,0,0,0-.54-2.55,3.89,3.89,0,0,0-1.6-1.71,5,5,0,0,0-2.51-.59Zm2.61,4.66h.18a4.41,4.41,0,0,0-.34-1.8,2.55,2.55,0,0,0-1-1.18A2.73,2.73,0,0,0,15.29,38a2.63,2.63,0,0,0-1.09.23,2.43,2.43,0,0,0-.87.65,3.2,3.2,0,0,0-.57,1.07,5,5,0,0,0-.2,1.44,5.08,5.08,0,0,0,.2,1.45,3,3,0,0,0,.59,1.1h0a2.43,2.43,0,0,0,.88.66h0a2.58,2.58,0,0,0,1.08.22,2.68,2.68,0,0,0,1.39-.37h0a2.59,2.59,0,0,0,1-1.17,4.33,4.33,0,0,0,.37-1.89h-.36a4.1,4.1,0,0,1-.33,1.73,2.34,2.34,0,0,1-.87,1h0a2.4,2.4,0,0,1-1.21.32,2.18,2.18,0,0,1-.93-.19h0a2,2,0,0,1-.76-.57h0a2.55,2.55,0,0,1-.51-1,4.25,4.25,0,0,1-.19-1.34A4.19,4.19,0,0,1,13.11,40a2.67,2.67,0,0,1,.5-1,2.07,2.07,0,0,1,.73-.55,2.27,2.27,0,0,1,.95-.19,2.32,2.32,0,0,1,1.27.34,2.19,2.19,0,0,1,.85,1,4.12,4.12,0,0,1,.31,1.65Z" transform="translate(0 -0.18)"/><path class="cls-4" d="M22.73,42.16V37.8A1.22,1.22,0,0,1,23,37a.87.87,0,0,1,.66-.27.9.9,0,0,1,.68.27,1.28,1.28,0,0,1,.25.84v4.46a3.86,3.86,0,0,0,.17,1.27,1.45,1.45,0,0,0,.6.79,2.19,2.19,0,0,0,1.21.28A1.8,1.8,0,0,0,28.07,44a2.77,2.77,0,0,0,.45-1.73V37.8a1.21,1.21,0,0,1,.25-.84.84.84,0,0,1,.66-.27.89.89,0,0,1,.67.27,1.21,1.21,0,0,1,.25.84v4.36a6.47,6.47,0,0,1-.2,1.78,2.73,2.73,0,0,1-.78,1.24,3,3,0,0,1-1.15.67,5.08,5.08,0,0,1-1.54.21,6.33,6.33,0,0,1-1.8-.22,3,3,0,0,1-1.23-.7,2.84,2.84,0,0,1-.7-1.21A6.2,6.2,0,0,1,22.73,42.16Z" transform="translate(0 -0.18)"/><path class="cls-4" d="M22.73,42.16h.18V37.8a1,1,0,0,1,.2-.71.76.76,0,0,1,1.07,0,1,1,0,0,1,.2.71v4.46a4.32,4.32,0,0,0,.18,1.33,1.71,1.71,0,0,0,.68.88h0a2.33,2.33,0,0,0,1.31.31,2,2,0,0,0,1.67-.64,3,3,0,0,0,.48-1.84V37.8a1.09,1.09,0,0,1,.2-.72.66.66,0,0,1,.53-.21.69.69,0,0,1,.54.22h0a1.09,1.09,0,0,1,.2.72v4.36a5.92,5.92,0,0,1-.2,1.72,2.55,2.55,0,0,1-.73,1.17h0a2.8,2.8,0,0,1-1.08.63,5,5,0,0,1-1.48.2,6,6,0,0,1-1.75-.22A2.63,2.63,0,0,1,23.78,45a2.66,2.66,0,0,1-.66-1.14,6.05,6.05,0,0,1-.21-1.71h-.36A6.2,6.2,0,0,0,22.78,44a3,3,0,0,0,.74,1.29,3.06,3.06,0,0,0,1.31.74,6.36,6.36,0,0,0,1.85.23A5.14,5.14,0,0,0,28.27,46a3.17,3.17,0,0,0,1.22-.7h0A3,3,0,0,0,30.32,44a6.45,6.45,0,0,0,.22-1.83V37.8a1.34,1.34,0,0,0-.31-1h0a1,1,0,0,0-.8-.33,1,1,0,0,0-.8.33,1.38,1.38,0,0,0-.29,1v4.5a2.63,2.63,0,0,1-.41,1.62,1.64,1.64,0,0,1-1.38.5,2,2,0,0,1-1.11-.25h0a1.25,1.25,0,0,1-.53-.7,3.73,3.73,0,0,1-.16-1.21V37.8a1.4,1.4,0,0,0-.3-1,1.15,1.15,0,0,0-1.61,0,1.45,1.45,0,0,0-.29,1v4.36Z" transform="translate(0 -0.18)"/><path class="cls-4" d="M36.12,37.79l3.54,5.34V37.74a1.18,1.18,0,0,1,.22-.79.75.75,0,0,1,.61-.26.79.79,0,0,1,.63.26,1.18,1.18,0,0,1,.22.79v7.13c0,.8-.33,1.19-1,1.19a1.23,1.23,0,0,1-.44-.07,1.17,1.17,0,0,1-.37-.22,2.3,2.3,0,0,1-.32-.37q-.15-.19-.3-.42L35.47,39.7V45a1.15,1.15,0,0,1-.24.79.86.86,0,0,1-1.24,0,1.14,1.14,0,0,1-.23-.78V38a2.16,2.16,0,0,1,.09-.7,1,1,0,0,1,.39-.46,1.15,1.15,0,0,1,.59-.17.94.94,0,0,1,.43.08.9.9,0,0,1,.3.21,2.38,2.38,0,0,1,.28.36C35.93,37.48,36,37.63,36.12,37.79Z" transform="translate(0 -0.18)"/><path class="cls-4" d="M36.12,37.79l-.15.1,3.87,5.84v-6a1,1,0,0,1,.18-.67.56.56,0,0,1,.47-.2.58.58,0,0,1,.49.2,1,1,0,0,1,.18.67v7.13a1.26,1.26,0,0,1-.2.78.74.74,0,0,1-.61.23,1.12,1.12,0,0,1-.38-.06h0a.93.93,0,0,1-.31-.19h0a1.94,1.94,0,0,1-.3-.33h0l-.29-.42-.15.1.15-.1-3.78-5.79V45a1,1,0,0,1-.19.67.61.61,0,0,1-.48.2.59.59,0,0,1-.49-.21.94.94,0,0,1-.19-.66V38a2,2,0,0,1,.08-.64l-.17-.06.17.07a1,1,0,0,1,.32-.38h0a.89.89,0,0,1,.49-.14.85.85,0,0,1,.35.06h0a.76.76,0,0,1,.25.18h0a2.41,2.41,0,0,1,.24.32l.29.45h0l.15-.1.16-.1L36,37.24a2.52,2.52,0,0,0-.3-.38h0a1,1,0,0,0-.36-.26h0a1.31,1.31,0,0,0-.5-.09,1.26,1.26,0,0,0-.68.2h0a1.15,1.15,0,0,0-.46.54h0a2.11,2.11,0,0,0-.12.77v7a1.35,1.35,0,0,0,.28.9,1,1,0,0,0,.77.33,1,1,0,0,0,.75-.32,1.33,1.33,0,0,0,.29-.91v-4.7l3.11,4.77h0l.3.43h0a2.21,2.21,0,0,0,.35.39h0a1.13,1.13,0,0,0,.43.26h0a1.35,1.35,0,0,0,.5.08,1.08,1.08,0,0,0,.89-.36,1.58,1.58,0,0,0,.29-1V37.74a1.36,1.36,0,0,0-.28-.91,1.05,1.05,0,0,0-1.51,0,1.35,1.35,0,0,0-.26.91v4.79l-3.2-4.84-.16.1.16-.1Z" transform="translate(0 -0.18)"/><path class="cls-4" d="M50.63,38.36h-2v6.58a1.23,1.23,0,0,1-.26.85.85.85,0,0,1-.65.27.86.86,0,0,1-.67-.28,1.19,1.19,0,0,1-.25-.84V38.36h-2a1,1,0,0,1-.7-.21.8.8,0,0,1,0-1.11,1.07,1.07,0,0,1,.69-.2h5.84a1,1,0,0,1,.71.21.73.73,0,0,1,.23.55.72.72,0,0,1-.23.55A1.06,1.06,0,0,1,50.63,38.36Z" transform="translate(0 -0.18)"/><path class="cls-4" d="M50.63,38.36v-.18H48.45v6.76a1,1,0,0,1-.21.72h0a.65.65,0,0,1-.52.22.67.67,0,0,1-.53-.22,1,1,0,0,1-.21-.72V38.18H44.79a.79.79,0,0,1-.57-.17.48.48,0,0,1-.17-.41.51.51,0,0,1,.17-.42.84.84,0,0,1,.57-.16h5.84a.86.86,0,0,1,.59.17.52.52,0,0,1,.17.41.51.51,0,0,1-.17.41.86.86,0,0,1-.59.17v.36a1.23,1.23,0,0,0,.83-.26.84.84,0,0,0,.29-.68.89.89,0,0,0-.29-.68,1.17,1.17,0,0,0-.83-.26H44.79a1.16,1.16,0,0,0-.8.25.86.86,0,0,0-.31.69.89.89,0,0,0,.29.68,1.19,1.19,0,0,0,.82.26h1.83v6.4a1.43,1.43,0,0,0,.3,1,1,1,0,0,0,.8.33,1,1,0,0,0,.79-.33h0a1.39,1.39,0,0,0,.3-1v-6.4h1.82Z" transform="translate(0 -0.18)"/><path class="cls-4" d="M54.12,44.94V37.8a1.22,1.22,0,0,1,.26-.84.83.83,0,0,1,.65-.27.87.87,0,0,1,.67.27,1.21,1.21,0,0,1,.26.84v7.14a1.19,1.19,0,0,1-.26.84.85.85,0,0,1-.67.28.83.83,0,0,1-.65-.28A1.22,1.22,0,0,1,54.12,44.94Z" transform="translate(0 -0.18)"/><path class="cls-4" d="M54.12,44.94h.18V37.8a1,1,0,0,1,.21-.71.65.65,0,0,1,.52-.22.7.7,0,0,1,.54.21,1,1,0,0,1,.21.72v7.14a1,1,0,0,1-.21.72.67.67,0,0,1-.54.22.66.66,0,0,1-.52-.22,1,1,0,0,1-.21-.72h-.36a1.38,1.38,0,0,0,.3,1,1,1,0,0,0,.79.34,1,1,0,0,0,.81-.33,1.43,1.43,0,0,0,.3-1V37.8a1.34,1.34,0,0,0-.31-1,1.12,1.12,0,0,0-1.59,0,1.4,1.4,0,0,0-.3,1v7.14Z" transform="translate(0 -0.18)"/><path class="cls-4" d="M61.8,37.79l3.53,5.34V37.74a1.18,1.18,0,0,1,.22-.79.75.75,0,0,1,.61-.26.77.77,0,0,1,.63.26,1.18,1.18,0,0,1,.23.79v7.13c0,.8-.33,1.19-1,1.19a1.25,1.25,0,0,1-.45-.07,1.29,1.29,0,0,1-.37-.22,2.94,2.94,0,0,1-.32-.37q-.15-.19-.3-.42L61.15,39.7V45a1.15,1.15,0,0,1-.24.79.84.84,0,0,1-.62.26.8.8,0,0,1-.63-.27,1.19,1.19,0,0,1-.23-.78V38a1.89,1.89,0,0,1,.1-.7.91.91,0,0,1,.39-.46,1.09,1.09,0,0,1,.58-.17,1,1,0,0,1,.74.29,1.87,1.87,0,0,1,.27.36Z" transform="translate(0 -0.18)"/><path class="cls-4" d="M61.8,37.79l-.15.1,3.86,5.84v-6a1,1,0,0,1,.18-.67.56.56,0,0,1,.47-.2.58.58,0,0,1,.49.2,1,1,0,0,1,.19.67v7.13a1.19,1.19,0,0,1-.21.78.73.73,0,0,1-.6.23,1.14,1.14,0,0,1-.39-.06h0a.93.93,0,0,1-.31-.19h0A1.9,1.9,0,0,1,65,45.3h0l-.3-.42-.15.1.15-.1L61,39.09V45a1,1,0,0,1-.2.67.68.68,0,0,1-1,0,.94.94,0,0,1-.19-.66V38a1.7,1.7,0,0,1,.09-.64l-.17-.06.16.07A1,1,0,0,1,60,37a.89.89,0,0,1,.49-.14.85.85,0,0,1,.35.06h0a.93.93,0,0,1,.26.18h0a3.63,3.63,0,0,1,.25.32c.09.15.18.3.28.45h0l.15-.1.15-.1-.29-.45a2.51,2.51,0,0,0-.29-.38h0A1.18,1.18,0,0,0,61,36.6h0a1.32,1.32,0,0,0-1.18.11,1.15,1.15,0,0,0-.46.54h0a2.13,2.13,0,0,0-.11.77v7a1.3,1.3,0,0,0,.28.9,1,1,0,0,0,.76.33,1,1,0,0,0,.75-.32,1.33,1.33,0,0,0,.29-.91v-4.7l3.11,4.77h0l.3.43h0a2.21,2.21,0,0,0,.35.39h0a1.21,1.21,0,0,0,.43.26h0a1.44,1.44,0,0,0,.51.08,1.07,1.07,0,0,0,.88-.36,1.58,1.58,0,0,0,.29-1V37.74a1.31,1.31,0,0,0-.28-.91.91.91,0,0,0-.76-.32.9.9,0,0,0-.74.32,1.35,1.35,0,0,0-.27.91v4.79L62,37.69l-.15.1.15-.1Z" transform="translate(0 -0.18)"/><path class="cls-4" d="M78.7,42.22V44a1.94,1.94,0,0,1-.07.55.93.93,0,0,1-.25.38,2.26,2.26,0,0,1-.47.32,7.34,7.34,0,0,1-1.58.65,6.24,6.24,0,0,1-1.66.2,5.23,5.23,0,0,1-1.9-.32,3.85,3.85,0,0,1-1.47-.93,4.28,4.28,0,0,1-.93-1.49,5.46,5.46,0,0,1-.33-2,5.66,5.66,0,0,1,.32-1.93A3.93,3.93,0,0,1,71.29,38,4.08,4.08,0,0,1,72.78,37a5.62,5.62,0,0,1,2-.32,5,5,0,0,1,1.62.24,3.42,3.42,0,0,1,1.14.62,2.66,2.66,0,0,1,.67.78,1.58,1.58,0,0,1,.22.74.79.79,0,0,1-.26.59.85.85,0,0,1-.61.24.82.82,0,0,1-.38-.09.86.86,0,0,1-.31-.26,9.42,9.42,0,0,0-.57-.8,1.73,1.73,0,0,0-.64-.46,2.29,2.29,0,0,0-1-.19,2.88,2.88,0,0,0-1.13.22,2.37,2.37,0,0,0-.86.64,2.76,2.76,0,0,0-.54,1,4.41,4.41,0,0,0-.19,1.35,3.66,3.66,0,0,0,.73,2.45,2.55,2.55,0,0,0,2,.86,4.19,4.19,0,0,0,1.2-.17A6.31,6.31,0,0,0,77,44V42.53H75.59a1.55,1.55,0,0,1-.77-.16.56.56,0,0,1-.27-.53.68.68,0,0,1,.22-.5.88.88,0,0,1,.6-.19h2.08a2.93,2.93,0,0,1,.65.06.74.74,0,0,1,.43.31A1.2,1.2,0,0,1,78.7,42.22Z" transform="translate(0 -0.18)"/><path class="cls-4" d="M78.7,42.22h-.18V44a1.93,1.93,0,0,1-.06.5.76.76,0,0,1-.2.29,2.28,2.28,0,0,1-.43.3,7.22,7.22,0,0,1-1.55.63,5.82,5.82,0,0,1-1.61.2,5.11,5.11,0,0,1-1.84-.31,3.69,3.69,0,0,1-1.4-.89,3.9,3.9,0,0,1-.89-1.42,5.35,5.35,0,0,1-.31-1.89,5.56,5.56,0,0,1,.3-1.87,3.69,3.69,0,0,1,.89-1.42,3.84,3.84,0,0,1,1.42-.9,5.5,5.5,0,0,1,1.93-.31,4.93,4.93,0,0,1,1.56.23,3.57,3.57,0,0,1,1.09.58,2.6,2.6,0,0,1,.62.74,1.43,1.43,0,0,1,.2.65.61.61,0,0,1-.2.46.67.67,0,0,1-.49.19.63.63,0,0,1-.3-.07h0a.61.61,0,0,1-.24-.21l-.15.11.15-.1a6.62,6.62,0,0,0-.59-.82,2,2,0,0,0-.69-.51,2.77,2.77,0,0,0-1.1-.2,3,3,0,0,0-1.21.24,2.46,2.46,0,0,0-.92.68,3.16,3.16,0,0,0-.58,1.09,4.74,4.74,0,0,0-.19,1.4,3.85,3.85,0,0,0,.77,2.57,2.75,2.75,0,0,0,2.18.92,4.6,4.6,0,0,0,1.25-.17,6.47,6.47,0,0,0,1.17-.49l.1,0V42.34H75.59a1.27,1.27,0,0,1-.68-.13h0c-.12-.07-.17-.16-.18-.37a.48.48,0,0,1,.16-.36.67.67,0,0,1,.48-.15h2.08a2.56,2.56,0,0,1,.61.06.59.59,0,0,1,.33.23,1.16,1.16,0,0,1,.13.6h.36a1.43,1.43,0,0,0-.2-.81.91.91,0,0,0-.53-.37,2.87,2.87,0,0,0-.7-.08H75.37a1.05,1.05,0,0,0-.72.25.84.84,0,0,0-.28.63.78.78,0,0,0,.35.69h0a1.84,1.84,0,0,0,.87.18h1.24V44H77l-.08-.16a6,6,0,0,1-1.1.46,3.9,3.9,0,0,1-1.15.16,2.34,2.34,0,0,1-1.9-.8,3.5,3.5,0,0,1-.69-2.33A4.28,4.28,0,0,1,72.27,40a2.58,2.58,0,0,1,.51-1,2.08,2.08,0,0,1,.79-.59,2.54,2.54,0,0,1,1.06-.21,2.19,2.19,0,0,1,.94.17,1.92,1.92,0,0,1,.58.41,7.88,7.88,0,0,1,.56.79h0a.93.93,0,0,0,.37.31h0a1,1,0,0,0,.47.11,1.06,1.06,0,0,0,.74-.29,1,1,0,0,0,.31-.72,1.81,1.81,0,0,0-.24-.82,3.06,3.06,0,0,0-.71-.84,3.59,3.59,0,0,0-1.2-.65,5.12,5.12,0,0,0-1.68-.25,6,6,0,0,0-2,.33,4.32,4.32,0,0,0-1.56,1,4.16,4.16,0,0,0-1,1.56,5.81,5.81,0,0,0-.33,2,5.67,5.67,0,0,0,.34,2,4.21,4.21,0,0,0,1,1.54,4.15,4.15,0,0,0,1.53,1,5.7,5.7,0,0,0,2,.33A6.68,6.68,0,0,0,76.38,46,7.68,7.68,0,0,0,78,45.37a2.2,2.2,0,0,0,.5-.35,1,1,0,0,0,.3-.45,1.84,1.84,0,0,0,.08-.61V42.22Z" transform="translate(0 -0.18)"/><path class="cls-4" d="M94.11,43a2.43,2.43,0,0,1-.21.94,3.53,3.53,0,0,1-1.84,1.78,4.28,4.28,0,0,1-1.66.3,5.94,5.94,0,0,1-1.31-.13A3.69,3.69,0,0,1,88,45.5a3.44,3.44,0,0,1-.88-.75,4.78,4.78,0,0,1-.62-1,5.18,5.18,0,0,1-.38-1.13A6.44,6.44,0,0,1,86,41.39a5.68,5.68,0,0,1,.31-2,4.35,4.35,0,0,1,.92-1.49A3.87,3.87,0,0,1,88.65,37a4.4,4.4,0,0,1,1.7-.32,4.16,4.16,0,0,1,2,.44,3.59,3.59,0,0,1,1.32,1.08,2.17,2.17,0,0,1,.45,1.22.79.79,0,0,1-.22.56.71.71,0,0,1-.54.24.72.72,0,0,1-.52-.17,2.35,2.35,0,0,1-.4-.57,2.78,2.78,0,0,0-.84-1,2.09,2.09,0,0,0-1.2-.33,2.15,2.15,0,0,0-1.8.86,3.85,3.85,0,0,0-.67,2.44,4.73,4.73,0,0,0,.29,1.76,2.2,2.2,0,0,0,.85,1,2.3,2.3,0,0,0,1.27.34,2.26,2.26,0,0,0,1.34-.39,2.37,2.37,0,0,0,.82-1.15,1.92,1.92,0,0,1,.3-.59.64.64,0,0,1,.55-.22.73.73,0,0,1,.56.23A.74.74,0,0,1,94.11,43Z" transform="translate(0 -0.18)"/><path class="cls-4" d="M94.11,43h-.18a2.35,2.35,0,0,1-.2.87,3.08,3.08,0,0,1-.64.94,3.18,3.18,0,0,1-1.1.74,4.07,4.07,0,0,1-1.59.29,5.51,5.51,0,0,1-1.27-.13,3.61,3.61,0,0,1-1-.4,3.5,3.5,0,0,1-.84-.72h0a4.1,4.1,0,0,1-.58-.92,4.38,4.38,0,0,1-.37-1.09,6,6,0,0,1-.12-1.23,5.53,5.53,0,0,1,.3-1.9,4,4,0,0,1,.88-1.42,3.75,3.75,0,0,1,1.33-.89,4.22,4.22,0,0,1,1.63-.31,4.07,4.07,0,0,1,1.88.42,3.33,3.33,0,0,1,1.25,1,2,2,0,0,1,.42,1.11.63.63,0,0,1-.17.44.54.54,0,0,1-.41.18.56.56,0,0,1-.4-.12,2,2,0,0,1-.36-.53,2.93,2.93,0,0,0-.9-1.07,2.23,2.23,0,0,0-1.3-.37,2.36,2.36,0,0,0-1.94.93,4,4,0,0,0-.71,2.56A4.73,4.73,0,0,0,88,43.28a2.4,2.4,0,0,0,.91,1.13,2.49,2.49,0,0,0,1.37.37,2.36,2.36,0,0,0,1.44-.42,2.56,2.56,0,0,0,.89-1.24h0a1.74,1.74,0,0,1,.26-.53.48.48,0,0,1,.41-.15.61.61,0,0,1,.62.61h.36a.94.94,0,0,0-.29-.69.91.91,0,0,0-.69-.28.83.83,0,0,0-.7.29,2.39,2.39,0,0,0-.32.64l.17.06L92.29,43a2.09,2.09,0,0,1-.76,1.07,2,2,0,0,1-1.23.36,2.15,2.15,0,0,1-1.18-.32,2,2,0,0,1-.77-1,4.48,4.48,0,0,1-.28-1.69,3.74,3.74,0,0,1,.63-2.33,2,2,0,0,1,1.66-.79,1.88,1.88,0,0,1,1.1.3,2.59,2.59,0,0,1,.78.94,2.43,2.43,0,0,0,.43.62A1,1,0,0,0,94,40.11a1,1,0,0,0,.27-.68,2.32,2.32,0,0,0-.5-1.32A3.7,3.7,0,0,0,92.39,37a4.5,4.5,0,0,0-2-.45,4.76,4.76,0,0,0-1.77.33,4.09,4.09,0,0,0-1.45,1,4.36,4.36,0,0,0-1,1.54,5.88,5.88,0,0,0-.33,2A6.19,6.19,0,0,0,86,42.7a4.74,4.74,0,0,0,.39,1.17,4.42,4.42,0,0,0,.64,1h0a3.57,3.57,0,0,0,2,1.24,5.71,5.71,0,0,0,1.35.14,4.45,4.45,0,0,0,1.73-.31,3.63,3.63,0,0,0,1.23-.84,3.53,3.53,0,0,0,.7-1,2.58,2.58,0,0,0,.23-1Z" transform="translate(0 -0.18)"/><path class="cls-4" d="M99,37.8v2.6h4V37.8a1.22,1.22,0,0,1,.25-.84.87.87,0,0,1,.66-.27.89.89,0,0,1,.67.27,1.21,1.21,0,0,1,.26.84v7.14a1.19,1.19,0,0,1-.26.84.88.88,0,0,1-.67.28.81.81,0,0,1-.66-.28,1.22,1.22,0,0,1-.25-.84v-3H99v3a1.14,1.14,0,0,1-.26.84.93.93,0,0,1-1.33,0,1.28,1.28,0,0,1-.24-.84V37.8A1.28,1.28,0,0,1,97.4,37a.86.86,0,0,1,.67-.27.89.89,0,0,1,.67.27A1.21,1.21,0,0,1,99,37.8Z" transform="translate(0 -0.18)"/><path class="cls-4" d="M99,37.8h-.18v2.78h4.33V37.8a1,1,0,0,1,.2-.71.67.67,0,0,1,.53-.22.72.72,0,0,1,.54.21,1.09,1.09,0,0,1,.2.72v7.14a1,1,0,0,1-.21.72.67.67,0,0,1-.53.22.64.64,0,0,1-.53-.22,1.09,1.09,0,0,1-.2-.72V41.71H98.81v3.23a1,1,0,0,1-.21.72.67.67,0,0,1-.53.22.64.64,0,0,1-.53-.22,1.09,1.09,0,0,1-.2-.72V37.8a1,1,0,0,1,.2-.72.65.65,0,0,1,.53-.21.68.68,0,0,1,.53.21,1,1,0,0,1,.21.72h.36a1.38,1.38,0,0,0-.3-1,1,1,0,0,0-.8-.33,1,1,0,0,0-.81.34,1.4,1.4,0,0,0-.28.95v7.14a1.38,1.38,0,0,0,.29,1,1,1,0,0,0,.8.34,1,1,0,0,0,.8-.33,1.41,1.41,0,0,0,.3-1V42.08h3.61v2.86a1.38,1.38,0,0,0,.29,1,1,1,0,0,0,.8.34,1,1,0,0,0,.8-.33,1.41,1.41,0,0,0,.31-1V37.8a1.34,1.34,0,0,0-.31-1,1,1,0,0,0-.8-.33,1,1,0,0,0-.8.33,1.45,1.45,0,0,0-.29,1v2.42H99.17V37.8Z" transform="translate(0 -0.18)"/><path class="cls-4" d="M114,44.88l-.43-1.14h-3.69l-.43,1.17a3.81,3.81,0,0,1-.44.91.67.67,0,0,1-.58.24.88.88,0,0,1-.62-.25.8.8,0,0,1-.26-.58,1.31,1.31,0,0,1,.06-.38c0-.13.11-.31.2-.55l2.32-5.89c.07-.17.15-.37.24-.61a3,3,0,0,1,.3-.59,1.39,1.39,0,0,1,1.69-.38,1.15,1.15,0,0,1,.41.38,2.12,2.12,0,0,1,.27.49c.07.17.16.41.27.7l2.37,5.85a2.88,2.88,0,0,1,.28,1,.82.82,0,0,1-.26.58.86.86,0,0,1-.64.26.84.84,0,0,1-.37-.07,1.09,1.09,0,0,1-.26-.21,2.11,2.11,0,0,1-.22-.41Zm-3.64-2.52H113l-1.37-3.74Z" transform="translate(0 -0.18)"/><path class="cls-4" d="M114,44.88l.17-.06-.48-1.26h-3.94l-.47,1.28a4.13,4.13,0,0,1-.41.88.5.5,0,0,1-.44.16.67.67,0,0,1-.49-.2.59.59,0,0,1-.21-.45,1.39,1.39,0,0,1,0-.33c0-.12.11-.3.2-.53h0l2.32-5.89c.07-.17.15-.37.24-.61a2.64,2.64,0,0,1,.28-.56,1,1,0,0,1,.35-.32,1.32,1.32,0,0,1,1.1,0,1,1,0,0,1,.35.32,2.25,2.25,0,0,1,.25.46l.27.69h0l2.37,5.85h0a2.73,2.73,0,0,1,.27.9.61.61,0,0,1-.21.45.66.66,0,0,1-.51.21.6.6,0,0,1-.29-.06l-.2-.16a1.84,1.84,0,0,1-.2-.37c-.08-.18-.15-.34-.2-.48l-.17.07.17-.06-.17.06-.17.07.21.49a1.85,1.85,0,0,0,.25.45,1.14,1.14,0,0,0,.32.26,1.1,1.1,0,0,0,.45.09,1,1,0,0,0,.76-.31,1,1,0,0,0,.32-.71,3,3,0,0,0-.29-1l-.17.07.17-.07-2.37-5.85-.17.07.17-.06c-.11-.3-.2-.53-.28-.71a2.69,2.69,0,0,0-.28-.53,1.49,1.49,0,0,0-.47-.43,1.57,1.57,0,0,0-.73-.16,1.54,1.54,0,0,0-.73.16,1.41,1.41,0,0,0-.47.44,3.08,3.08,0,0,0-.32.63l-.24.61-2.31,5.88h0a5.55,5.55,0,0,0-.21.57,1.29,1.29,0,0,0-.07.43.94.94,0,0,0,.32.71,1,1,0,0,0,.74.3.84.84,0,0,0,.73-.31,4.54,4.54,0,0,0,.46-1l.39-1h3.43l.39,1h0Zm-3.64-2.52v.19h3l-1.63-4.46-1.6,4.46h.26v-.19l.17.07,1.18-3.28,1.1,3h-2.45v.18l.17.07Z" transform="translate(0 -0.18)"/><path class="cls-4" d="M121.12,42h-.65v2.91a1.2,1.2,0,0,1-.25.85.87.87,0,0,1-.66.27.84.84,0,0,1-.68-.28,1.28,1.28,0,0,1-.24-.84V38a1.19,1.19,0,0,1,.26-.86,1.18,1.18,0,0,1,.86-.27h3c.41,0,.76,0,1.06,0a2.79,2.79,0,0,1,.79.22,2.27,2.27,0,0,1,.75.51,2.13,2.13,0,0,1,.5.78,2.4,2.4,0,0,1,.17.93,2.26,2.26,0,0,1-.57,1.62,3.25,3.25,0,0,1-1.73.86,3.59,3.59,0,0,1,.93.77,7.46,7.46,0,0,1,.79,1.08,7.62,7.62,0,0,1,.55,1,2,2,0,0,1,.19.64.68.68,0,0,1-.11.35.84.84,0,0,1-.31.28,1,1,0,0,1-.46.1.94.94,0,0,1-.52-.14,1.41,1.41,0,0,1-.36-.37c-.1-.15-.24-.37-.41-.66l-.74-1.22a6.6,6.6,0,0,0-.71-1,1.89,1.89,0,0,0-.63-.48A2.15,2.15,0,0,0,121.12,42Zm1-3.81h-1.7v2.49h1.65a5,5,0,0,0,1.11-.11,1.37,1.37,0,0,0,.69-.39,1.12,1.12,0,0,0,.24-.76,1.14,1.14,0,0,0-.19-.66,1.12,1.12,0,0,0-.53-.43A3.86,3.86,0,0,0,122.17,38.22Z" transform="translate(0 -0.18)"/><path class="cls-4" d="M121.12,42v-.18h-.83v3.09a1.08,1.08,0,0,1-.2.73.69.69,0,0,1-.53.21.62.62,0,0,1-.54-.22,1,1,0,0,1-.2-.72V38a1,1,0,0,1,.21-.74,1.06,1.06,0,0,1,.73-.21h3a10,10,0,0,1,1,0,2.6,2.6,0,0,1,.73.2h0a2.19,2.19,0,0,1,.7.48,2,2,0,0,1,.45.71,2.32,2.32,0,0,1,.16.87,2.1,2.1,0,0,1-.52,1.5,3.16,3.16,0,0,1-1.64.81l-.48.1.43.23a3.05,3.05,0,0,1,.88.73,7.93,7.93,0,0,1,.78,1,7.75,7.75,0,0,1,.53,1,1.73,1.73,0,0,1,.18.57.43.43,0,0,1-.08.25h0a.67.67,0,0,1-.25.22.81.81,0,0,1-.37.08.75.75,0,0,1-.42-.11h0a1.35,1.35,0,0,1-.31-.32c-.1-.15-.24-.36-.41-.65l-.73-1.22h0a7,7,0,0,0-.73-1.06A2,2,0,0,0,122,42a2.36,2.36,0,0,0-.88-.14v.36a1.87,1.87,0,0,1,.74.12,1.58,1.58,0,0,1,.57.43,7.28,7.28,0,0,1,.68,1l.74,1.23q.25.43.42.66a1.49,1.49,0,0,0,.41.42h0a1,1,0,0,0,.62.17,1.1,1.1,0,0,0,.54-.12.9.9,0,0,0,.38-.34h0a.82.82,0,0,0,.14-.45,1.89,1.89,0,0,0-.21-.71,7.69,7.69,0,0,0-.55-1,8.75,8.75,0,0,0-.81-1.11,3.68,3.68,0,0,0-1-.81l-.08.16,0,.18a3.41,3.41,0,0,0,1.83-.91,2.45,2.45,0,0,0,.62-1.75,2.81,2.81,0,0,0-.18-1,2.33,2.33,0,0,0-.54-.84,2.38,2.38,0,0,0-.81-.55l-.07.17.07-.17a3,3,0,0,0-.84-.23c-.3,0-.66-.05-1.08-.05h-3a1.31,1.31,0,0,0-1,.32,1.35,1.35,0,0,0-.32,1v7a1.44,1.44,0,0,0,.28,1,1,1,0,0,0,.82.34,1,1,0,0,0,.79-.33,1.35,1.35,0,0,0,.3-1V42.21h.47Zm1-3.81V38h-1.88v2.85h1.83a4.4,4.4,0,0,0,1.16-.12,1.54,1.54,0,0,0,.78-.44,1.35,1.35,0,0,0,.28-.88,1.33,1.33,0,0,0-.22-.76,1.36,1.36,0,0,0-.61-.5h0a3.9,3.9,0,0,0-1.34-.15v.36a3.9,3.9,0,0,1,1.2.12h0a1,1,0,0,1,.45.37,1,1,0,0,1,.16.56,1,1,0,0,1-.19.64,1.15,1.15,0,0,1-.6.33,4.51,4.51,0,0,1-1.07.11h-1.47V38.4h1.52Z" transform="translate(0 -0.18)"/><path class="cls-4" d="M134.94,44.88l-.43-1.14h-3.68l-.44,1.17a3.89,3.89,0,0,1-.43.91.69.69,0,0,1-.59.24.85.85,0,0,1-.61-.25.77.77,0,0,1-.27-.58,1.06,1.06,0,0,1,.07-.38c0-.13.1-.31.2-.55l2.32-5.89c.06-.17.14-.37.24-.61a3.61,3.61,0,0,1,.29-.59,1.4,1.4,0,0,1,.42-.38,1.22,1.22,0,0,1,.63-.14,1.24,1.24,0,0,1,.64.14,1.28,1.28,0,0,1,.42.38,2.54,2.54,0,0,1,.26.49c.08.17.17.41.28.7l2.37,5.85a3.15,3.15,0,0,1,.28,1,.79.79,0,0,1-.27.58.93.93,0,0,1-1,.19.92.92,0,0,1-.26-.21,2.06,2.06,0,0,1-.23-.41Zm-3.63-2.52H134l-1.37-3.74Z" transform="translate(0 -0.18)"/><path class="cls-4" d="M134.94,44.88l.17-.06-.47-1.26H130.7l-.48,1.28a4.27,4.27,0,0,1-.4.88.53.53,0,0,1-.45.16.69.69,0,0,1-.49-.2.67.67,0,0,1-.21-.45,1.45,1.45,0,0,1,.06-.33c0-.12.1-.3.2-.53h0l2.32-5.89c.06-.17.14-.37.24-.61a2.66,2.66,0,0,1,.27-.56,1,1,0,0,1,.36-.32,1,1,0,0,1,.54-.12,1,1,0,0,1,.55.12,1,1,0,0,1,.36.32,2.25,2.25,0,0,1,.25.46l.27.69h0l2.37,5.85h0a2.63,2.63,0,0,1,.26.9.61.61,0,0,1-.21.45.64.64,0,0,1-.5.21.57.57,0,0,1-.29-.06l-.2-.16a1.44,1.44,0,0,1-.2-.37l-.21-.48-.17.07.17-.06-.17.06-.16.07.21.49a1.85,1.85,0,0,0,.25.45.92.92,0,0,0,.32.26,1.06,1.06,0,0,0,.45.09,1,1,0,0,0,.76-.31,1,1,0,0,0,.32-.71,3.32,3.32,0,0,0-.3-1l-.16.07.17-.07-2.37-5.85-.17.07.17-.06c-.11-.3-.21-.53-.28-.71a3.35,3.35,0,0,0-.28-.53,1.53,1.53,0,0,0-.48-.43,1.72,1.72,0,0,0-1.45,0,1.45,1.45,0,0,0-.48.44,3.7,3.7,0,0,0-.31.63l-.24.61-2.32,5.88h0l-.21.57a1.61,1.61,0,0,0-.07.43,1,1,0,0,0,.32.71,1,1,0,0,0,.74.3.82.82,0,0,0,.73-.31,3.73,3.73,0,0,0,.46-1l.39-1h3.44l.39,1h0Zm-3.63-2.52v.19h3l-1.63-4.46-1.6,4.46h.26v-.19l.17.07,1.17-3.28,1.11,3h-2.45v.18l.17.07Z" transform="translate(0 -0.18)"/><path class="cls-4" d="M147.36,43a2.43,2.43,0,0,1-.21.94,3.43,3.43,0,0,1-1.84,1.78,4.28,4.28,0,0,1-1.66.3,5.94,5.94,0,0,1-1.31-.13,3.69,3.69,0,0,1-1.06-.43,3.44,3.44,0,0,1-.88-.75,4.78,4.78,0,0,1-.62-1,5.18,5.18,0,0,1-.38-1.13,6.44,6.44,0,0,1-.12-1.27,5.45,5.45,0,0,1,.32-2,4.18,4.18,0,0,1,.91-1.49A3.87,3.87,0,0,1,141.9,37a4.4,4.4,0,0,1,1.7-.32,4.16,4.16,0,0,1,2,.44,3.59,3.59,0,0,1,1.32,1.08,2.19,2.19,0,0,1,.46,1.22.8.8,0,0,1-.23.56.69.69,0,0,1-.53.24.73.73,0,0,1-.53-.17,2.35,2.35,0,0,1-.4-.57,2.78,2.78,0,0,0-.84-1,2.07,2.07,0,0,0-1.2-.33,2.15,2.15,0,0,0-1.8.86,3.85,3.85,0,0,0-.67,2.44,4.52,4.52,0,0,0,.3,1.76,2.13,2.13,0,0,0,.84,1,2.3,2.3,0,0,0,1.27.34,2.26,2.26,0,0,0,1.34-.39,2.46,2.46,0,0,0,.83-1.15,1.71,1.71,0,0,1,.29-.59.64.64,0,0,1,.55-.22.79.79,0,0,1,.8.79Z" transform="translate(0 -0.18)"/><path class="cls-4" d="M147.36,43h-.18a2.17,2.17,0,0,1-.2.87,3.08,3.08,0,0,1-.64.94,3.18,3.18,0,0,1-1.1.74,4.07,4.07,0,0,1-1.59.29,5.36,5.36,0,0,1-1.26-.13,3.56,3.56,0,0,1-1-.4,3.5,3.5,0,0,1-.84-.72h0a4.49,4.49,0,0,1-.58-.92,4.38,4.38,0,0,1-.37-1.09,6,6,0,0,1-.12-1.23,5.53,5.53,0,0,1,.3-1.9,4,4,0,0,1,.88-1.42,3.75,3.75,0,0,1,1.33-.89,4.22,4.22,0,0,1,1.63-.31,4.07,4.07,0,0,1,1.88.42,3.26,3.26,0,0,1,1.25,1,1.89,1.89,0,0,1,.42,1.11.63.63,0,0,1-.17.44.53.53,0,0,1-.4.18.57.57,0,0,1-.41-.12,2,2,0,0,1-.36-.53,2.84,2.84,0,0,0-.9-1.07,2.23,2.23,0,0,0-1.3-.37,2.36,2.36,0,0,0-1.94.93,4.1,4.1,0,0,0-.71,2.56,4.73,4.73,0,0,0,.31,1.83,2.4,2.4,0,0,0,.91,1.13,2.51,2.51,0,0,0,1.37.37,2.41,2.41,0,0,0,1.45-.42,2.69,2.69,0,0,0,.89-1.24h0a1.74,1.74,0,0,1,.26-.53.48.48,0,0,1,.41-.15.61.61,0,0,1,.62.61h.36a.94.94,0,0,0-.29-.69.9.9,0,0,0-.69-.28.83.83,0,0,0-.7.29,2.39,2.39,0,0,0-.32.64l.18.06-.17-.07a2.1,2.1,0,0,1-.77,1.07,2,2,0,0,1-1.23.36,2.17,2.17,0,0,1-1.18-.32,2,2,0,0,1-.77-1,4.48,4.48,0,0,1-.28-1.69,3.74,3.74,0,0,1,.63-2.33,2,2,0,0,1,1.66-.79,1.88,1.88,0,0,1,1.1.3,2.59,2.59,0,0,1,.78.94,2.43,2.43,0,0,0,.43.62.91.91,0,0,0,.66.22.89.89,0,0,0,.67-.3,1,1,0,0,0,.27-.68,2.3,2.3,0,0,0-.49-1.32A3.82,3.82,0,0,0,145.64,37a4.5,4.5,0,0,0-2-.45,4.8,4.8,0,0,0-1.77.33,4.09,4.09,0,0,0-1.45,1,4.34,4.34,0,0,0-.95,1.54,5.65,5.65,0,0,0-.33,2,6.19,6.19,0,0,0,.13,1.31,4.74,4.74,0,0,0,.39,1.17,4.8,4.8,0,0,0,.64,1h0a3.57,3.57,0,0,0,2,1.24,5.71,5.71,0,0,0,1.35.14,4.45,4.45,0,0,0,1.73-.31,3.63,3.63,0,0,0,1.23-.84,3.53,3.53,0,0,0,.7-1,2.58,2.58,0,0,0,.23-1Z" transform="translate(0 -0.18)"/><path class="cls-4" d="M156.28,38.36h-2v6.58a1.29,1.29,0,0,1-.25.85.87.87,0,0,1-.66.27.84.84,0,0,1-.66-.28,1.14,1.14,0,0,1-.26-.84V38.36h-2a1,1,0,0,1-.69-.21.68.68,0,0,1-.23-.55.71.71,0,0,1,.24-.56,1,1,0,0,1,.68-.2h5.84a1,1,0,0,1,.71.21.7.7,0,0,1,.23.55.72.72,0,0,1-.23.55A1,1,0,0,1,156.28,38.36Z" transform="translate(0 -0.18)"/><path class="cls-4" d="M156.28,38.36v-.18H154.1v6.76a1,1,0,0,1-.21.72.63.63,0,0,1-.52.22.67.67,0,0,1-.53-.22,1,1,0,0,1-.21-.72V38.18h-2.19a.8.8,0,0,1-.57-.17.48.48,0,0,1-.17-.41.54.54,0,0,1,.17-.42.86.86,0,0,1,.57-.16h5.84a.84.84,0,0,1,.59.17.49.49,0,0,1,.17.41.48.48,0,0,1-.17.41.86.86,0,0,1-.59.17v.36a1.23,1.23,0,0,0,.83-.26.84.84,0,0,0,.29-.68.83.83,0,0,0-.29-.68,1.15,1.15,0,0,0-.83-.26h-5.84a1.16,1.16,0,0,0-.8.25,1,1,0,0,0,0,1.37,1.22,1.22,0,0,0,.82.26h1.83v6.4a1.43,1.43,0,0,0,.3,1,1,1,0,0,0,.8.33,1,1,0,0,0,.79-.33,1.39,1.39,0,0,0,.3-1v-6.4h1.82Z" transform="translate(0 -0.18)"/><path class="cls-4" d="M165.68,38.26h-4.14v2.22h3.81a.9.9,0,0,1,.62.19.64.64,0,0,1,.21.5.67.67,0,0,1-.2.5.9.9,0,0,1-.63.2h-3.81v2.58h4.28a1,1,0,0,1,.65.2.67.67,0,0,1,.22.53.68.68,0,0,1-.22.53,1,1,0,0,1-.65.2h-5a1.19,1.19,0,0,1-.87-.27,1.21,1.21,0,0,1-.26-.86V38a1.51,1.51,0,0,1,.12-.65.69.69,0,0,1,.37-.36,1.46,1.46,0,0,1,.64-.12h4.85a1,1,0,0,1,.65.2.72.72,0,0,1,0,1A1,1,0,0,1,165.68,38.26Z" transform="translate(0 -0.18)"/><path class="cls-4" d="M165.68,38.26v-.18h-4.32v2.58h4a.69.69,0,0,1,.5.15.43.43,0,0,1,.15.36.45.45,0,0,1-.15.37.66.66,0,0,1-.5.15h-4v2.94h4.46a.78.78,0,0,1,.53.15.53.53,0,0,1,.16.4.47.47,0,0,1-.16.39.73.73,0,0,1-.53.16h-5a1,1,0,0,1-.74-.21,1,1,0,0,1-.21-.74V38a1.39,1.39,0,0,1,.1-.57h0a.55.55,0,0,1,.28-.28,1.42,1.42,0,0,1,.57-.1h4.85a.78.78,0,0,1,.53.15.56.56,0,0,1,0,.76.78.78,0,0,1-.53.15v.36a1.13,1.13,0,0,0,.77-.24.88.88,0,0,0,.27-.65.86.86,0,0,0-.27-.65,1.13,1.13,0,0,0-.77-.24h-4.85a1.75,1.75,0,0,0-.72.13,1,1,0,0,0-.46.45h0a1.8,1.8,0,0,0-.13.73v6.81a1.39,1.39,0,0,0,.31,1,1.36,1.36,0,0,0,1,.32h5a1.09,1.09,0,0,0,.77-.25.92.92,0,0,0,0-1.32,1.09,1.09,0,0,0-.77-.25h-4.1V42.05h3.63a1,1,0,0,0,.75-.25.89.89,0,0,0,0-1.26,1.09,1.09,0,0,0-.75-.24h-3.63V38.44h4Z" transform="translate(0 -0.18)"/><path class="cls-4" d="M172,42h-.64v2.91a1.2,1.2,0,0,1-.25.85.87.87,0,0,1-.66.27.83.83,0,0,1-.68-.28,1.22,1.22,0,0,1-.25-.84V38a1.15,1.15,0,0,1,.27-.86,1.17,1.17,0,0,1,.86-.27h3a10.26,10.26,0,0,1,1.05,0,2.76,2.76,0,0,1,.8.22,2.38,2.38,0,0,1,.75.51,2.13,2.13,0,0,1,.5.78,2.6,2.6,0,0,1,.17.93,2.26,2.26,0,0,1-.57,1.62,3.24,3.24,0,0,1-1.74.86,3.47,3.47,0,0,1,.94.77,8.3,8.3,0,0,1,.79,1.08,9,9,0,0,1,.55,1,2,2,0,0,1,.19.64.68.68,0,0,1-.11.35.8.8,0,0,1-.32.28,1,1,0,0,1-1,0,1.62,1.62,0,0,1-.37-.37c-.1-.15-.23-.37-.41-.66l-.73-1.22a7.37,7.37,0,0,0-.71-1,1.82,1.82,0,0,0-.64-.48A2.08,2.08,0,0,0,172,42Zm1.06-3.81h-1.7v2.49H173a5,5,0,0,0,1.11-.11,1.37,1.37,0,0,0,.69-.39,1.12,1.12,0,0,0,.24-.76,1.22,1.22,0,0,0-.19-.66,1.1,1.1,0,0,0-.54-.43A3.74,3.74,0,0,0,173.06,38.22Z" transform="translate(0 -0.18)"/><path class="cls-4" d="M172,42v-.18h-.82v3.09a1.08,1.08,0,0,1-.2.73.69.69,0,0,1-.53.21.66.66,0,0,1-.55-.22,1.09,1.09,0,0,1-.19-.72V38a1,1,0,0,1,.21-.73,1,1,0,0,1,.73-.22h3a9.84,9.84,0,0,1,1,0,2.58,2.58,0,0,1,.74.2h0a2,2,0,0,1,.69.48,2,2,0,0,1,.46.71,2.32,2.32,0,0,1,.16.87,2.1,2.1,0,0,1-.52,1.5,3.16,3.16,0,0,1-1.65.81l-.48.1.44.23a3.05,3.05,0,0,1,.88.73,7.93,7.93,0,0,1,.78,1,9.23,9.23,0,0,1,.53,1,2.06,2.06,0,0,1,.18.57.45.45,0,0,1-.09.25.64.64,0,0,1-.24.22.81.81,0,0,1-.37.08.72.72,0,0,1-.42-.11,1.39,1.39,0,0,1-.32-.32c-.09-.15-.23-.36-.4-.65l-.74-1.22-.15.09.15-.09a6.34,6.34,0,0,0-.73-1.06,1.89,1.89,0,0,0-.7-.53,2.29,2.29,0,0,0-.88-.14v.36a2,2,0,0,1,.75.12,1.48,1.48,0,0,1,.56.43,6.41,6.41,0,0,1,.69,1h0l.74,1.23c.17.29.31.51.41.66a1.64,1.64,0,0,0,.41.42,1.1,1.1,0,0,0,.63.17,1.12,1.12,0,0,0,.54-.12,1,1,0,0,0,.38-.34.82.82,0,0,0,.14-.45,2.1,2.1,0,0,0-.21-.71,7.69,7.69,0,0,0-.55-1,7.94,7.94,0,0,0-.82-1.11,3.64,3.64,0,0,0-1-.81l-.09.16,0,.18a3.44,3.44,0,0,0,1.83-.91,2.45,2.45,0,0,0,.62-1.75,2.81,2.81,0,0,0-.18-1,2.33,2.33,0,0,0-.54-.84,2.48,2.48,0,0,0-.81-.55l-.07.17.07-.17a3.15,3.15,0,0,0-.84-.23c-.31,0-.66-.05-1.08-.05h-3a1.35,1.35,0,0,0-1,.32,1.39,1.39,0,0,0-.32,1v7a1.45,1.45,0,0,0,.29,1,1.13,1.13,0,0,0,1.61,0,1.39,1.39,0,0,0,.3-1V42.21H172Zm1.06-3.81V38h-1.88v2.85H173a4.32,4.32,0,0,0,1.15-.12,1.53,1.53,0,0,0,.79-.44,1.35,1.35,0,0,0,.28-.88,1.32,1.32,0,0,0-.84-1.26h0a3.8,3.8,0,0,0-1.33-.15v.36a3.81,3.81,0,0,1,1.19.12h0a1,1,0,0,1,.46.37,1,1,0,0,1,.16.56.91.91,0,0,1-.2.64,1.12,1.12,0,0,1-.59.33,4.57,4.57,0,0,1-1.07.11h-1.47V38.4h1.52Z" transform="translate(0 -0.18)"/><path class="cls-4" d="M186.92,43.19a2.69,2.69,0,0,1-.42,1.48,2.88,2.88,0,0,1-1.24,1,4.63,4.63,0,0,1-1.94.37,4.43,4.43,0,0,1-2.21-.5,3,3,0,0,1-1-1,2.16,2.16,0,0,1-.38-1.18.74.74,0,0,1,.23-.57.78.78,0,0,1,.59-.24.71.71,0,0,1,.49.18,1.52,1.52,0,0,1,.34.55,3.8,3.8,0,0,0,.38.73,1.57,1.57,0,0,0,.56.48,2.22,2.22,0,0,0,1,.18,2.12,2.12,0,0,0,1.33-.38,1.14,1.14,0,0,0,.51-.95,1,1,0,0,0-.28-.73,1.74,1.74,0,0,0-.71-.43c-.29-.1-.68-.2-1.16-.31a8.75,8.75,0,0,1-1.64-.54,2.55,2.55,0,0,1-1-.83,2.17,2.17,0,0,1-.39-1.32,2.21,2.21,0,0,1,.41-1.33,2.52,2.52,0,0,1,1.18-.89,5.4,5.4,0,0,1,3.26-.11,3.23,3.23,0,0,1,1,.55,2.26,2.26,0,0,1,.59.72,1.77,1.77,0,0,1,.19.74.84.84,0,0,1-.24.59.7.7,0,0,1-.57.26.69.69,0,0,1-.48-.15,2.28,2.28,0,0,1-.36-.52,2.29,2.29,0,0,0-.59-.8,1.77,1.77,0,0,0-1.12-.29,2,2,0,0,0-1.14.31.9.9,0,0,0-.44.76.78.78,0,0,0,.15.47,1.28,1.28,0,0,0,.41.34,3.38,3.38,0,0,0,.52.22l.88.23a13,13,0,0,1,1.39.4,4.36,4.36,0,0,1,1.06.52,2.26,2.26,0,0,1,.68.79A2.52,2.52,0,0,1,186.92,43.19Z" transform="translate(0 -0.18)"/><path class="cls-4" d="M186.92,43.19h-.18a2.52,2.52,0,0,1-.39,1.38,2.75,2.75,0,0,1-1.17,1,4.51,4.51,0,0,1-1.86.35,4.13,4.13,0,0,1-2.12-.48h0a2.79,2.79,0,0,1-.95-.92,2,2,0,0,1-.35-1.08.59.59,0,0,1,.18-.45.6.6,0,0,1,.46-.18.5.5,0,0,1,.37.14,1.16,1.16,0,0,1,.29.48h0a3.18,3.18,0,0,0,.39.76,1.68,1.68,0,0,0,.63.54,2.32,2.32,0,0,0,1,.21,2.38,2.38,0,0,0,1.44-.42,1.36,1.36,0,0,0,.58-1.1,1.18,1.18,0,0,0-.33-.85,1.87,1.87,0,0,0-.78-.48c-.3-.1-.69-.21-1.18-.32h0a8.59,8.59,0,0,1-1.6-.52,2.48,2.48,0,0,1-1-.78,2.21,2.21,0,0,1,0-2.43,2.26,2.26,0,0,1,1.1-.83,4.57,4.57,0,0,1,1.75-.3,4.3,4.3,0,0,1,1.38.19,2.94,2.94,0,0,1,.95.52,2.14,2.14,0,0,1,.55.66,1.55,1.55,0,0,1,.16.66.66.66,0,0,1-.18.47.55.55,0,0,1-.44.2.51.51,0,0,1-.36-.1A2.43,2.43,0,0,1,185,39l-.16.09L185,39a2.39,2.39,0,0,0-.64-.86,1.9,1.9,0,0,0-1.23-.33,2.07,2.07,0,0,0-1.25.35,1.09,1.09,0,0,0-.51.9.94.94,0,0,0,.18.57h0a1.38,1.38,0,0,0,.47.39,3,3,0,0,0,.56.24c.18.06.48.14.89.24h0c.51.12,1,.25,1.37.39a4.13,4.13,0,0,1,1,.5,2,2,0,0,1,.63.72,2.41,2.41,0,0,1,.22,1.08h.36a2.71,2.71,0,0,0-.26-1.25,2.39,2.39,0,0,0-.74-.84,4.35,4.35,0,0,0-1.1-.55,12.74,12.74,0,0,0-1.41-.4l0,.17,0-.17q-.6-.15-.87-.24a2.2,2.2,0,0,1-.49-.2,1.32,1.32,0,0,1-.35-.29h0a.61.61,0,0,1-.11-.36.72.72,0,0,1,.36-.61,1.74,1.74,0,0,1,1-.28,1.59,1.59,0,0,1,1,.25,2.1,2.1,0,0,1,.55.74h0a2.46,2.46,0,0,0,.39.56.84.84,0,0,0,.61.2.9.9,0,0,0,.71-.32,1.06,1.06,0,0,0,.28-.71,1.75,1.75,0,0,0-.21-.81,2.38,2.38,0,0,0-.63-.78,3.33,3.33,0,0,0-1.07-.59,4.85,4.85,0,0,0-1.5-.21,5,5,0,0,0-1.89.32,2.75,2.75,0,0,0-1.26,1,2.4,2.4,0,0,0-.44,1.43,2.34,2.34,0,0,0,.42,1.42,2.91,2.91,0,0,0,1.11.9,8.75,8.75,0,0,0,1.68.54h0c.48.11.86.22,1.14.31a1.62,1.62,0,0,1,.64.39.8.8,0,0,1,.23.6,1,1,0,0,1-.44.81,2,2,0,0,1-1.22.34,1.86,1.86,0,0,1-.87-.17,1.17,1.17,0,0,1-.5-.42,3.3,3.3,0,0,1-.36-.68h0a1.65,1.65,0,0,0-.39-.62.81.81,0,0,0-.61-.23.91.91,0,0,0-.72.29,1,1,0,0,0-.29.7,2.43,2.43,0,0,0,.42,1.28,3.16,3.16,0,0,0,1.06,1h0a4.47,4.47,0,0,0,2.3.53,4.81,4.81,0,0,0,2-.38,3,3,0,0,0,1.32-1.1,2.83,2.83,0,0,0,.45-1.57Z" transform="translate(0 -0.18)"/><g class="cls-5"><g class="cls-6"><path class="cls-7" d="M177.82,20.94a2.24,2.24,0,0,1-2.25-2.39,2.23,2.23,0,0,1,2.25-2.38h10.59V5.58a2.39,2.39,0,0,1,4.77,0V16.17h10.59A2.24,2.24,0,0,1,206,18.55a2.25,2.25,0,0,1-2.26,2.39H193.18V31.53a2.39,2.39,0,0,1-4.77,0V20.94H177.82m13-20.76h-.08a5.29,5.29,0,0,0-5.49,5.4V13h-7.45a5.3,5.3,0,0,0-5.4,5.49v.08a5.3,5.3,0,0,0,5.4,5.49h7.45v7.45a5.53,5.53,0,0,0,11.06,0V24.08h7.44a5.29,5.29,0,0,0,5.4-5.53,5.3,5.3,0,0,0-5.4-5.53h-7.44V5.58a5.3,5.3,0,0,0-5.49-5.4" transform="translate(0 -0.18)"/></g></g><g class="cls-8"><g class="cls-9"><path class="cls-7" d="M216.75,20.94a2.24,2.24,0,0,1-2.25-2.39,2.23,2.23,0,0,1,2.25-2.38h10.59V5.58a2.39,2.39,0,0,1,4.77,0V16.17H242.7A2.24,2.24,0,0,1,245,18.55a2.25,2.25,0,0,1-2.26,2.39H232.11V31.53a2.39,2.39,0,0,1-4.77,0V20.94H216.75m13-20.76h-.08a5.29,5.29,0,0,0-5.49,5.4V13h-7.45a5.3,5.3,0,0,0-5.4,5.53,5.3,5.3,0,0,0,5.4,5.53h7.45v7.45a5.53,5.53,0,0,0,11.06,0V24.08h7.44a5.29,5.29,0,0,0,5.4-5.53A5.3,5.3,0,0,0,242.7,13h-7.44V5.58a5.3,5.3,0,0,0-5.49-5.4" transform="translate(0 -0.18)"/></g></g></g></g></svg>