<svg id="Layer_1" data-name="Layer 1" xmlns="http://www.w3.org/2000/svg" xmlns:xlink="http://www.w3.org/1999/xlink" viewBox="0 0 248.1 46.06"><defs><style>.cls-1,.cls-2{fill:none;}.cls-2{clip-rule:evenodd;}.cls-3{fill:#1d5888;}.cls-4{fill:#0b66a0;}.cls-5{clip-path:url(#clip-path);}.cls-6{clip-path:url(#clip-path-2);}.cls-7{fill:#ff993b;opacity:0.75;}.cls-8{clip-path:url(#clip-path-3);}.cls-9{clip-path:url(#clip-path-4);}</style><clipPath id="clip-path" transform="translate(-30.25 -135.18)"><polyline class="cls-1" points="202.56 135 239.52 135 239.52 171.96 202.56 171.96 202.56 135"/></clipPath><clipPath id="clip-path-2" transform="translate(-30.25 -135.18)"><polyline class="cls-2" points="202.67 135.18 239.42 135.18 239.42 171.93 202.67 171.93 202.67 135.18"/></clipPath><clipPath id="clip-path-3" transform="translate(-30.25 -135.18)"><polyline class="cls-1" points="241.44 135 278.4 135 278.4 171.96 241.44 171.96 241.44 135"/></clipPath><clipPath id="clip-path-4" transform="translate(-30.25 -135.18)"><polyline class="cls-2" points="241.6 135.18 278.35 135.18 278.35 171.93 241.6 171.93 241.6 135.18"/></clipPath></defs><path class="cls-3" d="M49.6,140.87v14.62a27.09,27.09,0,0,1-.16,3.24,10.25,10.25,0,0,1-.73,2.7A7.28,7.28,0,0,1,45.57,165a10.35,10.35,0,0,1-5.34,1.29,11,11,0,0,1-4.73-.9,7,7,0,0,1-3.06-2.89,11.08,11.08,0,0,1-1-2.46,10.21,10.21,0,0,1-.38-2.65,2.52,2.52,0,0,1,2.65-2.74,2.17,2.17,0,0,1,1.7.65,4.48,4.48,0,0,1,.87,2,18.12,18.12,0,0,0,.65,2.34,3.46,3.46,0,0,0,1.08,1.5,3.35,3.35,0,0,0,2.18.63q3.75,0,3.75-5.5V140.87a3.84,3.84,0,0,1,.75-2.58,2.58,2.58,0,0,1,2-.85,2.66,2.66,0,0,1,2.08.85A3.74,3.74,0,0,1,49.6,140.87Z" transform="translate(-30.25 -135.18)"/><path class="cls-3" d="M76.94,157.45A8.18,8.18,0,0,1,75.63,162a8.64,8.64,0,0,1-3.81,3.16,14.21,14.21,0,0,1-6,1.15A13.42,13.42,0,0,1,59,164.75a9.17,9.17,0,0,1-3.1-3,6.85,6.85,0,0,1-1.19-3.65,2.49,2.49,0,0,1,2.54-2.5,2.16,2.16,0,0,1,1.51.58,4.59,4.59,0,0,1,1.06,1.69A11.25,11.25,0,0,0,61,160.1a4.64,4.64,0,0,0,1.74,1.48,6.53,6.53,0,0,0,3,.58A6.62,6.62,0,0,0,69.79,161a3.53,3.53,0,0,0,1.57-2.92,3.08,3.08,0,0,0-.85-2.26,5.54,5.54,0,0,0-2.19-1.32c-.89-.3-2.09-.63-3.59-1a26.24,26.24,0,0,1-5-1.65,8,8,0,0,1-3.22-2.57,6.6,6.6,0,0,1-1.19-4,7,7,0,0,1,1.25-4.1,7.94,7.94,0,0,1,3.64-2.75,14.92,14.92,0,0,1,5.6-1,13.75,13.75,0,0,1,4.45.64,9.41,9.41,0,0,1,3.11,1.69A7.15,7.15,0,0,1,75.15,142a5.11,5.11,0,0,1,.57,2.27,2.69,2.69,0,0,1-.71,1.81,2.28,2.28,0,0,1-1.78.81,2.08,2.08,0,0,1-1.48-.48,6.89,6.89,0,0,1-1.1-1.59,7.06,7.06,0,0,0-1.82-2.47,5.36,5.36,0,0,0-3.43-.88,5.92,5.92,0,0,0-3.53,1,2.79,2.79,0,0,0-1.35,2.31,2.39,2.39,0,0,0,.46,1.45,4,4,0,0,0,1.26,1,8.09,8.09,0,0,0,1.62.68c.54.17,1.44.41,2.7.73a41.3,41.3,0,0,1,4.27,1.21,13.22,13.22,0,0,1,3.26,1.62,6.76,6.76,0,0,1,2.1,2.41A7.73,7.73,0,0,1,76.94,157.45Z" transform="translate(-30.25 -135.18)"/><path class="cls-3" d="M116.07,157a7.61,7.61,0,0,1-.65,2.89,10.55,10.55,0,0,1-5.67,5.47,12.79,12.79,0,0,1-5.1.94,17.72,17.72,0,0,1-4-.42,11.38,11.38,0,0,1-3.29-1.31,11.1,11.1,0,0,1-2.71-2.33,13.9,13.9,0,0,1-1.88-2.94,15,15,0,0,1-1.18-3.48,19,19,0,0,1-.39-3.92,17.51,17.51,0,0,1,1-6A13.07,13.07,0,0,1,95,141.31a12.29,12.29,0,0,1,4.29-2.88,13.86,13.86,0,0,1,5.23-1,13.1,13.1,0,0,1,6,1.35,11,11,0,0,1,4.06,3.34,6.6,6.6,0,0,1,1.41,3.76,2.46,2.46,0,0,1-.69,1.72,2.2,2.2,0,0,1-1.66.74,2.28,2.28,0,0,1-1.62-.51,7,7,0,0,1-1.21-1.78,8.67,8.67,0,0,0-2.6-3.1,6.34,6.34,0,0,0-3.69-1A6.67,6.67,0,0,0,99,144.58c-1.38,1.76-2.06,4.27-2.06,7.52a14,14,0,0,0,.91,5.42,6.83,6.83,0,0,0,2.59,3.23,7.15,7.15,0,0,0,3.92,1.06,6.83,6.83,0,0,0,4.12-1.21,7.24,7.24,0,0,0,2.55-3.55,6.3,6.3,0,0,1,.89-1.8,2,2,0,0,1,1.72-.69,2.39,2.39,0,0,1,1.73.7A2.36,2.36,0,0,1,116.07,157Z" transform="translate(-30.25 -135.18)"/><path class="cls-3" d="M140.25,155.74a12.06,12.06,0,0,1-.73,4.28,9.46,9.46,0,0,1-2.09,3.37,9.2,9.2,0,0,1-3.28,2.16,12.35,12.35,0,0,1-8.53,0,9.39,9.39,0,0,1-5.36-5.54,13.26,13.26,0,0,1,0-8.59,9.44,9.44,0,0,1,2.08-3.36,9.2,9.2,0,0,1,3.27-2.14,11.64,11.64,0,0,1,4.25-.75,11.48,11.48,0,0,1,4.28.76,9.18,9.18,0,0,1,5.38,5.52A12.3,12.3,0,0,1,140.25,155.74Zm-5.22,0a7.82,7.82,0,0,0-1.4-5,4.55,4.55,0,0,0-3.76-1.77,4.65,4.65,0,0,0-2.69.79,5,5,0,0,0-1.79,2.33,9.69,9.69,0,0,0-.62,3.6,9.28,9.28,0,0,0,.62,3.56,5.1,5.1,0,0,0,1.77,2.33,4.89,4.89,0,0,0,6.47-1A7.8,7.8,0,0,0,135,155.74Z" transform="translate(-30.25 -135.18)"/><path class="cls-3" d="M157.84,163.37v-.66a11.15,11.15,0,0,1-2,2,7.22,7.22,0,0,1-2.24,1.19,9.17,9.17,0,0,1-2.79.39,7.23,7.23,0,0,1-3.38-.78,5.78,5.78,0,0,1-2.31-2.15,9.5,9.5,0,0,1-1-4.76V148.27a3.36,3.36,0,0,1,.7-2.33,2.43,2.43,0,0,1,1.87-.77,2.49,2.49,0,0,1,1.91.78,3.32,3.32,0,0,1,.72,2.32v8.33a13,13,0,0,0,.3,3,3.72,3.72,0,0,0,1.1,1.93,3.13,3.13,0,0,0,2.14.69,4.38,4.38,0,0,0,2.48-.78,4.53,4.53,0,0,0,1.69-2,16.38,16.38,0,0,0,.44-4.83v-6.33a3.32,3.32,0,0,1,.72-2.32,2.47,2.47,0,0,1,1.89-.78,2.41,2.41,0,0,1,1.86.77,3.36,3.36,0,0,1,.71,2.33v15.07a3.19,3.19,0,0,1-.68,2.22,2.23,2.23,0,0,1-1.74.75,2.27,2.27,0,0,1-1.76-.77A3.16,3.16,0,0,1,157.84,163.37Z" transform="translate(-30.25 -135.18)"/><path class="cls-3" d="M172.62,148v.63a9.1,9.1,0,0,1,3-2.65,7.93,7.93,0,0,1,3.74-.85,7.56,7.56,0,0,1,3.68.89,5.76,5.76,0,0,1,2.42,2.54,6,6,0,0,1,.66,2.05,21.73,21.73,0,0,1,.15,2.82v9.68a3.43,3.43,0,0,1-.71,2.36,2.38,2.38,0,0,1-1.86.8,2.41,2.41,0,0,1-1.88-.82,3.45,3.45,0,0,1-.72-2.34v-8.67a8.6,8.6,0,0,0-.72-3.93,2.9,2.9,0,0,0-2.85-1.36A4.17,4.17,0,0,0,175,150a4.72,4.72,0,0,0-1.67,2.27,15.93,15.93,0,0,0-.39,4.34v6.52a3.38,3.38,0,0,1-.73,2.37,2.49,2.49,0,0,1-1.89.79,2.38,2.38,0,0,1-1.85-.82,3.45,3.45,0,0,1-.72-2.34v-15a3.29,3.29,0,0,1,.64-2.22,2.26,2.26,0,0,1,1.77-.73,2.46,2.46,0,0,1,1.24.32,2.33,2.33,0,0,1,.89,1A3.48,3.48,0,0,1,172.62,148Z" transform="translate(-30.25 -135.18)"/><path class="cls-3" d="M191.74,145.63h.57V142.5c0-.83,0-1.49.07-2a3,3,0,0,1,.37-1.23,2.32,2.32,0,0,1,.87-.86,2.54,2.54,0,0,1,3.07.41,2.2,2.2,0,0,1,.68,1.21,11.41,11.41,0,0,1,.14,2v3.55h1.9a2.44,2.44,0,0,1,1.69.52,1.72,1.72,0,0,1,.58,1.34,1.51,1.51,0,0,1-.83,1.47,5.35,5.35,0,0,1-2.37.42h-1v9.56a14.72,14.72,0,0,0,.09,1.87,1.9,1.9,0,0,0,.45,1.07,1.58,1.58,0,0,0,1.21.41,6.24,6.24,0,0,0,1.24-.16,6.25,6.25,0,0,1,1.22-.16,1.53,1.53,0,0,1,1.13.5,1.69,1.69,0,0,1,.51,1.25,2.08,2.08,0,0,1-1.37,1.92,9.37,9.37,0,0,1-4,.67,6.86,6.86,0,0,1-3.69-.82,3.8,3.8,0,0,1-1.65-2.27,15.32,15.32,0,0,1-.39-3.86v-10h-.68a2.48,2.48,0,0,1-1.72-.54,1.74,1.74,0,0,1-.59-1.35,1.69,1.69,0,0,1,.62-1.34A2.7,2.7,0,0,1,191.74,145.63Z" transform="translate(-30.25 -135.18)"/><path class="cls-3" d="M49.6,140.87h-.55v14.62a27.89,27.89,0,0,1-.16,3.17,9.43,9.43,0,0,1-.7,2.56h0a6.67,6.67,0,0,1-2.91,3.32h0a9.76,9.76,0,0,1-5.05,1.21,10.52,10.52,0,0,1-4.49-.84,6.38,6.38,0,0,1-2.81-2.67h0a10.2,10.2,0,0,1-.94-2.33,9.49,9.49,0,0,1-.36-2.5,2.15,2.15,0,0,1,.57-1.63,2.1,2.1,0,0,1,1.52-.55,1.57,1.57,0,0,1,1.28.46,4.12,4.12,0,0,1,.75,1.77h0a19,19,0,0,0,.67,2.41,4,4,0,0,0,1.25,1.74,3.87,3.87,0,0,0,2.53.76,3.76,3.76,0,0,0,3.27-1.62,7.87,7.87,0,0,0,1-4.44V140.87a3.27,3.27,0,0,1,.62-2.21h0a2,2,0,0,1,1.63-.67,2.12,2.12,0,0,1,1.67.68h0a3.22,3.22,0,0,1,.63,2.2h1.11a4.26,4.26,0,0,0-.92-3h0a3.25,3.25,0,0,0-2.5-1,3.13,3.13,0,0,0-2.47,1.05h0a4.31,4.31,0,0,0-.89,2.94v15.44a6.88,6.88,0,0,1-.84,3.81,2.64,2.64,0,0,1-2.35,1.14,2.76,2.76,0,0,1-1.82-.51,2.88,2.88,0,0,1-.92-1.26,18.48,18.48,0,0,1-.62-2.27h0a5.08,5.08,0,0,0-1-2.27,2.69,2.69,0,0,0-2.11-.84,3.27,3.27,0,0,0-2.29.86,3.22,3.22,0,0,0-.91,2.44,10.4,10.4,0,0,0,.4,2.8,11,11,0,0,0,1,2.58h0a7.56,7.56,0,0,0,3.3,3.12,11.63,11.63,0,0,0,5,.94,10.91,10.91,0,0,0,5.62-1.36h0a7.83,7.83,0,0,0,3.37-3.86h0A10.62,10.62,0,0,0,50,158.8a28.25,28.25,0,0,0,.17-3.31V140.87Z" transform="translate(-30.25 -135.18)"/><path class="cls-3" d="M76.94,157.45h-.56a7.62,7.62,0,0,1-1.21,4.25,8.17,8.17,0,0,1-3.58,3,13.81,13.81,0,0,1-5.73,1.09,12.84,12.84,0,0,1-6.54-1.49h0a8.62,8.62,0,0,1-2.91-2.82,6.28,6.28,0,0,1-1.1-3.35,1.89,1.89,0,0,1,.56-1.37,1.87,1.87,0,0,1,1.42-.57,1.57,1.57,0,0,1,1.13.43,3.93,3.93,0,0,1,.92,1.48h0a12.42,12.42,0,0,0,1.21,2.34,5.2,5.2,0,0,0,2,1.65,7,7,0,0,0,3.2.64,7.21,7.21,0,0,0,4.42-1.28,4.09,4.09,0,0,0,1.8-3.37,3.67,3.67,0,0,0-1-2.64h0A6.14,6.14,0,0,0,68.5,154a37.59,37.59,0,0,0-3.64-1h0a26.65,26.65,0,0,1-4.93-1.61,7.53,7.53,0,0,1-3-2.4,6.09,6.09,0,0,1-1.09-3.71A6.46,6.46,0,0,1,57,141.47a7.38,7.38,0,0,1,3.39-2.55h0a14.29,14.29,0,0,1,5.39-.93,13.34,13.34,0,0,1,4.27.61A9,9,0,0,1,73,140.19h0a6.51,6.51,0,0,1,1.67,2.05,4.54,4.54,0,0,1,.51,2,2.11,2.11,0,0,1-.57,1.45h0a1.73,1.73,0,0,1-1.36.62,1.54,1.54,0,0,1-1.09-.33h0a6.39,6.39,0,0,1-1-1.45l-.5.26.51-.24a7.88,7.88,0,0,0-2-2.66h0a5.81,5.81,0,0,0-3.78-1A6.49,6.49,0,0,0,61.54,142a3.86,3.86,0,0,0-1.16,1.23,3,3,0,0,0-.41,1.53,2.84,2.84,0,0,0,.56,1.78,4.49,4.49,0,0,0,1.44,1.2,8.54,8.54,0,0,0,1.72.73c.57.17,1.47.42,2.73.74h0a39.61,39.61,0,0,1,4.22,1.2,12.27,12.27,0,0,1,3.12,1.55,6,6,0,0,1,1.92,2.21,7.16,7.16,0,0,1,.69,3.31H77.5a8.28,8.28,0,0,0-.82-3.82A7.14,7.14,0,0,0,74.41,151,13.58,13.58,0,0,0,71,149.33a43.09,43.09,0,0,0-4.33-1.24l-.13.55.14-.54c-1.26-.32-2.15-.56-2.68-.72a8.22,8.22,0,0,1-1.52-.64,3.24,3.24,0,0,1-1.07-.9,1.73,1.73,0,0,1-.35-1.11,1.9,1.9,0,0,1,.26-1,2.93,2.93,0,0,1,.85-.89A5.44,5.44,0,0,1,65.4,142a4.87,4.87,0,0,1,3.07.76h0a6.6,6.6,0,0,1,1.68,2.28h0a7.45,7.45,0,0,0,1.2,1.73h0a2.63,2.63,0,0,0,1.87.64,2.82,2.82,0,0,0,2.19-1h0a3.23,3.23,0,0,0,.86-2.18,5.72,5.72,0,0,0-.63-2.52,7.64,7.64,0,0,0-2-2.39h0a9.84,9.84,0,0,0-3.3-1.8,14.33,14.33,0,0,0-4.62-.67,15.54,15.54,0,0,0-5.81,1h0a8.54,8.54,0,0,0-3.88,3,7.51,7.51,0,0,0-1.36,4.42,7.18,7.18,0,0,0,1.3,4.37,8.68,8.68,0,0,0,3.43,2.75,26.49,26.49,0,0,0,5.14,1.68h0a35.41,35.41,0,0,1,3.53,1,4.89,4.89,0,0,1,2,1.18h0a2.51,2.51,0,0,1,.69,1.87,3,3,0,0,1-1.34,2.48,6.15,6.15,0,0,1-3.76,1.06,5.88,5.88,0,0,1-2.69-.52,4,4,0,0,1-1.54-1.3,11.18,11.18,0,0,1-1.1-2.12h0a5.09,5.09,0,0,0-1.2-1.9,2.68,2.68,0,0,0-1.89-.72,3,3,0,0,0-3.09,3A7.36,7.36,0,0,0,55.47,162a9.66,9.66,0,0,0,3.29,3.19h0a14,14,0,0,0,7.1,1.63,14.93,14.93,0,0,0,6.19-1.19,9.2,9.2,0,0,0,4-3.36,8.79,8.79,0,0,0,1.4-4.86Z" transform="translate(-30.25 -135.18)"/><path class="cls-3" d="M116.07,157h-.55a6.83,6.83,0,0,1-.62,2.67,9.51,9.51,0,0,1-2,2.88,9.94,9.94,0,0,1-3.41,2.3,12.32,12.32,0,0,1-4.88.89,17.85,17.85,0,0,1-3.9-.4,11.06,11.06,0,0,1-3.12-1.24,10.66,10.66,0,0,1-2.58-2.22h0a13.2,13.2,0,0,1-1.81-2.82,14.84,14.84,0,0,1-1.13-3.35,18.5,18.5,0,0,1-.38-3.81,16.75,16.75,0,0,1,1-5.84,12.32,12.32,0,0,1,2.68-4.37,11.83,11.83,0,0,1,4.1-2.76,13.54,13.54,0,0,1,5-.95,12.63,12.63,0,0,1,5.79,1.3,10.37,10.37,0,0,1,3.85,3.16,6,6,0,0,1,1.31,3.44,1.88,1.88,0,0,1-.54,1.34,1.59,1.59,0,0,1-1.25.56,1.74,1.74,0,0,1-1.24-.36h0a6.77,6.77,0,0,1-1.1-1.63,9.11,9.11,0,0,0-2.78-3.3,6.82,6.82,0,0,0-4-1.12,7.23,7.23,0,0,0-6,2.86c-1.48,1.9-2.18,4.54-2.18,7.86a14.52,14.52,0,0,0,1,5.64,7.42,7.42,0,0,0,2.8,3.48,7.74,7.74,0,0,0,4.22,1.15,7.48,7.48,0,0,0,4.45-1.31h0a7.84,7.84,0,0,0,2.74-3.82h0a5.44,5.44,0,0,1,.8-1.64,1,1,0,0,1,.47-.34,2.19,2.19,0,0,1,.81-.14,1.87,1.87,0,0,1,1.34.55,1.79,1.79,0,0,1,.56,1.35h1.11a2.94,2.94,0,0,0-.89-2.15,3,3,0,0,0-2.12-.86,3.24,3.24,0,0,0-1.23.22,2.13,2.13,0,0,0-.93.69,6.6,6.6,0,0,0-1,2l.53.17-.53-.19a6.71,6.71,0,0,1-2.34,3.29h0a6.38,6.38,0,0,1-3.8,1.11,6.64,6.64,0,0,1-3.62-1,6.35,6.35,0,0,1-2.38-3,13.45,13.45,0,0,1-.87-5.2c0-3.17.68-5.55,2-7.18a6.1,6.1,0,0,1,5.11-2.43,5.78,5.78,0,0,1,3.37.93,7.93,7.93,0,0,1,2.43,2.91,7.63,7.63,0,0,0,1.31,1.91h0a2.83,2.83,0,0,0,2,.67,2.75,2.75,0,0,0,2.07-.93,3,3,0,0,0,.83-2.09,7.16,7.16,0,0,0-1.51-4.08,11.57,11.57,0,0,0-4.26-3.52,13.7,13.7,0,0,0-6.29-1.41,14.38,14.38,0,0,0-5.44,1,12.81,12.81,0,0,0-4.48,3,13.54,13.54,0,0,0-2.93,4.75,18,18,0,0,0-1,6.23,19.42,19.42,0,0,0,.4,4,16.05,16.05,0,0,0,1.21,3.6,14.8,14.8,0,0,0,2,3.06h0a11.47,11.47,0,0,0,2.85,2.45,11.85,11.85,0,0,0,3.44,1.37,18.5,18.5,0,0,0,4.15.43,13.61,13.61,0,0,0,5.32-1,11.21,11.21,0,0,0,6-5.77,8,8,0,0,0,.7-3.11Z" transform="translate(-30.25 -135.18)"/><path class="cls-3" d="M140.25,155.74h-.56a11.66,11.66,0,0,1-.69,4.09,9,9,0,0,1-2,3.18,8.8,8.8,0,0,1-3.08,2,11.08,11.08,0,0,1-4.08.71,10.63,10.63,0,0,1-4-.72,8.76,8.76,0,0,1-3.07-2.05,9,9,0,0,1-2-3.16,11.72,11.72,0,0,1-.67-4.08,12,12,0,0,1,.68-4.13,8.85,8.85,0,0,1,2-3.16,8.54,8.54,0,0,1,3.08-2,11.88,11.88,0,0,1,8.12,0,8.63,8.63,0,0,1,5.06,5.2,11.73,11.73,0,0,1,.68,4.09h1.12a12.92,12.92,0,0,0-.75-4.48,9.77,9.77,0,0,0-5.7-5.85,12.28,12.28,0,0,0-4.49-.8,12.1,12.1,0,0,0-4.45.79,9.71,9.71,0,0,0-3.47,2.28,10,10,0,0,0-2.2,3.54,13.76,13.76,0,0,0,0,9,9.93,9.93,0,0,0,2.22,3.54,9.79,9.79,0,0,0,3.45,2.31,11.84,11.84,0,0,0,4.46.8,12.16,12.16,0,0,0,4.49-.79,9.65,9.65,0,0,0,3.47-2.29,10,10,0,0,0,2.22-3.56,13.09,13.09,0,0,0,.76-4.48Zm-5.22,0h.56a8.39,8.39,0,0,0-1.52-5.3,5.11,5.11,0,0,0-4.2-2,5.19,5.19,0,0,0-3,.89,5.49,5.49,0,0,0-2,2.58,10.08,10.08,0,0,0-.67,3.81,9.9,9.9,0,0,0,.66,3.77,5.66,5.66,0,0,0,2,2.58,5.46,5.46,0,0,0,7.23-1.08,8.37,8.37,0,0,0,1.52-5.27h-1.12a7.26,7.26,0,0,1-1.28,4.58,4.36,4.36,0,0,1-5.71.86,4.58,4.58,0,0,1-1.58-2.09,10,10,0,0,1,0-6.74,4.47,4.47,0,0,1,1.59-2.08,4.09,4.09,0,0,1,2.37-.7,4,4,0,0,1,3.32,1.56,7.28,7.28,0,0,1,1.28,4.61Z" transform="translate(-30.25 -135.18)"/><path class="cls-3" d="M157.84,163.37h.56V161.1l-1,1.26a10.81,10.81,0,0,1-1.87,1.89,6.78,6.78,0,0,1-2.07,1.1,8.6,8.6,0,0,1-2.62.36,6.56,6.56,0,0,1-3.12-.72,5,5,0,0,1-2.09-1.94h0a8.92,8.92,0,0,1-.89-4.47V148.27a2.8,2.8,0,0,1,.56-2,1.79,1.79,0,0,1,1.45-.59,1.9,1.9,0,0,1,1.5.6,2.78,2.78,0,0,1,.57,1.94v8.33a13.29,13.29,0,0,0,.32,3.17,4.25,4.25,0,0,0,1.27,2.2,3.67,3.67,0,0,0,2.51.84,4.93,4.93,0,0,0,2.79-.88,5.12,5.12,0,0,0,1.89-2.28h0a7.12,7.12,0,0,0,.36-1.92q.12-1.25.12-3.12v-6.33a2.78,2.78,0,0,1,.57-1.94,1.85,1.85,0,0,1,1.48-.6,1.8,1.8,0,0,1,1.45.59,2.8,2.8,0,0,1,.56,2v15.07a2.68,2.68,0,0,1-.53,1.85,1.85,1.85,0,0,1-2.68,0,2.58,2.58,0,0,1-.55-1.79h-1.11a3.58,3.58,0,0,0,.84,2.54,2.83,2.83,0,0,0,2.17,1,2.78,2.78,0,0,0,2.15-.92,3.76,3.76,0,0,0,.83-2.6V148.27a3.94,3.94,0,0,0-.85-2.71,3,3,0,0,0-2.28-.95,3.09,3.09,0,0,0-2.3,1,3.85,3.85,0,0,0-.87,2.7v6.33c0,1.23,0,2.24-.11,3a6.09,6.09,0,0,1-.29,1.61l.52.2-.51-.21A4,4,0,0,1,155.1,161a3.83,3.83,0,0,1-2.17.68,2.57,2.57,0,0,1-1.77-.55,3.16,3.16,0,0,1-.93-1.64,12.86,12.86,0,0,1-.28-2.9v-8.33a3.81,3.81,0,0,0-.88-2.7,3.24,3.24,0,0,0-4.59,0,3.94,3.94,0,0,0-.85,2.71v10.31a10.16,10.16,0,0,0,1.05,5h0a6.23,6.23,0,0,0,2.54,2.36,7.68,7.68,0,0,0,3.63.85,9.64,9.64,0,0,0,3-.42,7.71,7.71,0,0,0,2.42-1.28,12.3,12.3,0,0,0,2.06-2.08l-.44-.34h-.55v.66Z" transform="translate(-30.25 -135.18)"/><path class="cls-3" d="M172.62,148h-.56v2.29l1-1.32a8.42,8.42,0,0,1,2.81-2.5,7.38,7.38,0,0,1,3.48-.78,6.88,6.88,0,0,1,3.41.82,5.21,5.21,0,0,1,2.19,2.29h0a5.47,5.47,0,0,1,.6,1.87,20.2,20.2,0,0,1,.15,2.74v9.68a2.93,2.93,0,0,1-.57,2,1.86,1.86,0,0,1-1.45.61,1.81,1.81,0,0,1-1.46-.63,2.84,2.84,0,0,1-.59-2v-8.67a9.16,9.16,0,0,0-.78-4.19,2.74,2.74,0,0,0-1.32-1.26,4.56,4.56,0,0,0-2-.4,4.86,4.86,0,0,0-2.86.93,5.42,5.42,0,0,0-1.87,2.54h0a16.4,16.4,0,0,0-.41,4.51v6.52a2.84,2.84,0,0,1-.59,2,1.91,1.91,0,0,1-1.48.61,1.79,1.79,0,0,1-1.43-.63,2.84,2.84,0,0,1-.59-2v-15a2.78,2.78,0,0,1,.51-1.85,1.66,1.66,0,0,1,1.35-.54,1.87,1.87,0,0,1,1,.24,1.71,1.71,0,0,1,.67.75,2.88,2.88,0,0,1,.27,1.32h1.12a3.88,3.88,0,0,0-.4-1.83,2.84,2.84,0,0,0-2.62-1.6,2.83,2.83,0,0,0-2.18.92,3.82,3.82,0,0,0-.79,2.59v15a4,4,0,0,0,.86,2.71,2.92,2.92,0,0,0,2.27,1,3,3,0,0,0,2.3-1,3.93,3.93,0,0,0,.88-2.75v-6.52a16.48,16.48,0,0,1,.35-4.16l-.52-.18.52.19a4.14,4.14,0,0,1,1.48-2,3.68,3.68,0,0,1,2.2-.73,3.54,3.54,0,0,1,1.54.29,1.73,1.73,0,0,1,.82.78,8.21,8.21,0,0,1,.65,3.67v8.67a4,4,0,0,0,.86,2.71,3.14,3.14,0,0,0,4.58,0,4,4,0,0,0,.85-2.73v-9.68a21.07,21.07,0,0,0-.16-2.89,6.74,6.74,0,0,0-.72-2.25l-.49.27.5-.25a6.22,6.22,0,0,0-2.65-2.77,8,8,0,0,0-3.95-1,8.6,8.6,0,0,0-4,.91,9.62,9.62,0,0,0-3.18,2.82l.44.33h.56V148Z" transform="translate(-30.25 -135.18)"/><path class="cls-3" d="M191.74,145.63v.55h1.13V142.5c0-.82,0-1.47.06-1.92h0a2.27,2.27,0,0,1,.3-1h0a1.8,1.8,0,0,1,.68-.66h0a1.9,1.9,0,0,1,1-.26,2,2,0,0,1,1.41.6,1.55,1.55,0,0,1,.51.91h0a10.84,10.84,0,0,1,.13,1.91v4.1h2.46a1.94,1.94,0,0,1,1.32.38,1.16,1.16,0,0,1,.39.93,1.27,1.27,0,0,1-.13.62.9.9,0,0,1-.39.35,4.9,4.9,0,0,1-2.12.36H197v10.12a16.23,16.23,0,0,0,.09,1.94h0a2.49,2.49,0,0,0,.6,1.36,2.1,2.1,0,0,0,1.62.6,7.09,7.09,0,0,0,1.35-.18h0a6.42,6.42,0,0,1,1.11-.15,1,1,0,0,1,.74.34,1.19,1.19,0,0,1,.34.86,1.25,1.25,0,0,1-.24.78,2,2,0,0,1-.82.64,8.75,8.75,0,0,1-3.7.61,6.31,6.31,0,0,1-3.39-.73,3.23,3.23,0,0,1-1.41-1.94,15,15,0,0,1-.37-3.72V148.82h-1.24a1.92,1.92,0,0,1-1.34-.39,1.15,1.15,0,0,1-.41-.94,1.1,1.1,0,0,1,.42-.91,2.13,2.13,0,0,1,1.44-.4v-1.11a3.29,3.29,0,0,0-2.16.65,2.25,2.25,0,0,0-.81,1.77,2.29,2.29,0,0,0,.77,1.77,3,3,0,0,0,2.09.67h.12v9.43a16.31,16.31,0,0,0,.41,4,4.36,4.36,0,0,0,1.89,2.58,7.24,7.24,0,0,0,4,.91,9.77,9.77,0,0,0,4.19-.72,3.15,3.15,0,0,0,1.24-1,2.4,2.4,0,0,0,.44-1.43,2.26,2.26,0,0,0-.66-1.64,2.13,2.13,0,0,0-1.53-.67,6.88,6.88,0,0,0-1.33.17h0a5.62,5.62,0,0,1-1.13.15,1.05,1.05,0,0,1-.8-.22,1.48,1.48,0,0,1-.31-.77h0a15.56,15.56,0,0,1-.08-1.8v-9h.41a5.83,5.83,0,0,0,2.62-.47,2,2,0,0,0,.86-.8,2.44,2.44,0,0,0,.28-1.17,2.32,2.32,0,0,0-.77-1.75,3,3,0,0,0-2.06-.67h-1.34v-3a11.06,11.06,0,0,0-.16-2.13h0a2.69,2.69,0,0,0-.84-1.51,3.08,3.08,0,0,0-2.17-.89,3,3,0,0,0-1.56.41h0a2.82,2.82,0,0,0-1.07,1.07l.48.27-.48-.28a3.52,3.52,0,0,0-.45,1.46h0c0,.51-.07,1.18-.07,2v2.57h0Z" transform="translate(-30.25 -135.18)"/><path class="cls-4" d="M38.51,178a2.43,2.43,0,0,1-.21.94,3.33,3.33,0,0,1-.67,1,3.55,3.55,0,0,1-1.17.79,4.28,4.28,0,0,1-1.66.3,5.78,5.78,0,0,1-1.3-.13,3.58,3.58,0,0,1-1.95-1.18,4.34,4.34,0,0,1-.61-1,4.7,4.7,0,0,1-.38-1.13,5.76,5.76,0,0,1-.13-1.27,5.45,5.45,0,0,1,.32-2,4.18,4.18,0,0,1,.91-1.49,4,4,0,0,1,1.39-.93,4.4,4.4,0,0,1,1.7-.32,4.13,4.13,0,0,1,2,.44A3.44,3.44,0,0,1,38,173.21a2.12,2.12,0,0,1,.46,1.22.84.84,0,0,1-.22.56.71.71,0,0,1-.54.24.75.75,0,0,1-.53-.17,2.12,2.12,0,0,1-.39-.57,2.71,2.71,0,0,0-.85-1,2.07,2.07,0,0,0-1.2-.33A2.15,2.15,0,0,0,33,174a3.85,3.85,0,0,0-.67,2.44,4.52,4.52,0,0,0,.3,1.76,2.24,2.24,0,0,0,.84,1,2.32,2.32,0,0,0,1.27.34,2.24,2.24,0,0,0,1.34-.39,2.39,2.39,0,0,0,.83-1.15,1.91,1.91,0,0,1,.29-.59.64.64,0,0,1,.55-.22.79.79,0,0,1,.8.79Z" transform="translate(-30.25 -135.18)"/><path class="cls-4" d="M38.51,178h-.18a2.17,2.17,0,0,1-.2.87,3.23,3.23,0,0,1-.63.94h0a3.32,3.32,0,0,1-1.11.74,4.07,4.07,0,0,1-1.59.29,5.36,5.36,0,0,1-1.26-.13,3.68,3.68,0,0,1-1-.4,3.28,3.28,0,0,1-.83-.72h0a4.13,4.13,0,0,1-.59-.92,4.83,4.83,0,0,1-.37-1.09,6,6,0,0,1-.12-1.23,5.29,5.29,0,0,1,.31-1.9,3.86,3.86,0,0,1,.87-1.42,3.75,3.75,0,0,1,1.33-.89,4.22,4.22,0,0,1,1.63-.31,4,4,0,0,1,1.88.42,3.26,3.26,0,0,1,1.25,1,2,2,0,0,1,.43,1.11.64.64,0,0,1-.18.44h0a.53.53,0,0,1-.4.18.57.57,0,0,1-.41-.12,1.81,1.81,0,0,1-.35-.53h0a2.86,2.86,0,0,0-.91-1.07,2.19,2.19,0,0,0-1.3-.37,2.36,2.36,0,0,0-1.94.93,4.1,4.1,0,0,0-.71,2.56,4.73,4.73,0,0,0,.31,1.83,2.4,2.4,0,0,0,.91,1.13,2.54,2.54,0,0,0,1.37.37,2.41,2.41,0,0,0,1.45-.42h0a2.62,2.62,0,0,0,.89-1.24h0a1.74,1.74,0,0,1,.26-.53h0a.49.49,0,0,1,.41-.15.61.61,0,0,1,.62.61h.36a.91.91,0,0,0-.29-.69.88.88,0,0,0-.69-.28.84.84,0,0,0-.7.29h0a2.12,2.12,0,0,0-.31.64l.17.06L36.7,178a2.15,2.15,0,0,1-.76,1.07h0a2,2,0,0,1-1.24.36,2.11,2.11,0,0,1-1.17-.32,2,2,0,0,1-.78-1,4.48,4.48,0,0,1-.28-1.69,3.74,3.74,0,0,1,.63-2.33,2,2,0,0,1,1.66-.79,1.88,1.88,0,0,1,1.1.3,2.61,2.61,0,0,1,.79.94h0a2.44,2.44,0,0,0,.42.62.93.93,0,0,0,.66.22.89.89,0,0,0,.67-.3h0a1,1,0,0,0,.27-.68,2.3,2.3,0,0,0-.49-1.32A3.86,3.86,0,0,0,36.8,172a4.57,4.57,0,0,0-2-.45,4.8,4.8,0,0,0-1.77.33,4.09,4.09,0,0,0-1.45,1,4.49,4.49,0,0,0-1,1.54,5.88,5.88,0,0,0-.33,2,6.19,6.19,0,0,0,.13,1.31,5.74,5.74,0,0,0,.39,1.17,4.8,4.8,0,0,0,.64,1h0a3.63,3.63,0,0,0,2.05,1.24,5.57,5.57,0,0,0,1.34.14,4.45,4.45,0,0,0,1.73-.31,3.53,3.53,0,0,0,1.23-.84h0a3.57,3.57,0,0,0,.71-1,2.56,2.56,0,0,0,.22-1Z" transform="translate(-30.25 -135.18)"/><path class="cls-4" d="M45.54,171.69a4.87,4.87,0,0,1,2.42.57,3.71,3.71,0,0,1,1.53,1.63,5.59,5.59,0,0,1,.52,2.47,6,6,0,0,1-.29,1.91,4.06,4.06,0,0,1-.85,1.49,3.75,3.75,0,0,1-1.4,1,5.08,5.08,0,0,1-1.9.33,5,5,0,0,1-1.9-.34,3.82,3.82,0,0,1-1.41-1,4.41,4.41,0,0,1-.85-1.5,6.15,6.15,0,0,1-.28-1.9,5.86,5.86,0,0,1,.3-1.92A4.11,4.11,0,0,1,42.3,173a3.72,3.72,0,0,1,1.38-.94A4.94,4.94,0,0,1,45.54,171.69Zm2.61,4.66a4.38,4.38,0,0,0-.32-1.73,2.37,2.37,0,0,0-2.29-1.47,2.44,2.44,0,0,0-1,.2,2.17,2.17,0,0,0-.8.61,2.77,2.77,0,0,0-.54,1,4.56,4.56,0,0,0-.19,1.38,4.69,4.69,0,0,0,.19,1.4,3,3,0,0,0,.55,1,2.32,2.32,0,0,0,.82.62,2.4,2.4,0,0,0,1,.2,2.37,2.37,0,0,0,2.24-1.44A4.23,4.23,0,0,0,48.15,176.35Z" transform="translate(-30.25 -135.18)"/><path class="cls-4" d="M45.54,171.69v.18a4.59,4.59,0,0,1,2.33.55A3.53,3.53,0,0,1,49.33,174a5.37,5.37,0,0,1,.5,2.39,6,6,0,0,1-.28,1.86,3.9,3.9,0,0,1-.81,1.42,3.61,3.61,0,0,1-1.34.92,4.87,4.87,0,0,1-1.83.32,4.74,4.74,0,0,1-1.83-.33h0a3.56,3.56,0,0,1-1.34-.92,3.83,3.83,0,0,1-.81-1.44,5.72,5.72,0,0,1-.28-1.84,5.5,5.5,0,0,1,.29-1.86,3.92,3.92,0,0,1,.83-1.42,3.58,3.58,0,0,1,1.32-.89,4.73,4.73,0,0,1,1.79-.31v-.36a5.35,5.35,0,0,0-1.93.33,4,4,0,0,0-2.35,2.53,6,6,0,0,0-.31,2,6.24,6.24,0,0,0,.29,2,4.36,4.36,0,0,0,.89,1.56,4,4,0,0,0,1.47,1h0a5.16,5.16,0,0,0,2,.35,5.29,5.29,0,0,0,2-.34,3.82,3.82,0,0,0,1.46-1,4.19,4.19,0,0,0,.9-1.55,6.42,6.42,0,0,0,.29-2,5.7,5.7,0,0,0-.54-2.55,3.89,3.89,0,0,0-1.6-1.71,5,5,0,0,0-2.51-.59Zm2.61,4.66h.18a4.41,4.41,0,0,0-.34-1.8,2.57,2.57,0,0,0-1-1.18,2.7,2.7,0,0,0-1.46-.41,2.63,2.63,0,0,0-1.09.23,2.43,2.43,0,0,0-.87.65,3,3,0,0,0-.57,1.07,4.64,4.64,0,0,0-.2,1.44,4.75,4.75,0,0,0,.2,1.45,3,3,0,0,0,.59,1.1h0a2.35,2.35,0,0,0,.88.66h0a2.58,2.58,0,0,0,1.08.22,2.68,2.68,0,0,0,1.39-.37h0a2.59,2.59,0,0,0,1-1.17,4.33,4.33,0,0,0,.37-1.89H48a3.94,3.94,0,0,1-.34,1.73,2.27,2.27,0,0,1-.87,1h0a2.34,2.34,0,0,1-1.2.32,2.26,2.26,0,0,1-.94-.19h0a2,2,0,0,1-.75-.57h0a2.55,2.55,0,0,1-.51-1,4.25,4.25,0,0,1-.19-1.34,4.19,4.19,0,0,1,.19-1.33,2.83,2.83,0,0,1,.49-1,2.2,2.2,0,0,1,.74-.55,2.27,2.27,0,0,1,.95-.19,2.34,2.34,0,0,1,1.27.34,2.19,2.19,0,0,1,.85,1,4.12,4.12,0,0,1,.31,1.65Z" transform="translate(-30.25 -135.18)"/><path class="cls-4" d="M53,177.16V172.8a1.22,1.22,0,0,1,.25-.84.84.84,0,0,1,.66-.27.86.86,0,0,1,.67.27,1.22,1.22,0,0,1,.25.84v4.46a4.15,4.15,0,0,0,.17,1.27,1.51,1.51,0,0,0,.61.79,2.19,2.19,0,0,0,1.21.28,1.82,1.82,0,0,0,1.52-.57,2.77,2.77,0,0,0,.45-1.73v-4.5A1.26,1.26,0,0,1,59,172a.87.87,0,0,1,.66-.27.91.91,0,0,1,.68.27,1.21,1.21,0,0,1,.25.84v4.36a6.88,6.88,0,0,1-.2,1.78,2.67,2.67,0,0,1-.79,1.24,3,3,0,0,1-1.15.67,5,5,0,0,1-1.53.21,6.33,6.33,0,0,1-1.8-.22,3,3,0,0,1-1.23-.7,2.84,2.84,0,0,1-.7-1.21A6.2,6.2,0,0,1,53,177.16Z" transform="translate(-30.25 -135.18)"/><path class="cls-4" d="M53,177.16h.18V172.8a1,1,0,0,1,.2-.71.65.65,0,0,1,.53-.22.66.66,0,0,1,.54.22,1,1,0,0,1,.2.71v4.46a4.32,4.32,0,0,0,.18,1.33,1.71,1.71,0,0,0,.68.88h0a2.33,2.33,0,0,0,1.31.31,2,2,0,0,0,1.66-.64A2.92,2.92,0,0,0,59,177.3v-4.5a1,1,0,0,1,.2-.72.76.76,0,0,1,1.06,0h0a1,1,0,0,1,.21.72v4.36a6.29,6.29,0,0,1-.2,1.72,2.55,2.55,0,0,1-.73,1.17h0a2.8,2.8,0,0,1-1.08.63,5,5,0,0,1-1.48.2,5.92,5.92,0,0,1-1.75-.22A2.63,2.63,0,0,1,54,180a2.57,2.57,0,0,1-.66-1.14,6.05,6.05,0,0,1-.21-1.71H52.8A6.2,6.2,0,0,0,53,179a3,3,0,0,0,.74,1.29,3.06,3.06,0,0,0,1.31.74,6.36,6.36,0,0,0,1.85.23,5.14,5.14,0,0,0,1.59-.22,3.17,3.17,0,0,0,1.22-.7h0a3,3,0,0,0,.83-1.33,6.87,6.87,0,0,0,.21-1.83V172.8a1.38,1.38,0,0,0-.3-1h0a1,1,0,0,0-.81-.33,1,1,0,0,0-.79.33,1.38,1.38,0,0,0-.3,1v4.5a2.57,2.57,0,0,1-.4,1.62,1.64,1.64,0,0,1-1.38.5,2,2,0,0,1-1.11-.25h0a1.25,1.25,0,0,1-.53-.7,3.7,3.7,0,0,1-.17-1.21V172.8a1.4,1.4,0,0,0-.29-1,1,1,0,0,0-.81-.33,1,1,0,0,0-.8.33,1.4,1.4,0,0,0-.29,1v4.36Z" transform="translate(-30.25 -135.18)"/><path class="cls-4" d="M66.37,172.79l3.53,5.34v-5.39a1.18,1.18,0,0,1,.23-.79.74.74,0,0,1,.61-.26.76.76,0,0,1,.62.26,1.13,1.13,0,0,1,.23.79v7.13c0,.8-.33,1.19-1,1.19a1.23,1.23,0,0,1-.44-.07,1.17,1.17,0,0,1-.37-.22,2.35,2.35,0,0,1-.33-.37l-.29-.42-3.45-5.28V180a1.15,1.15,0,0,1-.24.79.82.82,0,0,1-.62.26.78.78,0,0,1-.62-.27A1.14,1.14,0,0,1,64,180v-7a2.12,2.12,0,0,1,.1-.7,1,1,0,0,1,.39-.46,1.12,1.12,0,0,1,.59-.17.9.9,0,0,1,.42.08,1,1,0,0,1,.31.21,1.87,1.87,0,0,1,.27.36C66.18,172.48,66.27,172.63,66.37,172.79Z" transform="translate(-30.25 -135.18)"/><path class="cls-4" d="M66.37,172.79l-.15.1,3.86,5.84v-6a1,1,0,0,1,.19-.67.54.54,0,0,1,.47-.2.59.59,0,0,1,.49.2,1,1,0,0,1,.18.67v7.13a1.26,1.26,0,0,1-.2.78.74.74,0,0,1-.61.23,1.08,1.08,0,0,1-.38-.06h0a.93.93,0,0,1-.31-.19h0a1.6,1.6,0,0,1-.3-.33h0l-.29-.42-.15.1.15-.1-3.78-5.79V180a1,1,0,0,1-.19.67.61.61,0,0,1-.49.2.61.61,0,0,1-.49-.21,1,1,0,0,1-.19-.66v-7a1.94,1.94,0,0,1,.09-.64l-.17-.06.17.07a.89.89,0,0,1,.32-.38h0a.87.87,0,0,1,.49-.14.88.88,0,0,1,.35.06h0a.76.76,0,0,1,.25.18h0a2.39,2.39,0,0,1,.25.32c.09.15.19.3.29.45h0l.15-.1.16-.1-.29-.45a2.52,2.52,0,0,0-.3-.38h0a1,1,0,0,0-.36-.26h0a1.35,1.35,0,0,0-.5-.09,1.23,1.23,0,0,0-.69.2h0a1.13,1.13,0,0,0-.45.54h0a2.37,2.37,0,0,0-.11.77v7a1.35,1.35,0,0,0,.28.9,1,1,0,0,0,.76.33,1,1,0,0,0,.76-.32,1.32,1.32,0,0,0,.28-.91v-4.7L69,180.08h0l.3.43h0a1.88,1.88,0,0,0,.35.39h0a1.13,1.13,0,0,0,.43.26h0a1.35,1.35,0,0,0,.5.08,1,1,0,0,0,.88-.36,1.52,1.52,0,0,0,.29-1v-7.13a1.35,1.35,0,0,0-.27-.91.94.94,0,0,0-.76-.32.91.91,0,0,0-.75.32,1.35,1.35,0,0,0-.27.91v4.79l-3.2-4.84-.15.1.16-.1Z" transform="translate(-30.25 -135.18)"/><path class="cls-4" d="M80.88,173.36h-2v6.58a1.23,1.23,0,0,1-.26.85.86.86,0,0,1-.65.27.85.85,0,0,1-.67-.28,1.19,1.19,0,0,1-.26-.84v-6.58H75a1,1,0,0,1-.7-.21.77.77,0,0,1,0-1.11,1.07,1.07,0,0,1,.69-.2h5.84a1,1,0,0,1,.71.21.72.72,0,0,1,.23.55.69.69,0,0,1-.24.55A1,1,0,0,1,80.88,173.36Z" transform="translate(-30.25 -135.18)"/><path class="cls-4" d="M80.88,173.36v-.18H78.69v6.76a1,1,0,0,1-.2.72h0a.66.66,0,0,1-.52.22.67.67,0,0,1-.54-.22,1.09,1.09,0,0,1-.2-.72v-6.76H75a.83.83,0,0,1-.58-.17.54.54,0,0,1-.17-.41.55.55,0,0,1,.18-.42A.84.84,0,0,1,75,172h5.84a.86.86,0,0,1,.59.17.52.52,0,0,1,.17.41.48.48,0,0,1-.18.41.82.82,0,0,1-.58.17v.36a1.19,1.19,0,0,0,.82-.26.87.87,0,0,0,.3-.68.89.89,0,0,0-.29-.68,1.17,1.17,0,0,0-.83-.26H75a1.19,1.19,0,0,0-.81.25.94.94,0,0,0,0,1.37,1.19,1.19,0,0,0,.82.26h1.82v6.4a1.38,1.38,0,0,0,.31,1,1,1,0,0,0,.8.33,1,1,0,0,0,.78-.33h0a1.35,1.35,0,0,0,.31-1v-6.4h1.82Z" transform="translate(-30.25 -135.18)"/><path class="cls-4" d="M84.37,179.94V172.8a1.22,1.22,0,0,1,.25-.84A1,1,0,0,1,86,172a1.21,1.21,0,0,1,.26.84v7.14a1.19,1.19,0,0,1-.26.84.85.85,0,0,1-.67.28.83.83,0,0,1-.65-.28A1.22,1.22,0,0,1,84.37,179.94Z" transform="translate(-30.25 -135.18)"/><path class="cls-4" d="M84.37,179.94h.18V172.8a1,1,0,0,1,.21-.71.65.65,0,0,1,.52-.22.7.7,0,0,1,.54.21,1,1,0,0,1,.21.72v7.14a1,1,0,0,1-.21.72.67.67,0,0,1-.54.22.66.66,0,0,1-.52-.22,1,1,0,0,1-.21-.72h-.36a1.38,1.38,0,0,0,.3,1,1,1,0,0,0,.79.34,1,1,0,0,0,.8-.33,1.38,1.38,0,0,0,.31-1V172.8a1.34,1.34,0,0,0-.31-1,1,1,0,0,0-.8-.33,1,1,0,0,0-.79.33,1.4,1.4,0,0,0-.3,1v7.14Z" transform="translate(-30.25 -135.18)"/><path class="cls-4" d="M92,172.79l3.54,5.34v-5.39a1.18,1.18,0,0,1,.22-.79.75.75,0,0,1,.61-.26A.79.79,0,0,1,97,172a1.18,1.18,0,0,1,.22.79v7.13c0,.8-.33,1.19-1,1.19a1.23,1.23,0,0,1-.44-.07,1.17,1.17,0,0,1-.37-.22,2.3,2.3,0,0,1-.32-.37l-.3-.42L91.4,174.7V180a1.15,1.15,0,0,1-.25.79.86.86,0,0,1-1.24,0,1.14,1.14,0,0,1-.23-.78v-7a2.16,2.16,0,0,1,.09-.7,1,1,0,0,1,.39-.46,1.15,1.15,0,0,1,.59-.17.94.94,0,0,1,.43.08.9.9,0,0,1,.3.21,2.38,2.38,0,0,1,.28.36C91.85,172.48,92,172.63,92,172.79Z" transform="translate(-30.25 -135.18)"/><path class="cls-4" d="M92,172.79l-.15.1,3.87,5.84v-6a1,1,0,0,1,.18-.67.56.56,0,0,1,.47-.2.58.58,0,0,1,.49.2,1,1,0,0,1,.18.67v7.13a1.26,1.26,0,0,1-.2.78.74.74,0,0,1-.61.23,1.12,1.12,0,0,1-.38-.06h0a.93.93,0,0,1-.31-.19h0a1.94,1.94,0,0,1-.3-.33h0l-.29-.42-.15.1.15-.1-3.78-5.79V180a1,1,0,0,1-.19.67.61.61,0,0,1-.48.2.59.59,0,0,1-.49-.21.94.94,0,0,1-.19-.66v-7a2,2,0,0,1,.08-.64l-.17-.06.17.07a1,1,0,0,1,.32-.38.89.89,0,0,1,.49-.14.85.85,0,0,1,.35.06h0a.76.76,0,0,1,.25.18h0a2.41,2.41,0,0,1,.24.32l.29.45h0l.15-.1.16-.1-.29-.45a2.52,2.52,0,0,0-.3-.38h0a1,1,0,0,0-.36-.26h0a1.31,1.31,0,0,0-.5-.09,1.18,1.18,0,0,0-.68.2,1.15,1.15,0,0,0-.46.54h0a2.11,2.11,0,0,0-.12.77v7a1.35,1.35,0,0,0,.28.9,1,1,0,0,0,.77.33,1,1,0,0,0,.75-.32,1.33,1.33,0,0,0,.29-.91v-4.7l3.11,4.77h0l.3.43h0a2.21,2.21,0,0,0,.35.39h0a1.13,1.13,0,0,0,.43.26h0a1.35,1.35,0,0,0,.5.08,1.08,1.08,0,0,0,.89-.36,1.58,1.58,0,0,0,.29-1v-7.13a1.36,1.36,0,0,0-.28-.91,1.05,1.05,0,0,0-1.51,0,1.35,1.35,0,0,0-.26.91v4.79l-3.2-4.84-.16.1.16-.1Z" transform="translate(-30.25 -135.18)"/><path class="cls-4" d="M109,177.22V179a2,2,0,0,1-.07.55.93.93,0,0,1-.25.38,2.56,2.56,0,0,1-.47.32,7.55,7.55,0,0,1-1.58.65,6.24,6.24,0,0,1-1.66.2,5.32,5.32,0,0,1-1.91-.32,3.89,3.89,0,0,1-1.46-.93,4,4,0,0,1-.93-1.49,5.46,5.46,0,0,1-.33-1.95,5.66,5.66,0,0,1,.32-1.93,3.93,3.93,0,0,1,.93-1.49A4,4,0,0,1,103,172a5.62,5.62,0,0,1,2-.32,5,5,0,0,1,1.62.24,3.42,3.42,0,0,1,1.14.62,2.48,2.48,0,0,1,.66.78,1.6,1.6,0,0,1,.23.74.79.79,0,0,1-.26.59.89.89,0,0,1-1,.15.83.83,0,0,1-.3-.26,7.42,7.42,0,0,0-.58-.8,1.61,1.61,0,0,0-.63-.46,2.35,2.35,0,0,0-1-.19,3,3,0,0,0-1.14.22,2.33,2.33,0,0,0-.85.64,2.94,2.94,0,0,0-.55,1,4.73,4.73,0,0,0-.19,1.35,3.66,3.66,0,0,0,.74,2.45,2.55,2.55,0,0,0,2,.86,4.24,4.24,0,0,0,1.2-.17,6.31,6.31,0,0,0,1.13-.47v-1.47h-1.42a1.62,1.62,0,0,1-.78-.16.57.57,0,0,1-.26-.53.65.65,0,0,1,.22-.5.88.88,0,0,1,.6-.19h2.08a3,3,0,0,1,.65.06.74.74,0,0,1,.43.31A1.2,1.2,0,0,1,109,177.22Z" transform="translate(-30.25 -135.18)"/><path class="cls-4" d="M109,177.22h-.19V179a1.57,1.57,0,0,1-.06.5.59.59,0,0,1-.2.29,2,2,0,0,1-.43.3,7,7,0,0,1-1.54.63,5.87,5.87,0,0,1-1.61.2,5.11,5.11,0,0,1-1.84-.31,3.69,3.69,0,0,1-1.4-.89,3.9,3.9,0,0,1-.89-1.42,5.35,5.35,0,0,1-.32-1.89,5.56,5.56,0,0,1,.31-1.87,3.8,3.8,0,0,1,.88-1.42,4,4,0,0,1,1.43-.9,5.47,5.47,0,0,1,1.93-.31,4.93,4.93,0,0,1,1.56.23,3.83,3.83,0,0,1,1.09.58,2.55,2.55,0,0,1,.61.74,1.46,1.46,0,0,1,.21.65.69.69,0,0,1-.2.46.71.71,0,0,1-.5.19.59.59,0,0,1-.29-.07h0a.72.72,0,0,1-.25-.21l-.14.11.15-.1a6.62,6.62,0,0,0-.59-.82,2.14,2.14,0,0,0-.69-.51,2.77,2.77,0,0,0-1.1-.2,3,3,0,0,0-1.21.24,2.38,2.38,0,0,0-.92.68,3,3,0,0,0-.58,1.09,4.73,4.73,0,0,0-.2,1.4,3.85,3.85,0,0,0,.78,2.57,2.75,2.75,0,0,0,2.18.92,4.6,4.6,0,0,0,1.25-.17,6.47,6.47,0,0,0,1.17-.49l.09,0v-1.77h-1.6a1.27,1.27,0,0,1-.68-.13h0c-.12-.07-.17-.16-.18-.37a.45.45,0,0,1,.16-.36.67.67,0,0,1,.48-.15h2.08a2.56,2.56,0,0,1,.61.06.6.6,0,0,1,.32.23,1,1,0,0,1,.13.6h.37a1.43,1.43,0,0,0-.2-.81.94.94,0,0,0-.53-.37,2.87,2.87,0,0,0-.7-.08h-2.08a1.05,1.05,0,0,0-.72.25.84.84,0,0,0-.28.63.78.78,0,0,0,.35.69h0a1.82,1.82,0,0,0,.87.18h1.24V179h.18l-.08-.16a6.3,6.3,0,0,1-1.1.46,3.9,3.9,0,0,1-1.15.16,2.38,2.38,0,0,1-1.91-.8,3.56,3.56,0,0,1-.69-2.33,4.27,4.27,0,0,1,.19-1.29,2.72,2.72,0,0,1,.5-1,2.11,2.11,0,0,1,.8-.59,2.51,2.51,0,0,1,1.06-.21,2.19,2.19,0,0,1,.94.17,1.92,1.92,0,0,1,.58.41c.14.17.33.44.56.79h0a1.1,1.1,0,0,0,.37.31h0a1,1,0,0,0,.46.11,1.1,1.1,0,0,0,.75-.29,1,1,0,0,0,.31-.72,1.72,1.72,0,0,0-.25-.82,2.85,2.85,0,0,0-.7-.84,3.8,3.8,0,0,0-1.2-.65,5.2,5.2,0,0,0-1.68-.25,6.06,6.06,0,0,0-2.06.33,4.36,4.36,0,0,0-1.55,1,4.16,4.16,0,0,0-1,1.56,5.81,5.81,0,0,0-.33,2,5.67,5.67,0,0,0,.34,2,4.21,4.21,0,0,0,1,1.54,4.07,4.07,0,0,0,1.53,1,5.66,5.66,0,0,0,2,.33,6.54,6.54,0,0,0,1.7-.21,7.54,7.54,0,0,0,1.63-.66,2.45,2.45,0,0,0,.5-.35,1.11,1.11,0,0,0,.3-.45,2.15,2.15,0,0,0,.08-.61v-1.74Z" transform="translate(-30.25 -135.18)"/><path class="cls-4" d="M124.36,178a2.29,2.29,0,0,1-.22.94,3.15,3.15,0,0,1-.67,1,3.35,3.35,0,0,1-1.17.79,4.19,4.19,0,0,1-1.65.3,5.87,5.87,0,0,1-1.31-.13,3.75,3.75,0,0,1-1.07-.43,3.62,3.62,0,0,1-.88-.75,4.83,4.83,0,0,1-1-2.09,6.43,6.43,0,0,1-.13-1.27,5.67,5.67,0,0,1,.32-2,4.33,4.33,0,0,1,.91-1.49,3.9,3.9,0,0,1,1.4-.93,4.36,4.36,0,0,1,1.7-.32,4.19,4.19,0,0,1,2,.44,3.59,3.59,0,0,1,1.32,1.08,2.17,2.17,0,0,1,.45,1.22.79.79,0,0,1-.22.56.71.71,0,0,1-.54.24.77.77,0,0,1-.53-.17,2.37,2.37,0,0,1-.39-.57,2.78,2.78,0,0,0-.84-1,2.33,2.33,0,0,0-3,.53,3.85,3.85,0,0,0-.67,2.44,4.53,4.53,0,0,0,.29,1.76,2.24,2.24,0,0,0,.84,1,2.36,2.36,0,0,0,1.28.34,2.26,2.26,0,0,0,1.34-.39,2.37,2.37,0,0,0,.82-1.15,2.16,2.16,0,0,1,.29-.59.66.66,0,0,1,.56-.22.73.73,0,0,1,.56.23A.74.74,0,0,1,124.36,178Z" transform="translate(-30.25 -135.18)"/><path class="cls-4" d="M124.36,178h-.18a2.35,2.35,0,0,1-.2.87,3.49,3.49,0,0,1-.64.94,3.13,3.13,0,0,1-1.11.74,4,4,0,0,1-1.58.29,5.51,5.51,0,0,1-1.27-.13,3.61,3.61,0,0,1-1-.4,3.5,3.5,0,0,1-.84-.72h0a4.52,4.52,0,0,1-.59-.92,4.81,4.81,0,0,1-.36-1.09,6,6,0,0,1-.13-1.23,5.52,5.52,0,0,1,.31-1.9,4.14,4.14,0,0,1,.87-1.42,3.75,3.75,0,0,1,1.33-.89,4.27,4.27,0,0,1,1.64-.31,4.07,4.07,0,0,1,1.88.42,3.33,3.33,0,0,1,1.25,1,2,2,0,0,1,.42,1.11.63.63,0,0,1-.17.44.63.63,0,0,1-.81.06,2,2,0,0,1-.36-.53,2.93,2.93,0,0,0-.9-1.07,2.23,2.23,0,0,0-1.3-.37,2.39,2.39,0,0,0-2,.93,4.1,4.1,0,0,0-.71,2.56,4.54,4.54,0,0,0,.32,1.83,2.35,2.35,0,0,0,.91,1.13,2.49,2.49,0,0,0,1.37.37,2.4,2.4,0,0,0,1.44-.42,2.56,2.56,0,0,0,.89-1.24h0a2,2,0,0,1,.27-.53.48.48,0,0,1,.41-.15.57.57,0,0,1,.44.18.6.6,0,0,1,.18.43h.36a.94.94,0,0,0-.29-.69.91.91,0,0,0-.69-.28.83.83,0,0,0-.7.29,2.13,2.13,0,0,0-.32.64l.17.06-.17-.07a2.09,2.09,0,0,1-.76,1.07,2,2,0,0,1-1.23.36,2.15,2.15,0,0,1-1.18-.32,2,2,0,0,1-.77-1,4.29,4.29,0,0,1-.28-1.69,3.74,3.74,0,0,1,.63-2.33,2,2,0,0,1,1.66-.79,1.85,1.85,0,0,1,1.09.3,2.52,2.52,0,0,1,.79.94,2.43,2.43,0,0,0,.43.62.89.89,0,0,0,.65.22.86.86,0,0,0,.67-.3,1,1,0,0,0,.27-.68,2.3,2.3,0,0,0-.49-1.32,3.78,3.78,0,0,0-1.38-1.15,4.53,4.53,0,0,0-2-.45,4.72,4.72,0,0,0-1.77.33,4.13,4.13,0,0,0-1.46,1,4.49,4.49,0,0,0-1,1.54,5.88,5.88,0,0,0-.33,2,6.93,6.93,0,0,0,.13,1.31,5.21,5.21,0,0,0,.4,1.17,4.77,4.77,0,0,0,.63,1h0a3.47,3.47,0,0,0,.92.8,3.79,3.79,0,0,0,1.12.44,5.71,5.71,0,0,0,1.35.14,4.4,4.4,0,0,0,1.72-.31,3.44,3.44,0,0,0,1.23-.84,3.38,3.38,0,0,0,.71-1,2.58,2.58,0,0,0,.23-1Z" transform="translate(-30.25 -135.18)"/><path class="cls-4" d="M129.24,172.8v2.6h4v-2.6a1.22,1.22,0,0,1,.25-.84.84.84,0,0,1,.66-.27.89.89,0,0,1,.67.27,1.21,1.21,0,0,1,.25.84v7.14a1.14,1.14,0,0,1-.26.84.93.93,0,0,1-1.33,0,1.28,1.28,0,0,1-.24-.84v-3.05h-4v3.05a1.19,1.19,0,0,1-.26.84.93.93,0,0,1-1.33,0,1.28,1.28,0,0,1-.25-.84V172.8a1.28,1.28,0,0,1,.25-.84.84.84,0,0,1,.66-.27.87.87,0,0,1,.67.27A1.16,1.16,0,0,1,129.24,172.8Z" transform="translate(-30.25 -135.18)"/><path class="cls-4" d="M129.24,172.8h-.18v2.78h4.33V172.8a1,1,0,0,1,.2-.71.65.65,0,0,1,.53-.22.68.68,0,0,1,.53.21,1,1,0,0,1,.21.72v7.14a1,1,0,0,1-.21.72.67.67,0,0,1-.53.22.64.64,0,0,1-.53-.22,1,1,0,0,1-.2-.72v-3.23h-4.33v3.23a1,1,0,0,1-.21.72.69.69,0,0,1-.54.22.63.63,0,0,1-.52-.22,1,1,0,0,1-.2-.72V172.8a1.09,1.09,0,0,1,.19-.72.66.66,0,0,1,.53-.21.7.7,0,0,1,.54.21,1,1,0,0,1,.21.72h.36a1.38,1.38,0,0,0-.3-1,1,1,0,0,0-.81-.33,1,1,0,0,0-.8.34,1.4,1.4,0,0,0-.29,1v7.14a1.38,1.38,0,0,0,.3,1,1,1,0,0,0,.79.34,1,1,0,0,0,.8-.33,1.37,1.37,0,0,0,.31-1v-2.86H133v2.86a1.38,1.38,0,0,0,.29,1,1,1,0,0,0,.8.34,1,1,0,0,0,.8-.33,1.41,1.41,0,0,0,.3-1V172.8a1.38,1.38,0,0,0-.3-1,1,1,0,0,0-.8-.33,1,1,0,0,0-.8.33,1.4,1.4,0,0,0-.29,1v2.42h-3.61V172.8Z" transform="translate(-30.25 -135.18)"/><path class="cls-4" d="M144.21,179.88l-.44-1.14h-3.68l-.44,1.17a3.52,3.52,0,0,1-.43.91.68.68,0,0,1-.59.24.85.85,0,0,1-.61-.25.76.76,0,0,1-.26-.58,1.31,1.31,0,0,1,.06-.38c0-.13.11-.31.2-.55l2.32-5.89c.07-.17.15-.37.24-.61a3,3,0,0,1,.3-.59,1.25,1.25,0,0,1,.41-.38,1.22,1.22,0,0,1,.63-.14,1.24,1.24,0,0,1,.64.14,1.19,1.19,0,0,1,.42.38,3.27,3.27,0,0,1,.27.49c.07.17.16.41.27.7l2.37,5.85a3.15,3.15,0,0,1,.28,1,.81.81,0,0,1-.27.58.82.82,0,0,1-.63.26.84.84,0,0,1-.37-.07,1.09,1.09,0,0,1-.26-.21,2.06,2.06,0,0,1-.23-.41C144.33,180.18,144.26,180,144.21,179.88Zm-3.64-2.52h2.71l-1.37-3.74Z" transform="translate(-30.25 -135.18)"/><path class="cls-4" d="M144.21,179.88l.17-.06-.48-1.26H140l-.48,1.28a4.27,4.27,0,0,1-.4.88.53.53,0,0,1-.45.16.67.67,0,0,1-.48-.2.59.59,0,0,1-.21-.45,1,1,0,0,1,.05-.33c0-.12.11-.3.2-.53h0l2.32-5.89c.07-.17.14-.37.24-.61a2.64,2.64,0,0,1,.28-.56,1,1,0,0,1,.35-.32,1.08,1.08,0,0,1,.54-.12,1.11,1.11,0,0,1,.56.12,1,1,0,0,1,.35.32,2.25,2.25,0,0,1,.25.46l.27.69h0l2.37,5.85h0a3,3,0,0,1,.27.9.61.61,0,0,1-.21.45.66.66,0,0,1-.51.21.6.6,0,0,1-.29-.06l-.2-.16a1.84,1.84,0,0,1-.2-.37l-.21-.48-.16.07.17-.06-.17.06L144,180l.21.49a1.85,1.85,0,0,0,.25.45.92.92,0,0,0,.32.26,1.1,1.1,0,0,0,.45.09,1,1,0,0,0,.76-.31,1,1,0,0,0,.32-.71,3.24,3.24,0,0,0-.29-1l-.17.07.17-.07-2.37-5.85-.17.07.17-.06c-.11-.3-.2-.53-.28-.71a2.69,2.69,0,0,0-.28-.53,1.43,1.43,0,0,0-.48-.43,1.72,1.72,0,0,0-1.45,0,1.41,1.41,0,0,0-.47.44,3.08,3.08,0,0,0-.32.63l-.24.61-2.32,5.88h0l-.21.57a1.61,1.61,0,0,0-.07.43,1,1,0,0,0,.33.71,1,1,0,0,0,.73.3.85.85,0,0,0,.74-.31,4.16,4.16,0,0,0,.45-1l.39-1.05h3.44l.39,1h0Zm-3.64-2.52v.19h3l-1.63-4.46-1.6,4.46h.26v-.19l.17.07,1.17-3.28,1.11,3h-2.45v.18l.17.07Z" transform="translate(-30.25 -135.18)"/><path class="cls-4" d="M151.37,177h-.65v2.91a1.2,1.2,0,0,1-.25.85.87.87,0,0,1-.66.27.83.83,0,0,1-.68-.28,1.28,1.28,0,0,1-.25-.84v-7a1.15,1.15,0,0,1,.27-.86,1.17,1.17,0,0,1,.86-.27h3c.41,0,.76,0,1.06,0a2.79,2.79,0,0,1,.79.22,2.38,2.38,0,0,1,.75.51,2.13,2.13,0,0,1,.5.78,2.6,2.6,0,0,1,.17.93,2.26,2.26,0,0,1-.57,1.62,3.24,3.24,0,0,1-1.74.86,3.47,3.47,0,0,1,.94.77,8.3,8.3,0,0,1,.79,1.08,9,9,0,0,1,.55,1,2,2,0,0,1,.19.64.68.68,0,0,1-.11.35.8.8,0,0,1-.32.28,1,1,0,0,1-1,0,1.41,1.41,0,0,1-.36-.37c-.11-.15-.24-.37-.42-.66l-.73-1.22a7.37,7.37,0,0,0-.71-1,1.89,1.89,0,0,0-.63-.48A2.15,2.15,0,0,0,151.37,177Zm1-3.81h-1.7v2.49h1.65a5,5,0,0,0,1.11-.11,1.37,1.37,0,0,0,.69-.39,1.12,1.12,0,0,0,.24-.76,1.22,1.22,0,0,0-.19-.66,1.1,1.1,0,0,0-.54-.43A3.74,3.74,0,0,0,152.42,173.22Z" transform="translate(-30.25 -135.18)"/><path class="cls-4" d="M151.37,177v-.18h-.83v3.09a1.08,1.08,0,0,1-.2.73.69.69,0,0,1-.53.21.66.66,0,0,1-.55-.22,1.09,1.09,0,0,1-.19-.72v-7A.79.79,0,0,1,150,172h3a9.84,9.84,0,0,1,1,0,2.58,2.58,0,0,1,.74.2h0a2,2,0,0,1,.69.48,2,2,0,0,1,.46.71,2.32,2.32,0,0,1,.16.87,2.1,2.1,0,0,1-.52,1.5,3.16,3.16,0,0,1-1.65.81l-.48.1.44.23a3.05,3.05,0,0,1,.88.73,7.93,7.93,0,0,1,.78,1.05,9.23,9.23,0,0,1,.53,1,2.06,2.06,0,0,1,.18.57.39.39,0,0,1-.09.25h0a.57.57,0,0,1-.24.22.81.81,0,0,1-.37.08.72.72,0,0,1-.42-.11h0a1.39,1.39,0,0,1-.32-.32c-.09-.15-.23-.36-.4-.65l-.74-1.22h0a6.38,6.38,0,0,0-.72-1.06,2,2,0,0,0-.71-.53,2.27,2.27,0,0,0-.87-.14v.36a1.91,1.91,0,0,1,.74.12,1.48,1.48,0,0,1,.56.43,6.41,6.41,0,0,1,.69,1l.74,1.23q.26.44.42.66a1.61,1.61,0,0,0,.4.42h0a1.26,1.26,0,0,0,1.17.05,1,1,0,0,0,.38-.34h0a.82.82,0,0,0,.14-.45,2.1,2.1,0,0,0-.21-.71,7.69,7.69,0,0,0-.55-1.05,7.94,7.94,0,0,0-.82-1.11,3.64,3.64,0,0,0-1-.81l-.09.16,0,.18a3.44,3.44,0,0,0,1.83-.91,2.45,2.45,0,0,0,.62-1.75,2.81,2.81,0,0,0-.18-1,2.33,2.33,0,0,0-.54-.84,2.48,2.48,0,0,0-.81-.55l-.07.17.07-.17a3,3,0,0,0-.84-.23c-.31,0-.66-.05-1.08-.05h-3a1.35,1.35,0,0,0-1,.32,1.39,1.39,0,0,0-.32,1v7a1.45,1.45,0,0,0,.29,1,1.13,1.13,0,0,0,1.61,0,1.39,1.39,0,0,0,.3-1v-2.73h.47Zm1-3.81V173h-1.88v2.85h1.83a4.45,4.45,0,0,0,1.16-.12,1.54,1.54,0,0,0,.78-.44,1.35,1.35,0,0,0,.28-.88,1.32,1.32,0,0,0-.84-1.26h0a3.9,3.9,0,0,0-1.34-.15v.36a3.81,3.81,0,0,1,1.19.12h0a1,1,0,0,1,.46.37,1,1,0,0,1,.16.56.91.91,0,0,1-.2.64,1.12,1.12,0,0,1-.59.33,4.51,4.51,0,0,1-1.07.11H150.9V173.4h1.52Z" transform="translate(-30.25 -135.18)"/><path class="cls-4" d="M165.19,179.88l-.43-1.14h-3.69l-.43,1.17a3.89,3.89,0,0,1-.43.91.69.69,0,0,1-.59.24.84.84,0,0,1-.61-.25.77.77,0,0,1-.27-.58,1.31,1.31,0,0,1,.06-.38c0-.13.11-.31.21-.55l2.32-5.89c.06-.17.14-.37.23-.61a4.59,4.59,0,0,1,.3-.59,1.29,1.29,0,0,1,.42-.38,1.22,1.22,0,0,1,.63-.14,1.24,1.24,0,0,1,.64.14,1.15,1.15,0,0,1,.41.38,2.12,2.12,0,0,1,.27.49c.07.17.16.41.28.7l2.37,5.85a3.05,3.05,0,0,1,.27,1,.79.79,0,0,1-.26.58.85.85,0,0,1-.63.26.82.82,0,0,1-.37-.07.92.92,0,0,1-.26-.21,2.06,2.06,0,0,1-.23-.41Zm-3.63-2.52h2.7l-1.36-3.74Z" transform="translate(-30.25 -135.18)"/><path class="cls-4" d="M165.19,179.88l.17-.06-.48-1.26H161l-.48,1.28a3.68,3.68,0,0,1-.41.88.49.49,0,0,1-.44.16.67.67,0,0,1-.49-.2.59.59,0,0,1-.21-.45,1.05,1.05,0,0,1,.06-.33,3.9,3.9,0,0,1,.2-.53h0l2.32-5.89c.06-.17.14-.37.23-.61a3.22,3.22,0,0,1,.28-.56,1,1,0,0,1,.36-.32,1,1,0,0,1,.54-.12,1.09,1.09,0,0,1,.55.12,1,1,0,0,1,.36.32,2.22,2.22,0,0,1,.24.46c.07.17.17.4.28.69h0l2.37,5.85h0a2.89,2.89,0,0,1,.26.9.61.61,0,0,1-.21.45.64.64,0,0,1-.5.21.57.57,0,0,1-.29-.06l-.2-.16a1.18,1.18,0,0,1-.2-.37l-.21-.48-.17.07.17-.06-.17.06L165,180c.05.14.12.31.2.49a2.9,2.9,0,0,0,.25.45.91.91,0,0,0,.78.35,1,1,0,0,0,.76-.31,1,1,0,0,0,.31-.71,3,3,0,0,0-.29-1l-.16.07.16-.07-2.37-5.85-.16.07.17-.06-.28-.71a2.73,2.73,0,0,0-.29-.53,1.49,1.49,0,0,0-.47-.43,1.54,1.54,0,0,0-.73-.16,1.5,1.5,0,0,0-.72.16,1.36,1.36,0,0,0-.48.44,3.08,3.08,0,0,0-.31.63c-.1.23-.18.44-.24.61l-2.32,5.88h0a5.55,5.55,0,0,0-.21.57,1.29,1.29,0,0,0-.07.43,1,1,0,0,0,.32.71,1,1,0,0,0,.74.3.84.84,0,0,0,.73-.31,4.1,4.1,0,0,0,.46-1l.39-1.05h3.43l.39,1h0Zm-3.63-2.52v.19h3l-1.62-4.46-1.6,4.46h.26v-.19l.17.07,1.17-3.28,1.11,3h-2.45v.18l.17.07Z" transform="translate(-30.25 -135.18)"/><path class="cls-4" d="M177.61,178a2.43,2.43,0,0,1-.21.94,3.5,3.5,0,0,1-1.85,1.78,4.19,4.19,0,0,1-1.65.3,5.87,5.87,0,0,1-1.31-.13,3.57,3.57,0,0,1-1.06-.43,3.66,3.66,0,0,1-.89-.75,4.74,4.74,0,0,1-.61-1,5.18,5.18,0,0,1-.38-1.13,6.43,6.43,0,0,1-.13-1.27,5.67,5.67,0,0,1,.32-2,4.35,4.35,0,0,1,.92-1.49,3.78,3.78,0,0,1,1.39-.93,4.4,4.4,0,0,1,1.7-.32,4.16,4.16,0,0,1,2,.44,3.59,3.59,0,0,1,1.32,1.08,2.17,2.17,0,0,1,.45,1.22.79.79,0,0,1-.22.56.71.71,0,0,1-.54.24.77.77,0,0,1-.53-.17,2.71,2.71,0,0,1-.39-.57,2.78,2.78,0,0,0-.84-1,2.11,2.11,0,0,0-1.2-.33,2.14,2.14,0,0,0-1.8.86,3.85,3.85,0,0,0-.67,2.44,4.53,4.53,0,0,0,.29,1.76,2.24,2.24,0,0,0,.84,1,2.36,2.36,0,0,0,1.28.34,2.26,2.26,0,0,0,1.34-.39,2.37,2.37,0,0,0,.82-1.15,2.16,2.16,0,0,1,.29-.59.66.66,0,0,1,.56-.22.73.73,0,0,1,.56.23A.74.74,0,0,1,177.61,178Z" transform="translate(-30.25 -135.18)"/><path class="cls-4" d="M177.61,178h-.18a2.35,2.35,0,0,1-.2.87,3.08,3.08,0,0,1-.64.94,3.13,3.13,0,0,1-1.11.74,4,4,0,0,1-1.58.29,5.51,5.51,0,0,1-1.27-.13,3.61,3.61,0,0,1-1-.4,3.5,3.5,0,0,1-.84-.72h0a4.52,4.52,0,0,1-.59-.92,4.81,4.81,0,0,1-.36-1.09,6,6,0,0,1-.12-1.23,5.53,5.53,0,0,1,.3-1.9,4,4,0,0,1,.88-1.42,3.71,3.71,0,0,1,1.32-.89,4.27,4.27,0,0,1,1.64-.31,4.07,4.07,0,0,1,1.88.42,3.33,3.33,0,0,1,1.25,1,2,2,0,0,1,.42,1.11.63.63,0,0,1-.17.44.63.63,0,0,1-.81.06,2,2,0,0,1-.36-.53,2.93,2.93,0,0,0-.9-1.07,2.23,2.23,0,0,0-1.3-.37,2.39,2.39,0,0,0-2,.93,4.1,4.1,0,0,0-.7,2.56,4.73,4.73,0,0,0,.31,1.83,2.35,2.35,0,0,0,.91,1.13,2.49,2.49,0,0,0,1.37.37,2.38,2.38,0,0,0,1.44-.42,2.56,2.56,0,0,0,.89-1.24h0a2,2,0,0,1,.27-.53.48.48,0,0,1,.41-.15.61.61,0,0,1,.62.61h.36a.94.94,0,0,0-.29-.69.91.91,0,0,0-.69-.28.83.83,0,0,0-.7.29,2.13,2.13,0,0,0-.32.64l.17.06-.17-.07a2.09,2.09,0,0,1-.76,1.07,2,2,0,0,1-1.23.36,2.15,2.15,0,0,1-1.18-.32,2,2,0,0,1-.77-1,4.29,4.29,0,0,1-.28-1.69,3.74,3.74,0,0,1,.63-2.33,2,2,0,0,1,1.66-.79,1.83,1.83,0,0,1,1.09.3,2.52,2.52,0,0,1,.79.94,2.43,2.43,0,0,0,.43.62.89.89,0,0,0,.65.22.86.86,0,0,0,.67-.3.92.92,0,0,0,.27-.68,2.3,2.3,0,0,0-.49-1.32,3.78,3.78,0,0,0-1.38-1.15,4.5,4.5,0,0,0-2-.45,4.72,4.72,0,0,0-1.77.33,4,4,0,0,0-1.45,1,4.36,4.36,0,0,0-1,1.54,5.88,5.88,0,0,0-.33,2,6.93,6.93,0,0,0,.13,1.31,5.21,5.21,0,0,0,.4,1.17,4.42,4.42,0,0,0,.64,1h0a3.63,3.63,0,0,0,.92.8,3.79,3.79,0,0,0,1.12.44,5.71,5.71,0,0,0,1.35.14,4.49,4.49,0,0,0,1.73-.31,3.63,3.63,0,0,0,1.23-.84,3.53,3.53,0,0,0,.7-1,2.58,2.58,0,0,0,.23-1Z" transform="translate(-30.25 -135.18)"/><path class="cls-4" d="M186.53,173.36h-2v6.58a1.23,1.23,0,0,1-.26.85.85.85,0,0,1-.65.27.86.86,0,0,1-.67-.28,1.19,1.19,0,0,1-.25-.84v-6.58h-2a1,1,0,0,1-.7-.21.77.77,0,0,1,0-1.11,1.07,1.07,0,0,1,.69-.2h5.84a1,1,0,0,1,.71.21.77.77,0,0,1,0,1.1A1.06,1.06,0,0,1,186.53,173.36Z" transform="translate(-30.25 -135.18)"/><path class="cls-4" d="M186.53,173.36v-.18h-2.18v6.76a1,1,0,0,1-.21.72.66.66,0,0,1-.52.22.67.67,0,0,1-.53-.22,1,1,0,0,1-.21-.72v-6.76h-2.19a.79.79,0,0,1-.57-.17.48.48,0,0,1-.17-.41.51.51,0,0,1,.17-.42.84.84,0,0,1,.57-.16h5.84a.86.86,0,0,1,.59.17.52.52,0,0,1,.17.41.51.51,0,0,1-.17.41.86.86,0,0,1-.59.17v.36a1.23,1.23,0,0,0,.83-.26.84.84,0,0,0,.29-.68.89.89,0,0,0-.29-.68,1.17,1.17,0,0,0-.83-.26h-5.84a1.16,1.16,0,0,0-.8.25.86.86,0,0,0-.31.69.89.89,0,0,0,.29.68,1.19,1.19,0,0,0,.82.26h1.83v6.4a1.43,1.43,0,0,0,.3,1,1,1,0,0,0,.8.33,1,1,0,0,0,.79-.33,1.39,1.39,0,0,0,.3-1v-6.4h1.82Z" transform="translate(-30.25 -135.18)"/><path class="cls-4" d="M195.92,173.26h-4.14v2.22h3.81a.93.93,0,0,1,.63.19.64.64,0,0,1,.21.5.67.67,0,0,1-.2.5.91.91,0,0,1-.64.2h-3.81v2.58h4.28a1,1,0,0,1,.66.2.7.7,0,0,1,.22.53.72.72,0,0,1-.22.53,1,1,0,0,1-.66.2h-5a1.17,1.17,0,0,1-.86-.27,1.21,1.21,0,0,1-.26-.86V173a1.51,1.51,0,0,1,.12-.65.67.67,0,0,1,.36-.36,1.49,1.49,0,0,1,.64-.12h4.85a1,1,0,0,1,.66.2.72.72,0,0,1,0,1A1,1,0,0,1,195.92,173.26Z" transform="translate(-30.25 -135.18)"/><path class="cls-4" d="M195.92,173.26v-.18H191.6v2.58h4a.7.7,0,0,1,.51.15.43.43,0,0,1,.15.36.45.45,0,0,1-.15.37.7.7,0,0,1-.51.15h-4v2.94h4.46a.76.76,0,0,1,.53.15.53.53,0,0,1,.17.4.51.51,0,0,1-.17.39.71.71,0,0,1-.53.16h-5a.79.79,0,0,1-.94-.95V173a1.39,1.39,0,0,1,.1-.57h0a.55.55,0,0,1,.28-.28,1.37,1.37,0,0,1,.56-.1h4.85a.74.74,0,0,1,.53.15.53.53,0,0,1,0,.76.74.74,0,0,1-.53.15v.36a1.14,1.14,0,0,0,.78-.24.88.88,0,0,0,.27-.65.86.86,0,0,0-.27-.65,1.14,1.14,0,0,0-.78-.24h-4.85a1.73,1.73,0,0,0-.71.13,1,1,0,0,0-.46.45h0a1.8,1.8,0,0,0-.13.73v6.81a1.39,1.39,0,0,0,.31,1,1.35,1.35,0,0,0,1,.32h5a1.1,1.1,0,0,0,.78-.25.92.92,0,0,0,0-1.32,1.1,1.1,0,0,0-.78-.25H192v-2.22h3.62a1,1,0,0,0,.76-.25.84.84,0,0,0,.26-.63.82.82,0,0,0-.27-.63,1.06,1.06,0,0,0-.75-.24H192v-1.86h3.95Z" transform="translate(-30.25 -135.18)"/><path class="cls-4" d="M202.25,177h-.64v2.91a1.25,1.25,0,0,1-.25.85.87.87,0,0,1-.67.27.84.84,0,0,1-.68-.28,1.28,1.28,0,0,1-.24-.84v-7a1.15,1.15,0,0,1,.27-.86,1.17,1.17,0,0,1,.86-.27h3a10.32,10.32,0,0,1,1.06,0,2.61,2.61,0,0,1,.79.22,2.31,2.31,0,0,1,.76.51,2.27,2.27,0,0,1,.5.78,2.6,2.6,0,0,1,.17.93,2.22,2.22,0,0,1-.58,1.62,3.25,3.25,0,0,1-1.73.86,3.29,3.29,0,0,1,.93.77,7.54,7.54,0,0,1,.8,1.08,8.73,8.73,0,0,1,.54,1,2.1,2.1,0,0,1,.2.64.62.62,0,0,1-.12.35.77.77,0,0,1-.31.28,1,1,0,0,1-.46.1,1,1,0,0,1-.52-.14,1.41,1.41,0,0,1-.36-.37c-.1-.15-.24-.37-.41-.66l-.74-1.22a7.45,7.45,0,0,0-.7-1,1.82,1.82,0,0,0-.64-.48A2.08,2.08,0,0,0,202.25,177Zm1.05-3.81h-1.69v2.49h1.64a5,5,0,0,0,1.12-.11,1.37,1.37,0,0,0,.69-.39,1.12,1.12,0,0,0,.24-.76,1.14,1.14,0,0,0-.2-.66,1,1,0,0,0-.53-.43A3.82,3.82,0,0,0,203.3,173.22Z" transform="translate(-30.25 -135.18)"/><path class="cls-4" d="M202.25,177v-.18h-.82v3.09a1,1,0,0,1-.21.73.66.66,0,0,1-.53.21.65.65,0,0,1-.54-.22,1.09,1.09,0,0,1-.2-.72v-7a1,1,0,0,1,.22-.73,1,1,0,0,1,.73-.22h3a9.9,9.9,0,0,1,1,0,2.67,2.67,0,0,1,.74.2h0a2,2,0,0,1,.7.48,2.12,2.12,0,0,1,.46.71,2.53,2.53,0,0,1,.16.87,2.11,2.11,0,0,1-.53,1.5,3.12,3.12,0,0,1-1.64.81l-.48.1.43.23a3.08,3.08,0,0,1,.89.73,7.07,7.07,0,0,1,.77,1.05,9.5,9.5,0,0,1,.54,1,2.52,2.52,0,0,1,.18.57.45.45,0,0,1-.09.25.64.64,0,0,1-.24.22.86.86,0,0,1-.38.08.69.69,0,0,1-.41-.11,1.39,1.39,0,0,1-.32-.32c-.1-.15-.23-.36-.4-.65l-.74-1.22-.16.09.16-.09a7,7,0,0,0-.73-1.06,1.89,1.89,0,0,0-.7-.53,2.32,2.32,0,0,0-.88-.14v.36a1.87,1.87,0,0,1,.74.12,1.43,1.43,0,0,1,.57.43,6.41,6.41,0,0,1,.69,1h0L205,180c.17.29.31.51.41.66a1.64,1.64,0,0,0,.41.42,1.09,1.09,0,0,0,.62.17,1.07,1.07,0,0,0,.54-.12,1,1,0,0,0,.38-.34.76.76,0,0,0,.15-.45,2.1,2.1,0,0,0-.21-.71,6.84,6.84,0,0,0-.56-1.05,8.75,8.75,0,0,0-.81-1.11,3.68,3.68,0,0,0-1-.81l-.08.16,0,.18a3.44,3.44,0,0,0,1.83-.91,2.49,2.49,0,0,0,.62-1.75,2.81,2.81,0,0,0-.18-1,2.63,2.63,0,0,0-.54-.84,2.52,2.52,0,0,0-.82-.55l-.07.17.08-.17a3.12,3.12,0,0,0-.85-.23c-.3,0-.66-.05-1.08-.05h-3a1.14,1.14,0,0,0-1.31,1.31v7a1.45,1.45,0,0,0,.29,1,1,1,0,0,0,.81.34,1,1,0,0,0,.8-.33,1.39,1.39,0,0,0,.3-1v-2.73h.46Zm1.05-3.81V173h-1.87v2.85h1.82a4.35,4.35,0,0,0,1.16-.12,1.46,1.46,0,0,0,.78-.44,1.3,1.3,0,0,0,.29-.88,1.34,1.34,0,0,0-.23-.76,1.26,1.26,0,0,0-.61-.5h0a3.86,3.86,0,0,0-1.34-.15v.36a3.9,3.9,0,0,1,1.2.12h0a1,1,0,0,1,.45.37,1,1,0,0,1,.16.56,1,1,0,0,1-.19.64,1.11,1.11,0,0,1-.6.33,4.51,4.51,0,0,1-1.07.11h-1.46V173.4h1.51Z" transform="translate(-30.25 -135.18)"/><path class="cls-4" d="M217.17,178.19a2.69,2.69,0,0,1-.42,1.48,2.91,2.91,0,0,1-1.25,1,4.55,4.55,0,0,1-1.93.37,4.47,4.47,0,0,1-2.22-.5,3,3,0,0,1-1-1,2.18,2.18,0,0,1-.39-1.18.75.75,0,0,1,.24-.57.78.78,0,0,1,.59-.24.72.72,0,0,1,.49.18,1.52,1.52,0,0,1,.34.55,3.8,3.8,0,0,0,.38.73,1.57,1.57,0,0,0,.56.48,2.16,2.16,0,0,0,1,.18,2.14,2.14,0,0,0,1.33-.38,1.14,1.14,0,0,0,.51-1,1,1,0,0,0-.28-.73,1.74,1.74,0,0,0-.71-.43,11.59,11.59,0,0,0-1.17-.31,8.62,8.62,0,0,1-1.63-.54,2.65,2.65,0,0,1-1-.83,2.24,2.24,0,0,1-.38-1.32,2.27,2.27,0,0,1,.4-1.33,2.61,2.61,0,0,1,1.19-.89,5.4,5.4,0,0,1,3.26-.11,3.35,3.35,0,0,1,1,.55,2.4,2.4,0,0,1,.59.72,1.75,1.75,0,0,1,.18.74.83.83,0,0,1-.23.59.72.72,0,0,1-.58.26.69.69,0,0,1-.48-.15,2.3,2.3,0,0,1-.35-.52,2.43,2.43,0,0,0-.6-.8,1.74,1.74,0,0,0-1.11-.29,2,2,0,0,0-1.15.31.91.91,0,0,0-.43.76.78.78,0,0,0,.15.47,1.24,1.24,0,0,0,.4.34,4,4,0,0,0,.53.22l.88.23a13,13,0,0,1,1.39.4,4.28,4.28,0,0,1,1.05.52,2.07,2.07,0,0,1,.68.79A2.4,2.4,0,0,1,217.17,178.19Z" transform="translate(-30.25 -135.18)"/><path class="cls-4" d="M217.17,178.19H217a2.45,2.45,0,0,1-.4,1.38,2.66,2.66,0,0,1-1.16,1,4.54,4.54,0,0,1-1.86.35,4.13,4.13,0,0,1-2.12-.48h0a2.79,2.79,0,0,1-.95-.92,2,2,0,0,1-.36-1.08.67.67,0,0,1,.18-.45.64.64,0,0,1,.47-.18.47.47,0,0,1,.36.14,1.17,1.17,0,0,1,.3.48h0a3.59,3.59,0,0,0,.4.76,1.68,1.68,0,0,0,.63.54,2.66,2.66,0,0,0,2.47-.21,1.34,1.34,0,0,0,.59-1.1,1.18,1.18,0,0,0-.33-.85,1.94,1.94,0,0,0-.78-.48c-.3-.1-.7-.21-1.19-.32h0a9,9,0,0,1-1.61-.52,2.52,2.52,0,0,1-1-.78,2,2,0,0,1-.35-1.21,2,2,0,0,1,.37-1.22,2.31,2.31,0,0,1,1.1-.83,4.64,4.64,0,0,1,1.75-.3,4.32,4.32,0,0,1,1.39.19,3.05,3.05,0,0,1,.95.52,2.29,2.29,0,0,1,.55.66,1.55,1.55,0,0,1,.16.66.71.71,0,0,1-.18.47.56.56,0,0,1-.45.2.49.49,0,0,1-.35-.1,2.05,2.05,0,0,1-.32-.48l-.16.09.16-.08a2.51,2.51,0,0,0-.64-.86,1.94,1.94,0,0,0-1.23-.33,2.07,2.07,0,0,0-1.25.35,1,1,0,0,0-.51.9.94.94,0,0,0,.18.57h0a1.38,1.38,0,0,0,.47.39,3,3,0,0,0,.56.24c.18.06.47.14.88.24h0c.5.12,1,.25,1.37.39a4.13,4.13,0,0,1,1,.5,2,2,0,0,1,.62.72,2.28,2.28,0,0,1,.23,1.08h.36a2.84,2.84,0,0,0-.26-1.25,2.39,2.39,0,0,0-.74-.84,4.52,4.52,0,0,0-1.1-.55,13.39,13.39,0,0,0-1.41-.4l0,.17,0-.17c-.4-.1-.7-.18-.87-.24a2,2,0,0,1-.49-.2,1.32,1.32,0,0,1-.35-.29h0a.61.61,0,0,1-.11-.36.72.72,0,0,1,.36-.61,1.74,1.74,0,0,1,1-.28,1.59,1.59,0,0,1,1,.25,2.09,2.09,0,0,1,.54.74h0a2.46,2.46,0,0,0,.39.56.83.83,0,0,0,.6.2.92.92,0,0,0,.72-.32,1,1,0,0,0,.27-.71,1.94,1.94,0,0,0-.2-.82,2.61,2.61,0,0,0-.63-.77,3.33,3.33,0,0,0-1.07-.59,4.87,4.87,0,0,0-1.51-.21,5,5,0,0,0-1.88.32,2.75,2.75,0,0,0-1.26,1,2.4,2.4,0,0,0-.44,1.43,2.28,2.28,0,0,0,.42,1.42,2.83,2.83,0,0,0,1.11.9,8.63,8.63,0,0,0,1.67.54h0c.49.11.87.22,1.15.31a1.62,1.62,0,0,1,.64.39.84.84,0,0,1,.23.6,1,1,0,0,1-.44.81,2,2,0,0,1-1.22.34,1.91,1.91,0,0,1-.88-.17,1.31,1.31,0,0,1-.5-.42,3.88,3.88,0,0,1-.35-.68h0a1.65,1.65,0,0,0-.39-.62.82.82,0,0,0-.61-.23.91.91,0,0,0-.72.29,1,1,0,0,0-.29.7,2.43,2.43,0,0,0,.42,1.28,3.16,3.16,0,0,0,1.06,1h0a4.54,4.54,0,0,0,2.31.53,4.81,4.81,0,0,0,2-.38,3.06,3.06,0,0,0,1.32-1.1,2.83,2.83,0,0,0,.45-1.57Z" transform="translate(-30.25 -135.18)"/><g class="cls-5"><g class="cls-6"><path class="cls-7" d="M208.07,155.94a2.39,2.39,0,0,1,0-4.77h10.59V140.58a2.39,2.39,0,0,1,4.77,0v10.59H234a2.39,2.39,0,0,1,0,4.77H223.43v10.59a2.39,2.39,0,0,1-4.77,0V155.94H208.07m13-20.76H221a5.29,5.29,0,0,0-5.49,5.4V148h-7.45a5.3,5.3,0,0,0-5.4,5.49v.08a5.29,5.29,0,0,0,5.4,5.49h7.45v7.45a5.53,5.53,0,0,0,11,0v-7.45H234A5.53,5.53,0,0,0,234,148h-7.45v-7.44a5.29,5.29,0,0,0-5.48-5.4" transform="translate(-30.25 -135.18)"/></g></g><g class="cls-8"><g class="cls-9"><path class="cls-7" d="M247,155.94a2.39,2.39,0,0,1,0-4.77h10.59V140.58a2.39,2.39,0,0,1,4.77,0v10.59H273a2.39,2.39,0,0,1,0,4.77H262.36v10.59a2.39,2.39,0,0,1-4.77,0V155.94H247m13-20.76h-.09a5.29,5.29,0,0,0-5.48,5.4V148H247a5.53,5.53,0,0,0,0,11.06h7.45v7.45a5.53,5.53,0,0,0,11.05,0v-7.45H273A5.53,5.53,0,0,0,273,148H265.5v-7.44a5.29,5.29,0,0,0-5.48-5.4" transform="translate(-30.25 -135.18)"/></g></g></svg>