<svg xmlns="http://www.w3.org/2000/svg" xmlns:xlink="http://www.w3.org/1999/xlink" viewBox="0 0 248.1 46.06"><defs><style>.cls-1,.cls-3,.cls-5{fill:none;}.cls-2{fill:#1d5888;}.cls-3{stroke:#1d5888;stroke-width:1.11px;}.cls-3,.cls-5{stroke-miterlimit:10;}.cls-4{fill:#0b66a0;}.cls-5{stroke:#0b66a0;stroke-width:0.36px;}.cls-6{isolation:isolate;opacity:0.75;}.cls-7{clip-path:url(#clip-path);}.cls-8{clip-path:url(#clip-path-2);}.cls-9{fill:#ff993b;}.cls-10{clip-path:url(#clip-path-3);}.cls-11{clip-path:url(#clip-path-4);}</style><clipPath id="clip-path" transform="translate(0 -0.18)"><rect class="cls-1" x="172.31" width="36.96" height="36.96"/></clipPath><clipPath id="clip-path-2" transform="translate(0 -0.18)"><rect class="cls-1" x="172.42" y="0.18" width="36.75" height="36.75"/></clipPath><clipPath id="clip-path-3" transform="translate(0 -0.18)"><rect class="cls-1" x="211.19" width="36.96" height="36.96"/></clipPath><clipPath id="clip-path-4" transform="translate(0 -0.18)"><rect class="cls-1" x="211.35" y="0.18" width="36.75" height="36.75"/></clipPath></defs><g id="Layer_2" data-name="Layer 2"><g id="Layer_1-2" data-name="Layer 1"><g id="title"><path class="cls-2" d="M19.35,5.87V20.49a27.09,27.09,0,0,1-.16,3.24,10.25,10.25,0,0,1-.73,2.7A7.23,7.23,0,0,1,15.32,30,10.34,10.34,0,0,1,10,31.31a11,11,0,0,1-4.74-.9,6.89,6.89,0,0,1-3-2.89,10.19,10.19,0,0,1-1-2.46,9.8,9.8,0,0,1-.38-2.65,2.65,2.65,0,0,1,.74-2,2.65,2.65,0,0,1,1.9-.71,2.16,2.16,0,0,1,1.7.65,4.48,4.48,0,0,1,.87,2,19.91,19.91,0,0,0,.65,2.34,3.49,3.49,0,0,0,1.09,1.5,3.3,3.3,0,0,0,2.17.63q3.75,0,3.75-5.5V5.87a3.84,3.84,0,0,1,.75-2.58,2.59,2.59,0,0,1,2.05-.85,2.66,2.66,0,0,1,2.08.85A3.74,3.74,0,0,1,19.35,5.87Z" transform="translate(0 -0.18)"/><path class="cls-2" d="M46.69,22.45A8.18,8.18,0,0,1,45.39,27a8.66,8.66,0,0,1-3.82,3.16,14.18,14.18,0,0,1-6,1.15,13.42,13.42,0,0,1-6.82-1.56,9.05,9.05,0,0,1-3.09-3,6.76,6.76,0,0,1-1.19-3.65,2.41,2.41,0,0,1,.71-1.76A2.43,2.43,0,0,1,27,20.6a2.14,2.14,0,0,1,1.51.58,4.47,4.47,0,0,1,1.06,1.69,11.25,11.25,0,0,0,1.15,2.23,4.64,4.64,0,0,0,1.74,1.48,6.57,6.57,0,0,0,3,.58A6.61,6.61,0,0,0,39.54,26a3.51,3.51,0,0,0,1.57-2.92,3.08,3.08,0,0,0-.85-2.26,5.54,5.54,0,0,0-2.19-1.32c-.89-.3-2.09-.63-3.59-1a26.24,26.24,0,0,1-5-1.65,8.11,8.11,0,0,1-3.22-2.57,6.67,6.67,0,0,1-1.19-4,6.94,6.94,0,0,1,1.26-4.1A7.91,7.91,0,0,1,29.93,3.4a15,15,0,0,1,5.6-1A13.71,13.71,0,0,1,40,3.08a9.31,9.31,0,0,1,3.11,1.69A7,7,0,0,1,44.9,7a5.11,5.11,0,0,1,.57,2.27,2.69,2.69,0,0,1-.71,1.81,2.28,2.28,0,0,1-1.78.81,2.08,2.08,0,0,1-1.48-.48,6.6,6.6,0,0,1-1.09-1.59,7.21,7.21,0,0,0-1.83-2.47,5.36,5.36,0,0,0-3.43-.88,5.92,5.92,0,0,0-3.53,1,2.78,2.78,0,0,0-1.34,2.31,2.38,2.38,0,0,0,.45,1.45A4.15,4.15,0,0,0,32,12.23a8.09,8.09,0,0,0,1.62.68c.54.17,1.45.41,2.7.73a41.52,41.52,0,0,1,4.28,1.21,13.32,13.32,0,0,1,3.25,1.62,6.67,6.67,0,0,1,2.1,2.41A7.73,7.73,0,0,1,46.69,22.45Z" transform="translate(0 -0.18)"/><path class="cls-2" d="M85.83,22a7.45,7.45,0,0,1-.66,2.89,10.55,10.55,0,0,1-5.67,5.47,12.79,12.79,0,0,1-5.1.94,17.85,17.85,0,0,1-4-.42,11.32,11.32,0,0,1-3.28-1.31,11,11,0,0,1-2.72-2.33,14.31,14.31,0,0,1-1.88-2.94,15.49,15.49,0,0,1-1.17-3.48,19,19,0,0,1-.39-3.92,17.28,17.28,0,0,1,1-6,12.93,12.93,0,0,1,2.81-4.56A12.16,12.16,0,0,1,69,3.43a13.88,13.88,0,0,1,5.24-1,13.06,13.06,0,0,1,6,1.35,11,11,0,0,1,4.06,3.34,6.6,6.6,0,0,1,1.41,3.76,2.46,2.46,0,0,1-.69,1.72,2.18,2.18,0,0,1-1.65.74,2.29,2.29,0,0,1-1.63-.51,7.24,7.24,0,0,1-1.21-1.78A8.57,8.57,0,0,0,78,8a6.33,6.33,0,0,0-3.68-1,6.68,6.68,0,0,0-5.56,2.65q-2.06,2.64-2.06,7.52a14,14,0,0,0,.91,5.42,6.83,6.83,0,0,0,2.59,3.23,7.17,7.17,0,0,0,3.92,1.06,6.89,6.89,0,0,0,4.13-1.21,7.29,7.29,0,0,0,2.54-3.55,6.3,6.3,0,0,1,.89-1.8,2,2,0,0,1,1.72-.69A2.44,2.44,0,0,1,85.83,22Z" transform="translate(0 -0.18)"/><path class="cls-2" d="M110,20.74a12.28,12.28,0,0,1-.72,4.28,9.48,9.48,0,0,1-2.1,3.37,9.16,9.16,0,0,1-3.27,2.16,12.35,12.35,0,0,1-8.53,0A9.37,9.37,0,0,1,90,25a12.34,12.34,0,0,1-.71-4.27A12.39,12.39,0,0,1,90,16.42a9.59,9.59,0,0,1,2.08-3.36,9.15,9.15,0,0,1,3.28-2.14,12.42,12.42,0,0,1,8.53,0,9.31,9.31,0,0,1,3.29,2.17,9.41,9.41,0,0,1,2.09,3.35A12.54,12.54,0,0,1,110,20.74Zm-5.22,0a7.76,7.76,0,0,0-1.4-4.95A4.53,4.53,0,0,0,99.62,14a4.62,4.62,0,0,0-2.68.79,4.93,4.93,0,0,0-1.79,2.33,9.49,9.49,0,0,0-.63,3.6,9.28,9.28,0,0,0,.62,3.56,5.1,5.1,0,0,0,1.77,2.33,4.59,4.59,0,0,0,2.71.81,4.51,4.51,0,0,0,3.76-1.78A7.74,7.74,0,0,0,104.78,20.74Z" transform="translate(0 -0.18)"/><path class="cls-2" d="M127.6,28.37v-.66a11.54,11.54,0,0,1-2,2,7.22,7.22,0,0,1-2.24,1.19,9.11,9.11,0,0,1-2.78.39,7.17,7.17,0,0,1-3.38-.78,5.74,5.74,0,0,1-2.32-2.15,9.61,9.61,0,0,1-1-4.76V13.27a3.36,3.36,0,0,1,.71-2.33,2.41,2.41,0,0,1,1.86-.77,2.49,2.49,0,0,1,1.91.78,3.32,3.32,0,0,1,.72,2.32V21.6a12.44,12.44,0,0,0,.31,3,3.64,3.64,0,0,0,1.09,1.93,3.15,3.15,0,0,0,2.14.69,4.38,4.38,0,0,0,2.48-.78,4.53,4.53,0,0,0,1.69-2,16,16,0,0,0,.44-4.83V13.27A3.32,3.32,0,0,1,128,11a2.48,2.48,0,0,1,1.89-.78,2.43,2.43,0,0,1,1.87.77,3.36,3.36,0,0,1,.7,2.33V28.34a3.19,3.19,0,0,1-.67,2.22,2.41,2.41,0,0,1-3.51,0A3.16,3.16,0,0,1,127.6,28.37Z" transform="translate(0 -0.18)"/><path class="cls-2" d="M142.37,13v.63a9.2,9.2,0,0,1,3-2.65,8,8,0,0,1,3.74-.85,7.53,7.53,0,0,1,3.68.89,5.71,5.71,0,0,1,2.42,2.54,6,6,0,0,1,.66,2.05,19.88,19.88,0,0,1,.16,2.82v9.68a3.43,3.43,0,0,1-.72,2.36,2.36,2.36,0,0,1-1.85.8,2.42,2.42,0,0,1-1.89-.82,3.45,3.45,0,0,1-.72-2.34V19.48a8.6,8.6,0,0,0-.72-3.93,2.89,2.89,0,0,0-2.84-1.36,4.2,4.2,0,0,0-2.54.83,4.72,4.72,0,0,0-1.67,2.27,16.05,16.05,0,0,0-.38,4.34v6.52a3.38,3.38,0,0,1-.74,2.37,2.49,2.49,0,0,1-1.89.79,2.38,2.38,0,0,1-1.85-.82,3.45,3.45,0,0,1-.72-2.34v-15a3.24,3.24,0,0,1,.65-2.22,2.23,2.23,0,0,1,1.77-.73,2.42,2.42,0,0,1,1.23.32,2.33,2.33,0,0,1,.89,1A3.48,3.48,0,0,1,142.37,13Z" transform="translate(0 -0.18)"/><path class="cls-2" d="M161.49,10.63h.57V7.5c0-.83,0-1.49.07-2a3.11,3.11,0,0,1,.37-1.23,2.35,2.35,0,0,1,.88-.86,2.49,2.49,0,0,1,1.27-.34,2.55,2.55,0,0,1,1.79.75,2.2,2.2,0,0,1,.68,1.21,10.52,10.52,0,0,1,.14,2v3.55h1.91a2.42,2.42,0,0,1,1.68.52,1.72,1.72,0,0,1,.58,1.34A1.5,1.5,0,0,1,170.6,14a5.35,5.35,0,0,1-2.37.42h-1v9.56a14.72,14.72,0,0,0,.09,1.87,1.91,1.91,0,0,0,.46,1.07,1.55,1.55,0,0,0,1.2.41,6.24,6.24,0,0,0,1.24-.16,6.25,6.25,0,0,1,1.22-.16,1.53,1.53,0,0,1,1.13.5,1.69,1.69,0,0,1,.51,1.25,2.08,2.08,0,0,1-1.37,1.92,9.35,9.35,0,0,1-3.94.67,6.88,6.88,0,0,1-3.7-.82,3.8,3.8,0,0,1-1.65-2.27,15.32,15.32,0,0,1-.39-3.86v-10h-.68a2.48,2.48,0,0,1-1.72-.54,1.74,1.74,0,0,1-.59-1.35,1.69,1.69,0,0,1,.62-1.34A2.74,2.74,0,0,1,161.49,10.63Z" transform="translate(0 -0.18)"/><g id="js_title" data-name="js title"><path class="cls-3" d="M19.35,5.87V20.49a27.09,27.09,0,0,1-.16,3.24,10.25,10.25,0,0,1-.73,2.7A7.23,7.23,0,0,1,15.32,30,10.34,10.34,0,0,1,10,31.31a11,11,0,0,1-4.74-.9,6.89,6.89,0,0,1-3-2.89,10.19,10.19,0,0,1-1-2.46,9.8,9.8,0,0,1-.38-2.65,2.65,2.65,0,0,1,.74-2,2.65,2.65,0,0,1,1.9-.71,2.16,2.16,0,0,1,1.7.65,4.48,4.48,0,0,1,.87,2,19.91,19.91,0,0,0,.65,2.34,3.49,3.49,0,0,0,1.09,1.5,3.3,3.3,0,0,0,2.17.63q3.75,0,3.75-5.5V5.87a3.84,3.84,0,0,1,.75-2.58,2.59,2.59,0,0,1,2.05-.85,2.66,2.66,0,0,1,2.08.85A3.74,3.74,0,0,1,19.35,5.87Z" transform="translate(0 -0.18)"/><path class="cls-3" d="M46.69,22.45A8.18,8.18,0,0,1,45.39,27a8.66,8.66,0,0,1-3.82,3.16,14.18,14.18,0,0,1-6,1.15,13.42,13.42,0,0,1-6.82-1.56,9.05,9.05,0,0,1-3.09-3,6.76,6.76,0,0,1-1.19-3.65,2.41,2.41,0,0,1,.71-1.76A2.43,2.43,0,0,1,27,20.6a2.14,2.14,0,0,1,1.51.58,4.47,4.47,0,0,1,1.06,1.69,11.25,11.25,0,0,0,1.15,2.23,4.64,4.64,0,0,0,1.74,1.48,6.57,6.57,0,0,0,3,.58A6.61,6.61,0,0,0,39.54,26a3.51,3.51,0,0,0,1.57-2.92,3.08,3.08,0,0,0-.85-2.26,5.54,5.54,0,0,0-2.19-1.32c-.89-.3-2.09-.63-3.59-1a26.24,26.24,0,0,1-5-1.65,8.11,8.11,0,0,1-3.22-2.57,6.67,6.67,0,0,1-1.19-4,6.94,6.94,0,0,1,1.26-4.1A7.91,7.91,0,0,1,29.93,3.4a15,15,0,0,1,5.6-1A13.71,13.71,0,0,1,40,3.08a9.31,9.31,0,0,1,3.11,1.69A7,7,0,0,1,44.9,7a5.11,5.11,0,0,1,.57,2.27,2.69,2.69,0,0,1-.71,1.81,2.28,2.28,0,0,1-1.78.81,2.08,2.08,0,0,1-1.48-.48,6.6,6.6,0,0,1-1.09-1.59,7.21,7.21,0,0,0-1.83-2.47,5.36,5.36,0,0,0-3.43-.88,5.92,5.92,0,0,0-3.53,1,2.78,2.78,0,0,0-1.34,2.31,2.38,2.38,0,0,0,.45,1.45A4.15,4.15,0,0,0,32,12.23a8.09,8.09,0,0,0,1.62.68c.54.17,1.45.41,2.7.73a41.52,41.52,0,0,1,4.28,1.21,13.32,13.32,0,0,1,3.25,1.62,6.67,6.67,0,0,1,2.1,2.41A7.73,7.73,0,0,1,46.69,22.45Z" transform="translate(0 -0.18)"/><path class="cls-3" d="M85.83,22a7.45,7.45,0,0,1-.66,2.89,10.55,10.55,0,0,1-5.67,5.47,12.79,12.79,0,0,1-5.1.94,17.85,17.85,0,0,1-4-.42,11.32,11.32,0,0,1-3.28-1.31,11,11,0,0,1-2.72-2.33,14.31,14.31,0,0,1-1.88-2.94,15.49,15.49,0,0,1-1.17-3.48,19,19,0,0,1-.39-3.92,17.28,17.28,0,0,1,1-6,12.93,12.93,0,0,1,2.81-4.56A12.16,12.16,0,0,1,69,3.43a13.88,13.88,0,0,1,5.24-1,13.06,13.06,0,0,1,6,1.35,11,11,0,0,1,4.06,3.34,6.6,6.6,0,0,1,1.41,3.76,2.46,2.46,0,0,1-.69,1.72,2.18,2.18,0,0,1-1.65.74,2.29,2.29,0,0,1-1.63-.51,7.24,7.24,0,0,1-1.21-1.78A8.57,8.57,0,0,0,78,8a6.33,6.33,0,0,0-3.68-1,6.68,6.68,0,0,0-5.56,2.65q-2.06,2.64-2.06,7.52a14,14,0,0,0,.91,5.42,6.83,6.83,0,0,0,2.59,3.23,7.17,7.17,0,0,0,3.92,1.06,6.89,6.89,0,0,0,4.13-1.21,7.29,7.29,0,0,0,2.54-3.55,6.3,6.3,0,0,1,.89-1.8,2,2,0,0,1,1.72-.69A2.44,2.44,0,0,1,85.83,22Z" transform="translate(0 -0.18)"/><path class="cls-3" d="M110,20.74a12.28,12.28,0,0,1-.72,4.28,9.48,9.48,0,0,1-2.1,3.37,9.16,9.16,0,0,1-3.27,2.16,12.35,12.35,0,0,1-8.53,0A9.37,9.37,0,0,1,90,25a12.34,12.34,0,0,1-.71-4.27A12.39,12.39,0,0,1,90,16.42a9.59,9.59,0,0,1,2.08-3.36,9.15,9.15,0,0,1,3.28-2.14,12.42,12.42,0,0,1,8.53,0,9.31,9.31,0,0,1,3.29,2.17,9.41,9.41,0,0,1,2.09,3.35A12.54,12.54,0,0,1,110,20.74Zm-5.22,0a7.76,7.76,0,0,0-1.4-4.95A4.53,4.53,0,0,0,99.62,14a4.62,4.62,0,0,0-2.68.79,4.93,4.93,0,0,0-1.79,2.33,9.49,9.49,0,0,0-.63,3.6,9.28,9.28,0,0,0,.62,3.56,5.1,5.1,0,0,0,1.77,2.33,4.59,4.59,0,0,0,2.71.81,4.51,4.51,0,0,0,3.76-1.78A7.74,7.74,0,0,0,104.78,20.74Z" transform="translate(0 -0.18)"/><path class="cls-3" d="M127.6,28.37v-.66a11.54,11.54,0,0,1-2,2,7.22,7.22,0,0,1-2.24,1.19,9.11,9.11,0,0,1-2.78.39,7.17,7.17,0,0,1-3.38-.78,5.74,5.74,0,0,1-2.32-2.15,9.61,9.61,0,0,1-1-4.76V13.27a3.36,3.36,0,0,1,.71-2.33,2.41,2.41,0,0,1,1.86-.77,2.49,2.49,0,0,1,1.91.78,3.32,3.32,0,0,1,.72,2.32V21.6a12.44,12.44,0,0,0,.31,3,3.64,3.64,0,0,0,1.09,1.93,3.15,3.15,0,0,0,2.14.69,4.38,4.38,0,0,0,2.48-.78,4.53,4.53,0,0,0,1.69-2,16,16,0,0,0,.44-4.83V13.27A3.32,3.32,0,0,1,128,11a2.48,2.48,0,0,1,1.89-.78,2.43,2.43,0,0,1,1.87.77,3.36,3.36,0,0,1,.7,2.33V28.34a3.19,3.19,0,0,1-.67,2.22,2.41,2.41,0,0,1-3.51,0A3.16,3.16,0,0,1,127.6,28.37Z" transform="translate(0 -0.18)"/><path class="cls-3" d="M142.37,13v.63a9.2,9.2,0,0,1,3-2.65,8,8,0,0,1,3.74-.85,7.53,7.53,0,0,1,3.68.89,5.71,5.71,0,0,1,2.42,2.54,6,6,0,0,1,.66,2.05,19.88,19.88,0,0,1,.16,2.82v9.68a3.43,3.43,0,0,1-.72,2.36,2.36,2.36,0,0,1-1.85.8,2.42,2.42,0,0,1-1.89-.82,3.45,3.45,0,0,1-.72-2.34V19.48a8.6,8.6,0,0,0-.72-3.93,2.89,2.89,0,0,0-2.84-1.36,4.2,4.2,0,0,0-2.54.83,4.72,4.72,0,0,0-1.67,2.27,16.05,16.05,0,0,0-.38,4.34v6.52a3.38,3.38,0,0,1-.74,2.37,2.49,2.49,0,0,1-1.89.79,2.38,2.38,0,0,1-1.85-.82,3.45,3.45,0,0,1-.72-2.34v-15a3.24,3.24,0,0,1,.65-2.22,2.23,2.23,0,0,1,1.77-.73,2.42,2.42,0,0,1,1.23.32,2.33,2.33,0,0,1,.89,1A3.48,3.48,0,0,1,142.37,13Z" transform="translate(0 -0.18)"/><path class="cls-3" d="M161.49,10.63h.57V7.5c0-.83,0-1.49.07-2a3.11,3.11,0,0,1,.37-1.23,2.35,2.35,0,0,1,.88-.86,2.49,2.49,0,0,1,1.27-.34,2.55,2.55,0,0,1,1.79.75,2.2,2.2,0,0,1,.68,1.21,10.52,10.52,0,0,1,.14,2v3.55h1.91a2.42,2.42,0,0,1,1.68.52,1.72,1.72,0,0,1,.58,1.34A1.5,1.5,0,0,1,170.6,14a5.35,5.35,0,0,1-2.37.42h-1v9.56a14.72,14.72,0,0,0,.09,1.87,1.91,1.91,0,0,0,.46,1.07,1.55,1.55,0,0,0,1.2.41,6.24,6.24,0,0,0,1.24-.16,6.25,6.25,0,0,1,1.22-.16,1.53,1.53,0,0,1,1.13.5,1.69,1.69,0,0,1,.51,1.25,2.08,2.08,0,0,1-1.37,1.92,9.35,9.35,0,0,1-3.94.67,6.88,6.88,0,0,1-3.7-.82,3.8,3.8,0,0,1-1.65-2.27,15.32,15.32,0,0,1-.39-3.86v-10h-.68a2.48,2.48,0,0,1-1.72-.54,1.74,1.74,0,0,1-.59-1.35,1.69,1.69,0,0,1,.62-1.34A2.74,2.74,0,0,1,161.49,10.63Z" transform="translate(0 -0.18)"/></g></g><g id="lead"><path class="cls-4" d="M8.26,43a2.43,2.43,0,0,1-.21.94,3.15,3.15,0,0,1-.67,1,3.35,3.35,0,0,1-1.17.79,4.24,4.24,0,0,1-1.66.3,5.84,5.84,0,0,1-1.3-.13,3.75,3.75,0,0,1-1.07-.43,3.62,3.62,0,0,1-.88-.75,4.74,4.74,0,0,1-.61-1,4.7,4.7,0,0,1-.38-1.13,5.76,5.76,0,0,1-.13-1.27,5.67,5.67,0,0,1,.32-2,4.33,4.33,0,0,1,.91-1.49A4,4,0,0,1,2.8,37a4.43,4.43,0,0,1,1.7-.32,4.2,4.2,0,0,1,2,.44,3.48,3.48,0,0,1,1.31,1.08,2.12,2.12,0,0,1,.46,1.22A.79.79,0,0,1,8,40a.71.71,0,0,1-.54.24A.75.75,0,0,1,7,40.06a2.12,2.12,0,0,1-.39-.57,2.71,2.71,0,0,0-.85-1,2.06,2.06,0,0,0-1.19-.33A2.16,2.16,0,0,0,2.71,39,3.92,3.92,0,0,0,2,41.45a4.52,4.52,0,0,0,.3,1.76,2.24,2.24,0,0,0,.84,1,2.32,2.32,0,0,0,1.27.34,2.24,2.24,0,0,0,1.34-.39,2.39,2.39,0,0,0,.83-1.15,1.91,1.91,0,0,1,.29-.59.66.66,0,0,1,.56-.22.75.75,0,0,1,.56.23A.73.73,0,0,1,8.26,43Z" transform="translate(0 -0.18)"/><path class="cls-5" d="M8.26,43a2.43,2.43,0,0,1-.21.94,3.15,3.15,0,0,1-.67,1,3.35,3.35,0,0,1-1.17.79,4.24,4.24,0,0,1-1.66.3,5.84,5.84,0,0,1-1.3-.13,3.75,3.75,0,0,1-1.07-.43,3.62,3.62,0,0,1-.88-.75,4.74,4.74,0,0,1-.61-1,4.7,4.7,0,0,1-.38-1.13,5.76,5.76,0,0,1-.13-1.27,5.67,5.67,0,0,1,.32-2,4.33,4.33,0,0,1,.91-1.49A4,4,0,0,1,2.8,37a4.43,4.43,0,0,1,1.7-.32,4.2,4.2,0,0,1,2,.44,3.48,3.48,0,0,1,1.31,1.08,2.12,2.12,0,0,1,.46,1.22A.79.79,0,0,1,8,40a.71.71,0,0,1-.54.24A.75.75,0,0,1,7,40.06a2.12,2.12,0,0,1-.39-.57,2.71,2.71,0,0,0-.85-1,2.06,2.06,0,0,0-1.19-.33A2.16,2.16,0,0,0,2.71,39,3.92,3.92,0,0,0,2,41.45a4.52,4.52,0,0,0,.3,1.76,2.24,2.24,0,0,0,.84,1,2.32,2.32,0,0,0,1.27.34,2.24,2.24,0,0,0,1.34-.39,2.39,2.39,0,0,0,.83-1.15,1.91,1.91,0,0,1,.29-.59.66.66,0,0,1,.56-.22.75.75,0,0,1,.56.23A.73.73,0,0,1,8.26,43Z" transform="translate(0 -0.18)"/><path class="cls-4" d="M15.29,36.69a4.84,4.84,0,0,1,2.42.57,3.71,3.71,0,0,1,1.53,1.63,5.45,5.45,0,0,1,.52,2.47,6,6,0,0,1-.28,1.91,4.08,4.08,0,0,1-.86,1.49,3.67,3.67,0,0,1-1.4,1,5.06,5.06,0,0,1-1.89.33,5,5,0,0,1-1.91-.34,3.71,3.71,0,0,1-1.4-1,4.1,4.1,0,0,1-.85-1.5,6.33,6.33,0,0,1,0-3.82A4.11,4.11,0,0,1,12.05,38,3.81,3.81,0,0,1,13.43,37,5,5,0,0,1,15.29,36.69Zm2.61,4.66a4.38,4.38,0,0,0-.32-1.73,2.45,2.45,0,0,0-.92-1.1,2.54,2.54,0,0,0-1.37-.37,2.44,2.44,0,0,0-1,.2,2.17,2.17,0,0,0-.8.61,2.76,2.76,0,0,0-.53,1,4.55,4.55,0,0,0-.2,1.38,4.69,4.69,0,0,0,.2,1.4,2.81,2.81,0,0,0,.55,1,2.2,2.2,0,0,0,.81.62,2.44,2.44,0,0,0,3.25-1.24A4.23,4.23,0,0,0,17.9,41.35Z" transform="translate(0 -0.18)"/><path class="cls-5" d="M15.29,36.69a4.84,4.84,0,0,1,2.42.57,3.71,3.71,0,0,1,1.53,1.63,5.45,5.45,0,0,1,.52,2.47,6,6,0,0,1-.28,1.91,4.08,4.08,0,0,1-.86,1.49,3.67,3.67,0,0,1-1.4,1,5.06,5.06,0,0,1-1.89.33,5,5,0,0,1-1.91-.34,3.71,3.71,0,0,1-1.4-1,4.1,4.1,0,0,1-.85-1.5,6.33,6.33,0,0,1,0-3.82A4.11,4.11,0,0,1,12.05,38,3.81,3.81,0,0,1,13.43,37,5,5,0,0,1,15.29,36.69Zm2.61,4.66a4.38,4.38,0,0,0-.32-1.73,2.45,2.45,0,0,0-.92-1.1,2.54,2.54,0,0,0-1.37-.37,2.44,2.44,0,0,0-1,.2,2.17,2.17,0,0,0-.8.61,2.76,2.76,0,0,0-.53,1,4.55,4.55,0,0,0-.2,1.38,4.69,4.69,0,0,0,.2,1.4,2.81,2.81,0,0,0,.55,1,2.2,2.2,0,0,0,.81.62,2.44,2.44,0,0,0,3.25-1.24A4.23,4.23,0,0,0,17.9,41.35Z" transform="translate(0 -0.18)"/><path class="cls-4" d="M22.73,42.16V37.8A1.22,1.22,0,0,1,23,37a.87.87,0,0,1,.66-.27.9.9,0,0,1,.68.27,1.28,1.28,0,0,1,.25.84v4.46a3.86,3.86,0,0,0,.17,1.27,1.45,1.45,0,0,0,.6.79,2.19,2.19,0,0,0,1.21.28A1.8,1.8,0,0,0,28.07,44a2.77,2.77,0,0,0,.45-1.73V37.8a1.21,1.21,0,0,1,.25-.84.84.84,0,0,1,.66-.27.89.89,0,0,1,.67.27,1.21,1.21,0,0,1,.25.84v4.36a6.47,6.47,0,0,1-.2,1.78,2.73,2.73,0,0,1-.78,1.24,3,3,0,0,1-1.15.67,5.08,5.08,0,0,1-1.54.21,6.33,6.33,0,0,1-1.8-.22,3,3,0,0,1-1.23-.7,2.84,2.84,0,0,1-.7-1.21A6.2,6.2,0,0,1,22.73,42.16Z" transform="translate(0 -0.18)"/><path class="cls-5" d="M22.73,42.16V37.8A1.22,1.22,0,0,1,23,37a.87.87,0,0,1,.66-.27.9.9,0,0,1,.68.27,1.28,1.28,0,0,1,.25.84v4.46a3.86,3.86,0,0,0,.17,1.27,1.45,1.45,0,0,0,.6.79,2.19,2.19,0,0,0,1.21.28A1.8,1.8,0,0,0,28.07,44a2.77,2.77,0,0,0,.45-1.73V37.8a1.21,1.21,0,0,1,.25-.84.84.84,0,0,1,.66-.27.89.89,0,0,1,.67.27,1.21,1.21,0,0,1,.25.84v4.36a6.47,6.47,0,0,1-.2,1.78,2.73,2.73,0,0,1-.78,1.24,3,3,0,0,1-1.15.67,5.08,5.08,0,0,1-1.54.21,6.33,6.33,0,0,1-1.8-.22,3,3,0,0,1-1.23-.7,2.84,2.84,0,0,1-.7-1.21A6.2,6.2,0,0,1,22.73,42.16Z" transform="translate(0 -0.18)"/><path class="cls-4" d="M36.12,37.79l3.54,5.34V37.74a1.18,1.18,0,0,1,.22-.79.75.75,0,0,1,.61-.26.79.79,0,0,1,.63.26,1.18,1.18,0,0,1,.22.79v7.13c0,.8-.33,1.19-1,1.19a1.23,1.23,0,0,1-.44-.07,1.17,1.17,0,0,1-.37-.22,2.3,2.3,0,0,1-.32-.37c-.1-.13-.2-.28-.3-.42L35.47,39.7V45a1.15,1.15,0,0,1-.24.79.86.86,0,0,1-1.24,0,1.14,1.14,0,0,1-.23-.78V38a2.16,2.16,0,0,1,.09-.7,1,1,0,0,1,.39-.46,1.15,1.15,0,0,1,.59-.17.94.94,0,0,1,.43.08.9.9,0,0,1,.3.21,2.38,2.38,0,0,1,.28.36C35.93,37.48,36,37.63,36.12,37.79Z" transform="translate(0 -0.18)"/><path class="cls-5" d="M36.12,37.79l3.54,5.34V37.74a1.18,1.18,0,0,1,.22-.79.75.75,0,0,1,.61-.26.79.79,0,0,1,.63.26,1.18,1.18,0,0,1,.22.79v7.13c0,.8-.33,1.19-1,1.19a1.23,1.23,0,0,1-.44-.07,1.17,1.17,0,0,1-.37-.22,2.3,2.3,0,0,1-.32-.37c-.1-.13-.2-.28-.3-.42L35.47,39.7V45a1.15,1.15,0,0,1-.24.79.86.86,0,0,1-1.24,0,1.14,1.14,0,0,1-.23-.78V38a2.16,2.16,0,0,1,.09-.7,1,1,0,0,1,.39-.46,1.15,1.15,0,0,1,.59-.17.94.94,0,0,1,.43.08.9.9,0,0,1,.3.21,2.38,2.38,0,0,1,.28.36C35.93,37.48,36,37.63,36.12,37.79Z" transform="translate(0 -0.18)"/><path class="cls-4" d="M50.63,38.36h-2v6.58a1.23,1.23,0,0,1-.26.85.85.85,0,0,1-.65.27.86.86,0,0,1-.67-.28,1.19,1.19,0,0,1-.25-.84V38.36h-2a1,1,0,0,1-.7-.21.8.8,0,0,1,0-1.11,1.07,1.07,0,0,1,.69-.2h5.84a1,1,0,0,1,.71.21.77.77,0,0,1,0,1.1A1.06,1.06,0,0,1,50.63,38.36Z" transform="translate(0 -0.18)"/><path class="cls-5" d="M50.63,38.36h-2v6.58a1.23,1.23,0,0,1-.26.85.85.85,0,0,1-.65.27.86.86,0,0,1-.67-.28,1.19,1.19,0,0,1-.25-.84V38.36h-2a1,1,0,0,1-.7-.21.8.8,0,0,1,0-1.11,1.07,1.07,0,0,1,.69-.2h5.84a1,1,0,0,1,.71.21.77.77,0,0,1,0,1.1A1.06,1.06,0,0,1,50.63,38.36Z" transform="translate(0 -0.18)"/><path class="cls-4" d="M54.12,44.94V37.8a1.22,1.22,0,0,1,.26-.84.83.83,0,0,1,.65-.27.87.87,0,0,1,.67.27,1.21,1.21,0,0,1,.26.84v7.14a1.19,1.19,0,0,1-.26.84.85.85,0,0,1-.67.28.83.83,0,0,1-.65-.28A1.22,1.22,0,0,1,54.12,44.94Z" transform="translate(0 -0.18)"/><path class="cls-5" d="M54.12,44.94V37.8a1.22,1.22,0,0,1,.26-.84.83.83,0,0,1,.65-.27.87.87,0,0,1,.67.27,1.21,1.21,0,0,1,.26.84v7.14a1.19,1.19,0,0,1-.26.84.85.85,0,0,1-.67.28.83.83,0,0,1-.65-.28A1.22,1.22,0,0,1,54.12,44.94Z" transform="translate(0 -0.18)"/><path class="cls-4" d="M61.8,37.79l3.53,5.34V37.74a1.18,1.18,0,0,1,.22-.79.75.75,0,0,1,.61-.26.77.77,0,0,1,.63.26,1.18,1.18,0,0,1,.23.79v7.13c0,.8-.33,1.19-1,1.19a1.25,1.25,0,0,1-.45-.07,1.29,1.29,0,0,1-.37-.22,2.94,2.94,0,0,1-.32-.37l-.3-.42L61.15,39.7V45a1.15,1.15,0,0,1-.24.79.84.84,0,0,1-.62.26.8.8,0,0,1-.63-.27,1.19,1.19,0,0,1-.23-.78V38a1.89,1.89,0,0,1,.1-.7.91.91,0,0,1,.39-.46,1.09,1.09,0,0,1,.58-.17,1,1,0,0,1,.74.29,1.87,1.87,0,0,1,.27.36Z" transform="translate(0 -0.18)"/><path class="cls-5" d="M61.8,37.79l3.53,5.34V37.74a1.18,1.18,0,0,1,.22-.79.75.75,0,0,1,.61-.26.77.77,0,0,1,.63.26,1.18,1.18,0,0,1,.23.79v7.13c0,.8-.33,1.19-1,1.19a1.25,1.25,0,0,1-.45-.07,1.29,1.29,0,0,1-.37-.22,2.94,2.94,0,0,1-.32-.37l-.3-.42L61.15,39.7V45a1.15,1.15,0,0,1-.24.79.84.84,0,0,1-.62.26.8.8,0,0,1-.63-.27,1.19,1.19,0,0,1-.23-.78V38a1.89,1.89,0,0,1,.1-.7.91.91,0,0,1,.39-.46,1.09,1.09,0,0,1,.58-.17,1,1,0,0,1,.74.29,1.87,1.87,0,0,1,.27.36Z" transform="translate(0 -0.18)"/><path class="cls-4" d="M78.7,42.22V44a2,2,0,0,1-.07.55.93.93,0,0,1-.25.38,2.26,2.26,0,0,1-.47.32,7.34,7.34,0,0,1-1.58.65,6.24,6.24,0,0,1-1.66.2,5.23,5.23,0,0,1-1.9-.32,3.85,3.85,0,0,1-1.47-.93,4.28,4.28,0,0,1-.93-1.49,5.46,5.46,0,0,1-.33-2,5.66,5.66,0,0,1,.32-1.93A3.93,3.93,0,0,1,71.29,38,4.08,4.08,0,0,1,72.78,37a5.62,5.62,0,0,1,2-.32,5,5,0,0,1,1.62.24,3.42,3.42,0,0,1,1.14.62,2.66,2.66,0,0,1,.67.78,1.58,1.58,0,0,1,.22.74.79.79,0,0,1-.26.59.85.85,0,0,1-.61.24.82.82,0,0,1-.38-.09.86.86,0,0,1-.31-.26,9.42,9.42,0,0,0-.57-.8,1.73,1.73,0,0,0-.64-.46,2.29,2.29,0,0,0-1-.19,2.88,2.88,0,0,0-1.13.22,2.37,2.37,0,0,0-.86.64,2.76,2.76,0,0,0-.54,1,4.41,4.41,0,0,0-.19,1.35,3.66,3.66,0,0,0,.73,2.45,2.55,2.55,0,0,0,2,.86,4.19,4.19,0,0,0,1.2-.17A6.31,6.31,0,0,0,77,44V42.53H75.59a1.55,1.55,0,0,1-.77-.16.56.56,0,0,1-.27-.53.68.68,0,0,1,.22-.5.88.88,0,0,1,.6-.19h2.08a2.93,2.93,0,0,1,.65.06.74.74,0,0,1,.43.31A1.2,1.2,0,0,1,78.7,42.22Z" transform="translate(0 -0.18)"/><path class="cls-5" d="M78.7,42.22V44a2,2,0,0,1-.07.55.93.93,0,0,1-.25.38,2.26,2.26,0,0,1-.47.32,7.34,7.34,0,0,1-1.58.65,6.24,6.24,0,0,1-1.66.2,5.23,5.23,0,0,1-1.9-.32,3.85,3.85,0,0,1-1.47-.93,4.28,4.28,0,0,1-.93-1.49,5.46,5.46,0,0,1-.33-2,5.66,5.66,0,0,1,.32-1.93A3.93,3.93,0,0,1,71.29,38,4.08,4.08,0,0,1,72.78,37a5.62,5.62,0,0,1,2-.32,5,5,0,0,1,1.62.24,3.42,3.42,0,0,1,1.14.62,2.66,2.66,0,0,1,.67.78,1.58,1.58,0,0,1,.22.74.79.79,0,0,1-.26.59.85.85,0,0,1-.61.24.82.82,0,0,1-.38-.09.86.86,0,0,1-.31-.26,9.42,9.42,0,0,0-.57-.8,1.73,1.73,0,0,0-.64-.46,2.29,2.29,0,0,0-1-.19,2.88,2.88,0,0,0-1.13.22,2.37,2.37,0,0,0-.86.64,2.76,2.76,0,0,0-.54,1,4.41,4.41,0,0,0-.19,1.35,3.66,3.66,0,0,0,.73,2.45,2.55,2.55,0,0,0,2,.86,4.19,4.19,0,0,0,1.2-.17A6.31,6.31,0,0,0,77,44V42.53H75.59a1.55,1.55,0,0,1-.77-.16.56.56,0,0,1-.27-.53.68.68,0,0,1,.22-.5.88.88,0,0,1,.6-.19h2.08a2.93,2.93,0,0,1,.65.06.74.74,0,0,1,.43.31A1.2,1.2,0,0,1,78.7,42.22Z" transform="translate(0 -0.18)"/><path class="cls-4" d="M94.11,43a2.43,2.43,0,0,1-.21.94,3.53,3.53,0,0,1-1.84,1.78,4.28,4.28,0,0,1-1.66.3,5.94,5.94,0,0,1-1.31-.13A3.69,3.69,0,0,1,88,45.5a3.44,3.44,0,0,1-.88-.75,4.78,4.78,0,0,1-.62-1,5.18,5.18,0,0,1-.38-1.13A6.44,6.44,0,0,1,86,41.39a5.68,5.68,0,0,1,.31-2,4.35,4.35,0,0,1,.92-1.49A3.87,3.87,0,0,1,88.65,37a4.4,4.4,0,0,1,1.7-.32,4.16,4.16,0,0,1,2,.44,3.59,3.59,0,0,1,1.32,1.08,2.17,2.17,0,0,1,.45,1.22.79.79,0,0,1-.22.56.71.71,0,0,1-.54.24.72.72,0,0,1-.52-.17,2.35,2.35,0,0,1-.4-.57,2.78,2.78,0,0,0-.84-1,2.09,2.09,0,0,0-1.2-.33,2.15,2.15,0,0,0-1.8.86,3.85,3.85,0,0,0-.67,2.44,4.73,4.73,0,0,0,.29,1.76,2.2,2.2,0,0,0,.85,1,2.3,2.3,0,0,0,1.27.34,2.26,2.26,0,0,0,1.34-.39,2.37,2.37,0,0,0,.82-1.15,1.92,1.92,0,0,1,.3-.59.64.64,0,0,1,.55-.22.73.73,0,0,1,.56.23A.74.74,0,0,1,94.11,43Z" transform="translate(0 -0.18)"/><path class="cls-5" d="M94.11,43a2.43,2.43,0,0,1-.21.94,3.53,3.53,0,0,1-1.84,1.78,4.28,4.28,0,0,1-1.66.3,5.94,5.94,0,0,1-1.31-.13A3.69,3.69,0,0,1,88,45.5a3.44,3.44,0,0,1-.88-.75,4.78,4.78,0,0,1-.62-1,5.18,5.18,0,0,1-.38-1.13A6.44,6.44,0,0,1,86,41.39a5.68,5.68,0,0,1,.31-2,4.35,4.35,0,0,1,.92-1.49A3.87,3.87,0,0,1,88.65,37a4.4,4.4,0,0,1,1.7-.32,4.16,4.16,0,0,1,2,.44,3.59,3.59,0,0,1,1.32,1.08,2.17,2.17,0,0,1,.45,1.22.79.79,0,0,1-.22.56.71.71,0,0,1-.54.24.72.72,0,0,1-.52-.17,2.35,2.35,0,0,1-.4-.57,2.78,2.78,0,0,0-.84-1,2.09,2.09,0,0,0-1.2-.33,2.15,2.15,0,0,0-1.8.86,3.85,3.85,0,0,0-.67,2.44,4.73,4.73,0,0,0,.29,1.76,2.2,2.2,0,0,0,.85,1,2.3,2.3,0,0,0,1.27.34,2.26,2.26,0,0,0,1.34-.39,2.37,2.37,0,0,0,.82-1.15,1.92,1.92,0,0,1,.3-.59.64.64,0,0,1,.55-.22.73.73,0,0,1,.56.23A.74.74,0,0,1,94.11,43Z" transform="translate(0 -0.18)"/><path class="cls-4" d="M99,37.8v2.6h4V37.8a1.22,1.22,0,0,1,.25-.84.87.87,0,0,1,.66-.27.89.89,0,0,1,.67.27,1.21,1.21,0,0,1,.26.84v7.14a1.19,1.19,0,0,1-.26.84.88.88,0,0,1-.67.28.81.81,0,0,1-.66-.28,1.22,1.22,0,0,1-.25-.84v-3H99v3a1.14,1.14,0,0,1-.26.84.93.93,0,0,1-1.33,0,1.28,1.28,0,0,1-.24-.84V37.8A1.28,1.28,0,0,1,97.4,37a.86.86,0,0,1,.67-.27.89.89,0,0,1,.67.27A1.21,1.21,0,0,1,99,37.8Z" transform="translate(0 -0.18)"/><path class="cls-5" d="M99,37.8v2.6h4V37.8a1.22,1.22,0,0,1,.25-.84.87.87,0,0,1,.66-.27.89.89,0,0,1,.67.27,1.21,1.21,0,0,1,.26.84v7.14a1.19,1.19,0,0,1-.26.84.88.88,0,0,1-.67.28.81.81,0,0,1-.66-.28,1.22,1.22,0,0,1-.25-.84v-3H99v3a1.14,1.14,0,0,1-.26.84.93.93,0,0,1-1.33,0,1.28,1.28,0,0,1-.24-.84V37.8A1.28,1.28,0,0,1,97.4,37a.86.86,0,0,1,.67-.27.89.89,0,0,1,.67.27A1.21,1.21,0,0,1,99,37.8Z" transform="translate(0 -0.18)"/><path class="cls-4" d="M114,44.88l-.43-1.14h-3.69l-.43,1.17a3.81,3.81,0,0,1-.44.91.67.67,0,0,1-.58.24.88.88,0,0,1-.62-.25.8.8,0,0,1-.26-.58,1.31,1.31,0,0,1,.06-.38c0-.13.11-.31.2-.55l2.32-5.89c.07-.17.15-.37.24-.61a3,3,0,0,1,.3-.59,1.39,1.39,0,0,1,1.69-.38,1.15,1.15,0,0,1,.41.38,2.12,2.12,0,0,1,.27.49c.07.17.16.41.27.7l2.37,5.85a2.88,2.88,0,0,1,.28,1,.83.83,0,0,1-.26.58.86.86,0,0,1-.64.26.84.84,0,0,1-.37-.07,1.09,1.09,0,0,1-.26-.21,2.11,2.11,0,0,1-.22-.41Zm-3.64-2.52H113l-1.37-3.74Z" transform="translate(0 -0.18)"/><path class="cls-5" d="M114,44.88l-.43-1.14h-3.69l-.43,1.17a3.81,3.81,0,0,1-.44.91.67.67,0,0,1-.58.24.88.88,0,0,1-.62-.25.8.8,0,0,1-.26-.58,1.31,1.31,0,0,1,.06-.38c0-.13.11-.31.2-.55l2.32-5.89c.07-.17.15-.37.24-.61a3,3,0,0,1,.3-.59,1.39,1.39,0,0,1,1.69-.38,1.15,1.15,0,0,1,.41.38,2.12,2.12,0,0,1,.27.49c.07.17.16.41.27.7l2.37,5.85a2.88,2.88,0,0,1,.28,1,.83.83,0,0,1-.26.58.86.86,0,0,1-.64.26.84.84,0,0,1-.37-.07,1.09,1.09,0,0,1-.26-.21,2.11,2.11,0,0,1-.22-.41Zm-3.64-2.52H113l-1.37-3.74Z" transform="translate(0 -0.18)"/><path class="cls-4" d="M121.12,42h-.65v2.91a1.2,1.2,0,0,1-.25.85.87.87,0,0,1-.66.27.84.84,0,0,1-.68-.28,1.28,1.28,0,0,1-.24-.84V38a1.19,1.19,0,0,1,.26-.86,1.18,1.18,0,0,1,.86-.27h3c.41,0,.76,0,1.06,0a2.79,2.79,0,0,1,.79.22,2.27,2.27,0,0,1,.75.51,2.13,2.13,0,0,1,.5.78,2.4,2.4,0,0,1,.17.93,2.26,2.26,0,0,1-.57,1.62,3.25,3.25,0,0,1-1.73.86,3.59,3.59,0,0,1,.93.77,7.46,7.46,0,0,1,.79,1.08,7.62,7.62,0,0,1,.55,1,2,2,0,0,1,.19.64.68.68,0,0,1-.11.35.84.84,0,0,1-.31.28,1,1,0,0,1-.46.1.94.94,0,0,1-.52-.14,1.41,1.41,0,0,1-.36-.37c-.1-.15-.24-.37-.41-.66l-.74-1.22a6.6,6.6,0,0,0-.71-1,1.89,1.89,0,0,0-.63-.48A2.15,2.15,0,0,0,121.12,42Zm1-3.81h-1.7v2.49h1.65a5,5,0,0,0,1.11-.11,1.37,1.37,0,0,0,.69-.39,1.12,1.12,0,0,0,.24-.76,1.14,1.14,0,0,0-.19-.66,1.12,1.12,0,0,0-.53-.43A3.86,3.86,0,0,0,122.17,38.22Z" transform="translate(0 -0.18)"/><path class="cls-5" d="M121.12,42h-.65v2.91a1.2,1.2,0,0,1-.25.85.87.87,0,0,1-.66.27.84.84,0,0,1-.68-.28,1.28,1.28,0,0,1-.24-.84V38a1.19,1.19,0,0,1,.26-.86,1.18,1.18,0,0,1,.86-.27h3c.41,0,.76,0,1.06,0a2.79,2.79,0,0,1,.79.22,2.27,2.27,0,0,1,.75.51,2.13,2.13,0,0,1,.5.78,2.4,2.4,0,0,1,.17.93,2.26,2.26,0,0,1-.57,1.62,3.25,3.25,0,0,1-1.73.86,3.59,3.59,0,0,1,.93.77,7.46,7.46,0,0,1,.79,1.08,7.62,7.62,0,0,1,.55,1,2,2,0,0,1,.19.64.68.68,0,0,1-.11.35.84.84,0,0,1-.31.28,1,1,0,0,1-.46.1.94.94,0,0,1-.52-.14,1.41,1.41,0,0,1-.36-.37c-.1-.15-.24-.37-.41-.66l-.74-1.22a6.6,6.6,0,0,0-.71-1,1.89,1.89,0,0,0-.63-.48A2.15,2.15,0,0,0,121.12,42Zm1-3.81h-1.7v2.49h1.65a5,5,0,0,0,1.11-.11,1.37,1.37,0,0,0,.69-.39,1.12,1.12,0,0,0,.24-.76,1.14,1.14,0,0,0-.19-.66,1.12,1.12,0,0,0-.53-.43A3.86,3.86,0,0,0,122.17,38.22Z" transform="translate(0 -0.18)"/><path class="cls-4" d="M134.94,44.88l-.43-1.14h-3.68l-.44,1.17a3.89,3.89,0,0,1-.43.91.69.69,0,0,1-.59.24.85.85,0,0,1-.61-.25.77.77,0,0,1-.27-.58,1.06,1.06,0,0,1,.07-.38c0-.13.1-.31.2-.55l2.32-5.89c.06-.17.14-.37.24-.61a3.61,3.61,0,0,1,.29-.59,1.4,1.4,0,0,1,.42-.38,1.22,1.22,0,0,1,.63-.14,1.24,1.24,0,0,1,.64.14,1.28,1.28,0,0,1,.42.38,2.54,2.54,0,0,1,.26.49c.08.17.17.41.28.7l2.37,5.85a3.15,3.15,0,0,1,.28,1,.81.81,0,0,1-.27.58.93.93,0,0,1-1,.19.92.92,0,0,1-.26-.21,2.06,2.06,0,0,1-.23-.41Zm-3.63-2.52H134l-1.37-3.74Z" transform="translate(0 -0.18)"/><path class="cls-5" d="M134.94,44.88l-.43-1.14h-3.68l-.44,1.17a3.89,3.89,0,0,1-.43.91.69.69,0,0,1-.59.24.85.85,0,0,1-.61-.25.77.77,0,0,1-.27-.58,1.06,1.06,0,0,1,.07-.38c0-.13.1-.31.2-.55l2.32-5.89c.06-.17.14-.37.24-.61a3.61,3.61,0,0,1,.29-.59,1.4,1.4,0,0,1,.42-.38,1.22,1.22,0,0,1,.63-.14,1.24,1.24,0,0,1,.64.14,1.28,1.28,0,0,1,.42.38,2.54,2.54,0,0,1,.26.49c.08.17.17.41.28.7l2.37,5.85a3.15,3.15,0,0,1,.28,1,.81.81,0,0,1-.27.58.93.93,0,0,1-1,.19.92.92,0,0,1-.26-.21,2.06,2.06,0,0,1-.23-.41Zm-3.63-2.52H134l-1.37-3.74Z" transform="translate(0 -0.18)"/><path class="cls-4" d="M147.36,43a2.43,2.43,0,0,1-.21.94,3.43,3.43,0,0,1-1.84,1.78,4.28,4.28,0,0,1-1.66.3,5.94,5.94,0,0,1-1.31-.13,3.69,3.69,0,0,1-1.06-.43,3.44,3.44,0,0,1-.88-.75,4.78,4.78,0,0,1-.62-1,5.18,5.18,0,0,1-.38-1.13,6.44,6.44,0,0,1-.12-1.27,5.45,5.45,0,0,1,.32-2,4.18,4.18,0,0,1,.91-1.49A3.87,3.87,0,0,1,141.9,37a4.4,4.4,0,0,1,1.7-.32,4.16,4.16,0,0,1,2,.44,3.59,3.59,0,0,1,1.32,1.08,2.19,2.19,0,0,1,.46,1.22.8.8,0,0,1-.23.56.69.69,0,0,1-.53.24.73.73,0,0,1-.53-.17,2.35,2.35,0,0,1-.4-.57,2.78,2.78,0,0,0-.84-1,2.07,2.07,0,0,0-1.2-.33,2.15,2.15,0,0,0-1.8.86,3.85,3.85,0,0,0-.67,2.44,4.52,4.52,0,0,0,.3,1.76,2.13,2.13,0,0,0,.84,1,2.3,2.3,0,0,0,1.27.34,2.26,2.26,0,0,0,1.34-.39,2.46,2.46,0,0,0,.83-1.15,1.71,1.71,0,0,1,.29-.59.64.64,0,0,1,.55-.22.79.79,0,0,1,.8.79Z" transform="translate(0 -0.18)"/><path class="cls-5" d="M147.36,43a2.43,2.43,0,0,1-.21.94,3.43,3.43,0,0,1-1.84,1.78,4.28,4.28,0,0,1-1.66.3,5.94,5.94,0,0,1-1.31-.13,3.69,3.69,0,0,1-1.06-.43,3.44,3.44,0,0,1-.88-.75,4.78,4.78,0,0,1-.62-1,5.18,5.18,0,0,1-.38-1.13,6.44,6.44,0,0,1-.12-1.27,5.45,5.45,0,0,1,.32-2,4.18,4.18,0,0,1,.91-1.49A3.87,3.87,0,0,1,141.9,37a4.4,4.4,0,0,1,1.7-.32,4.16,4.16,0,0,1,2,.44,3.59,3.59,0,0,1,1.32,1.08,2.19,2.19,0,0,1,.46,1.22.8.8,0,0,1-.23.56.69.69,0,0,1-.53.24.73.73,0,0,1-.53-.17,2.35,2.35,0,0,1-.4-.57,2.78,2.78,0,0,0-.84-1,2.07,2.07,0,0,0-1.2-.33,2.15,2.15,0,0,0-1.8.86,3.85,3.85,0,0,0-.67,2.44,4.52,4.52,0,0,0,.3,1.76,2.13,2.13,0,0,0,.84,1,2.3,2.3,0,0,0,1.27.34,2.26,2.26,0,0,0,1.34-.39,2.46,2.46,0,0,0,.83-1.15,1.71,1.71,0,0,1,.29-.59.64.64,0,0,1,.55-.22.79.79,0,0,1,.8.79Z" transform="translate(0 -0.18)"/><path class="cls-4" d="M156.28,38.36h-2v6.58a1.29,1.29,0,0,1-.25.85.87.87,0,0,1-.66.27.84.84,0,0,1-.66-.28,1.14,1.14,0,0,1-.26-.84V38.36h-2a1,1,0,0,1-.69-.21.68.68,0,0,1-.23-.55.71.71,0,0,1,.24-.56,1,1,0,0,1,.68-.2h5.84a1,1,0,0,1,.71.21.68.68,0,0,1,.23.55.72.72,0,0,1-.23.55A1,1,0,0,1,156.28,38.36Z" transform="translate(0 -0.18)"/><path class="cls-5" d="M156.28,38.36h-2v6.58a1.29,1.29,0,0,1-.25.85.87.87,0,0,1-.66.27.84.84,0,0,1-.66-.28,1.14,1.14,0,0,1-.26-.84V38.36h-2a1,1,0,0,1-.69-.21.68.68,0,0,1-.23-.55.71.71,0,0,1,.24-.56,1,1,0,0,1,.68-.2h5.84a1,1,0,0,1,.71.21.68.68,0,0,1,.23.55.72.72,0,0,1-.23.55A1,1,0,0,1,156.28,38.36Z" transform="translate(0 -0.18)"/><path class="cls-4" d="M165.68,38.26h-4.14v2.22h3.81a.9.9,0,0,1,.62.19.64.64,0,0,1,.21.5.67.67,0,0,1-.2.5.9.9,0,0,1-.63.2h-3.81v2.58h4.28a1,1,0,0,1,.65.2.67.67,0,0,1,.22.53.68.68,0,0,1-.22.53,1,1,0,0,1-.65.2h-5a1.19,1.19,0,0,1-.87-.27,1.21,1.21,0,0,1-.26-.86V38a1.51,1.51,0,0,1,.12-.65.69.69,0,0,1,.37-.36,1.46,1.46,0,0,1,.64-.12h4.85a1,1,0,0,1,.65.2.72.72,0,0,1,0,1A1,1,0,0,1,165.68,38.26Z" transform="translate(0 -0.18)"/><path class="cls-5" d="M165.68,38.26h-4.14v2.22h3.81a.9.9,0,0,1,.62.19.64.64,0,0,1,.21.5.67.67,0,0,1-.2.5.9.9,0,0,1-.63.2h-3.81v2.58h4.28a1,1,0,0,1,.65.2.67.67,0,0,1,.22.53.68.68,0,0,1-.22.53,1,1,0,0,1-.65.2h-5a1.19,1.19,0,0,1-.87-.27,1.21,1.21,0,0,1-.26-.86V38a1.51,1.51,0,0,1,.12-.65.69.69,0,0,1,.37-.36,1.46,1.46,0,0,1,.64-.12h4.85a1,1,0,0,1,.65.2.72.72,0,0,1,0,1A1,1,0,0,1,165.68,38.26Z" transform="translate(0 -0.18)"/><path class="cls-4" d="M172,42h-.64v2.91a1.2,1.2,0,0,1-.25.85.87.87,0,0,1-.66.27.83.83,0,0,1-.68-.28,1.22,1.22,0,0,1-.25-.84V38a1.15,1.15,0,0,1,.27-.86,1.17,1.17,0,0,1,.86-.27h3a10.26,10.26,0,0,1,1.05,0,2.76,2.76,0,0,1,.8.22,2.38,2.38,0,0,1,.75.51,2.13,2.13,0,0,1,.5.78,2.6,2.6,0,0,1,.17.93,2.26,2.26,0,0,1-.57,1.62,3.24,3.24,0,0,1-1.74.86,3.47,3.47,0,0,1,.94.77,8.3,8.3,0,0,1,.79,1.08,9,9,0,0,1,.55,1,2,2,0,0,1,.19.64.68.68,0,0,1-.11.35.8.8,0,0,1-.32.28,1,1,0,0,1-1,0,1.62,1.62,0,0,1-.37-.37c-.1-.15-.23-.37-.41-.66l-.73-1.22a7.37,7.37,0,0,0-.71-1,1.82,1.82,0,0,0-.64-.48A2.08,2.08,0,0,0,172,42Zm1.06-3.81h-1.7v2.49H173a5,5,0,0,0,1.11-.11,1.37,1.37,0,0,0,.69-.39,1.12,1.12,0,0,0,.24-.76,1.22,1.22,0,0,0-.19-.66,1.1,1.1,0,0,0-.54-.43A3.74,3.74,0,0,0,173.06,38.22Z" transform="translate(0 -0.18)"/><path class="cls-5" d="M172,42h-.64v2.91a1.2,1.2,0,0,1-.25.85.87.87,0,0,1-.66.27.83.83,0,0,1-.68-.28,1.22,1.22,0,0,1-.25-.84V38a1.15,1.15,0,0,1,.27-.86,1.17,1.17,0,0,1,.86-.27h3a10.26,10.26,0,0,1,1.05,0,2.76,2.76,0,0,1,.8.22,2.38,2.38,0,0,1,.75.51,2.13,2.13,0,0,1,.5.78,2.6,2.6,0,0,1,.17.93,2.26,2.26,0,0,1-.57,1.62,3.24,3.24,0,0,1-1.74.86,3.47,3.47,0,0,1,.94.77,8.3,8.3,0,0,1,.79,1.08,9,9,0,0,1,.55,1,2,2,0,0,1,.19.64.68.68,0,0,1-.11.35.8.8,0,0,1-.32.28,1,1,0,0,1-1,0,1.62,1.62,0,0,1-.37-.37c-.1-.15-.23-.37-.41-.66l-.73-1.22a7.37,7.37,0,0,0-.71-1,1.82,1.82,0,0,0-.64-.48A2.08,2.08,0,0,0,172,42Zm1.06-3.81h-1.7v2.49H173a5,5,0,0,0,1.11-.11,1.37,1.37,0,0,0,.69-.39,1.12,1.12,0,0,0,.24-.76,1.22,1.22,0,0,0-.19-.66,1.1,1.1,0,0,0-.54-.43A3.74,3.74,0,0,0,173.06,38.22Z" transform="translate(0 -0.18)"/><path class="cls-4" d="M186.92,43.19a2.69,2.69,0,0,1-.42,1.48,2.88,2.88,0,0,1-1.24,1,4.63,4.63,0,0,1-1.94.37,4.43,4.43,0,0,1-2.21-.5,3,3,0,0,1-1-1,2.16,2.16,0,0,1-.38-1.18.74.74,0,0,1,.23-.57.78.78,0,0,1,.59-.24.71.71,0,0,1,.49.18,1.52,1.52,0,0,1,.34.55,3.8,3.8,0,0,0,.38.73,1.57,1.57,0,0,0,.56.48,2.22,2.22,0,0,0,1,.18,2.12,2.12,0,0,0,1.33-.38,1.14,1.14,0,0,0,.51-.95,1,1,0,0,0-.28-.73,1.74,1.74,0,0,0-.71-.43c-.29-.1-.68-.2-1.16-.31a8.75,8.75,0,0,1-1.64-.54,2.55,2.55,0,0,1-1-.83,2.17,2.17,0,0,1-.39-1.32,2.21,2.21,0,0,1,.41-1.33,2.52,2.52,0,0,1,1.18-.89,5.4,5.4,0,0,1,3.26-.11,3.23,3.23,0,0,1,1,.55,2.26,2.26,0,0,1,.59.72,1.77,1.77,0,0,1,.19.74.84.84,0,0,1-.24.59.7.7,0,0,1-.57.26.69.69,0,0,1-.48-.15,2.28,2.28,0,0,1-.36-.52,2.29,2.29,0,0,0-.59-.8,1.77,1.77,0,0,0-1.12-.29,2,2,0,0,0-1.14.31.9.9,0,0,0-.44.76.78.78,0,0,0,.15.47,1.28,1.28,0,0,0,.41.34,3.38,3.38,0,0,0,.52.22l.88.23a13,13,0,0,1,1.39.4,4.36,4.36,0,0,1,1.06.52,2.26,2.26,0,0,1,.68.79A2.52,2.52,0,0,1,186.92,43.19Z" transform="translate(0 -0.18)"/><path class="cls-5" d="M186.92,43.19a2.69,2.69,0,0,1-.42,1.48,2.88,2.88,0,0,1-1.24,1,4.63,4.63,0,0,1-1.94.37,4.43,4.43,0,0,1-2.21-.5,3,3,0,0,1-1-1,2.16,2.16,0,0,1-.38-1.18.74.74,0,0,1,.23-.57.78.78,0,0,1,.59-.24.71.71,0,0,1,.49.18,1.52,1.52,0,0,1,.34.55,3.8,3.8,0,0,0,.38.73,1.57,1.57,0,0,0,.56.48,2.22,2.22,0,0,0,1,.18,2.12,2.12,0,0,0,1.33-.38,1.14,1.14,0,0,0,.51-.95,1,1,0,0,0-.28-.73,1.74,1.74,0,0,0-.71-.43c-.29-.1-.68-.2-1.16-.31a8.75,8.75,0,0,1-1.64-.54,2.55,2.55,0,0,1-1-.83,2.17,2.17,0,0,1-.39-1.32,2.21,2.21,0,0,1,.41-1.33,2.52,2.52,0,0,1,1.18-.89,5.4,5.4,0,0,1,3.26-.11,3.23,3.23,0,0,1,1,.55,2.26,2.26,0,0,1,.59.72,1.77,1.77,0,0,1,.19.74.84.84,0,0,1-.24.59.7.7,0,0,1-.57.26.69.69,0,0,1-.48-.15,2.28,2.28,0,0,1-.36-.52,2.29,2.29,0,0,0-.59-.8,1.77,1.77,0,0,0-1.12-.29,2,2,0,0,0-1.14.31.9.9,0,0,0-.44.76.78.78,0,0,0,.15.47,1.28,1.28,0,0,0,.41.34,3.38,3.38,0,0,0,.52.22l.88.23a13,13,0,0,1,1.39.4,4.36,4.36,0,0,1,1.06.52,2.26,2.26,0,0,1,.68.79A2.52,2.52,0,0,1,186.92,43.19Z" transform="translate(0 -0.18)"/></g><g id="plus"><g class="cls-6"><g class="cls-7"><g class="cls-8"><path class="cls-9" d="M177.82,16.17a2.23,2.23,0,0,0-2.25,2.38,2.24,2.24,0,0,0,2.25,2.39h10.59V31.53a2.39,2.39,0,0,0,4.77,0V20.94h10.59A2.25,2.25,0,0,0,206,18.55a2.24,2.24,0,0,0-2.26-2.38H193.18V5.58a2.39,2.39,0,0,0-4.77,0V16.17Zm13,20.76a5.3,5.3,0,0,1-5.53-5.4V24.08h-7.45a5.3,5.3,0,0,1-5.4-5.53,5.3,5.3,0,0,1,5.4-5.53h7.45V5.58a5.53,5.53,0,0,1,11.06,0V13h7.44a5.3,5.3,0,0,1,5.4,5.53,5.29,5.29,0,0,1-5.4,5.53h-7.44v7.45A5.3,5.3,0,0,1,190.8,36.93Z" transform="translate(0 -0.18)"/></g></g></g><g class="cls-6"><g class="cls-10"><g class="cls-11"><path class="cls-9" d="M216.75,16.17a2.23,2.23,0,0,0-2.25,2.38,2.24,2.24,0,0,0,2.25,2.39h10.59V31.53a2.39,2.39,0,0,0,4.77,0V20.94H242.7A2.25,2.25,0,0,0,245,18.55a2.24,2.24,0,0,0-2.26-2.38H232.11V5.58a2.39,2.39,0,0,0-4.77,0V16.17Zm13,20.76a5.3,5.3,0,0,1-5.53-5.4V24.08h-7.45a5.3,5.3,0,0,1-5.4-5.53,5.3,5.3,0,0,1,5.4-5.53h7.45V5.58a5.53,5.53,0,0,1,11.06,0V13h7.44a5.3,5.3,0,0,1,5.4,5.53,5.29,5.29,0,0,1-5.4,5.53h-7.44v7.45A5.3,5.3,0,0,1,229.73,36.93Z" transform="translate(0 -0.18)"/></g></g></g></g></g></g></svg>