<svg xmlns="http://www.w3.org/2000/svg" xmlns:xlink="http://www.w3.org/1999/xlink" viewBox="0 0 248.73 52.18"><defs><style>.cls-1,.cls-3,.cls-5{fill:none;}.cls-2,.cls-3{font-size:39px;}.cls-2{fill:#1d5888;}.cls-2,.cls-3,.cls-4,.cls-5{font-family:ArialRoundedMTBold, Arial Rounded MT Bold;}.cls-3{stroke:#1d5888;stroke-width:1.11px;}.cls-3,.cls-5{stroke-miterlimit:10;}.cls-4,.cls-5{font-size:12.67px;}.cls-4{fill:#0b66a0;}.cls-5{stroke:#0b66a0;stroke-width:0.36px;}.cls-6{isolation:isolate;opacity:0.75;}.cls-7{clip-path:url(#clip-path);}.cls-8{clip-path:url(#clip-path-2);}.cls-9{fill:#ff993b;}.cls-10{clip-path:url(#clip-path-3);}.cls-11{clip-path:url(#clip-path-4);}</style><clipPath id="clip-path"><rect class="cls-1" x="172.94" y="3.42" width="36.96" height="36.96"/></clipPath><clipPath id="clip-path-2"><rect class="cls-1" x="173.06" y="3.6" width="36.75" height="36.75"/></clipPath><clipPath id="clip-path-3"><rect class="cls-1" x="211.82" y="3.42" width="36.96" height="36.96"/></clipPath><clipPath id="clip-path-4"><rect class="cls-1" x="211.98" y="3.6" width="36.75" height="36.75"/></clipPath></defs><g id="Layer_2" data-name="Layer 2"><g id="Layer_1-2" data-name="Layer 1"><g id="title"><text class="cls-2" transform="translate(0.71 34.25)">J</text><text class="cls-2" transform="translate(23.06 34.25)">S</text><text class="cls-2" transform="translate(59.62 34.25)">C</text><text class="cls-2" transform="translate(88.48 34.25)">o</text><text class="cls-2" transform="translate(112.04 34.25)">u</text><text class="cls-2" transform="translate(135.6 34.25)">n</text><text class="cls-2" transform="translate(159.15 34.25)">t</text><g id="js_title" data-name="js title"><text class="cls-3" transform="translate(0.71 34.25)">J</text><text class="cls-3" transform="translate(23.06 34.25)">S</text><text class="cls-3" transform="translate(59.62 34.25)">C</text><text class="cls-3" transform="translate(88.48 34.25)">o</text><text class="cls-3" transform="translate(112.04 34.25)">u</text><text class="cls-3" transform="translate(135.6 34.25)">n</text><text class="cls-3" transform="translate(159.15 34.25)">t</text></g></g><g id="lead"><text class="cls-4" transform="translate(0.18 49.33)">C</text><text class="cls-5" transform="translate(0.18 49.33)">C</text><text class="cls-4" transform="translate(10.94 49.33)">O</text><text class="cls-5" transform="translate(10.94 49.33)">O</text><text class="cls-4" transform="translate(22.36 49.33)">U</text><text class="cls-5" transform="translate(22.36 49.33)">U</text><text class="cls-4" transform="translate(33.37 49.33)">N</text><text class="cls-5" transform="translate(33.37 49.33)">N</text><text class="cls-4" transform="translate(44.38 49.33)">T</text><text class="cls-5" transform="translate(44.38 49.33)">T</text><text class="cls-4" transform="translate(53.69 49.33)">I</text><text class="cls-5" transform="translate(53.69 49.33)">I</text><text class="cls-4" transform="translate(59.04 49.33)">N</text><text class="cls-5" transform="translate(59.04 49.33)">N</text><text class="cls-4" transform="translate(70.06 49.33)">G</text><text class="cls-5" transform="translate(70.06 49.33)">G</text><text class="cls-4" transform="translate(86.03 49.33)">C</text><text class="cls-5" transform="translate(86.03 49.33)">C</text><text class="cls-4" transform="translate(96.79 49.33)">H</text><text class="cls-5" transform="translate(96.79 49.33)">H</text><text class="cls-4" transform="translate(107.8 49.33)">A</text><text class="cls-5" transform="translate(107.8 49.33)">A</text><text class="cls-4" transform="translate(118.29 49.33)">R</text><text class="cls-5" transform="translate(118.29 49.33)">R</text><text class="cls-4" transform="translate(128.78 49.33)">A</text><text class="cls-5" transform="translate(128.78 49.33)">A</text><text class="cls-4" transform="translate(139.28 49.33)">C</text><text class="cls-5" transform="translate(139.28 49.33)">C</text><text class="cls-4" transform="translate(150.04 49.33)">T</text><text class="cls-5" transform="translate(150.04 49.33)">T</text><text class="cls-4" transform="translate(159.34 49.33)">E</text><text class="cls-5" transform="translate(159.34 49.33)">E</text><text class="cls-4" transform="translate(169.18 49.33)">R</text><text class="cls-5" transform="translate(169.18 49.33)">R</text><text class="cls-4" transform="translate(179.67 49.33)">S</text><text class="cls-5" transform="translate(179.67 49.33)">S</text></g><g id="plus"><g class="cls-6"><g class="cls-7"><g class="cls-8"><path class="cls-9" d="M178.46,19.59A2.24,2.24,0,0,0,176.2,22a2.24,2.24,0,0,0,2.26,2.38H189V35a2.39,2.39,0,0,0,4.78,0V24.36H204.4A2.24,2.24,0,0,0,206.66,22a2.24,2.24,0,0,0-2.26-2.39H193.82V9A2.39,2.39,0,0,0,189,9V19.59Zm13,20.76A5.29,5.29,0,0,1,185.9,35V27.5h-7.44a5.29,5.29,0,0,1-5.4-5.52,5.29,5.29,0,0,1,5.4-5.53h7.44V9A5.53,5.53,0,0,1,197,9v7.45h7.44A5.29,5.29,0,0,1,209.8,22a5.29,5.29,0,0,1-5.4,5.52H197V35A5.29,5.29,0,0,1,191.43,40.35Z"/></g></g></g><g class="cls-6"><g class="cls-10"><g class="cls-11"><path class="cls-9" d="M217.39,19.59A2.24,2.24,0,0,0,215.13,22a2.24,2.24,0,0,0,2.26,2.38H228V35a2.39,2.39,0,0,0,4.77,0V24.36h10.59A2.24,2.24,0,0,0,245.59,22a2.24,2.24,0,0,0-2.26-2.39H232.74V9A2.39,2.39,0,0,0,228,9V19.59Zm13,20.76a5.29,5.29,0,0,1-5.53-5.4V27.5h-7.44A5.3,5.3,0,0,1,212,22a5.3,5.3,0,0,1,5.41-5.53h7.44V9a5.53,5.53,0,0,1,11.06,0v7.45h7.44a5.29,5.29,0,0,1,5.4,5.53,5.29,5.29,0,0,1-5.4,5.52h-7.44V35A5.29,5.29,0,0,1,230.36,40.35Z"/></g></g></g></g></g></g></svg>